<svg t="1662905751222" class="icon" viewBox="0 0 1024 1024" version="1.1" xmlns="http://www.w3.org/2000/svg" p-id="11848" width="20" height="20">
    <path d="M260.693333 237.226667C311.466667 243.2 347.306667 261.973333 384 298.666667l42.666667 42.666666-138.666667 138.666667c13.226667 5.12 23.893333 11.52 32.853333 16.64 15.786667 9.813333 25.173333 15.36 49.066667 15.36 23.893333 0 33.28-5.546667 49.066667-15.36 19.626667-11.52 46.08-27.306667 93.44-27.306667s73.813333 15.786667 93.013333 27.306667c15.786667 9.386667 25.6 15.36 49.066667 15.36s33.28-5.546667 49.066666-15.36c5.12-2.986667 11.093333-6.4 17.493334-9.813333L447.146667 213.333333C393.386667 159.573333 343.04 136.533333 268.8 130.133333 238.933333 127.573333 213.333333 151.893333 213.333333 181.76v3.84c0 26.88 20.906667 48.213333 47.36 51.626667z m650.24 569.6c-7.253333-2.56-13.653333-6.4-21.333333-11.52-19.2-11.52-45.653333-27.306667-93.013333-27.306667s-73.813333 15.786667-93.013334 27.306667c-15.786667 9.813333-25.6 15.36-49.066666 15.36s-33.28-5.973333-49.066667-15.36c-19.2-11.52-45.653333-27.306667-93.013333-27.306667s-73.813333 15.786667-93.44 27.306667c-15.786667 9.813333-25.173333 15.36-49.066667 15.36-23.893333 0-33.28-5.546667-49.066667-15.36-19.2-11.52-45.653333-27.306667-93.013333-27.306667s-73.813333 15.786667-93.44 27.306667c-7.68 4.693333-14.08 8.533333-21.333333 11.52-16.213333 5.546667-27.733333 19.2-27.733334 36.266666v5.12c0 28.586667 28.16 48.213333 55.466667 38.826667 15.786667-5.546667 27.733333-12.8 37.973333-18.773333 15.786667-9.386667 25.6-14.933333 49.066667-14.933334s33.28 5.546667 49.066667 15.36c19.2 11.52 45.653333 27.306667 93.013333 27.306667s73.813333-15.786667 93.44-27.306667c15.786667-9.813333 25.173333-15.36 49.066667-15.36 23.466667 0 33.28 5.973333 49.066666 15.36 19.2 11.52 45.653333 27.306667 93.013334 27.306667s73.386667-15.786667 93.013333-27.306667c15.786667-9.813333 25.173333-15.36 49.066667-15.36 23.466667 0 33.28 5.973333 49.066666 15.36 9.813333 5.973333 21.76 13.226667 37.546667 18.773334 26.88 9.386667 55.466667-10.24 55.466667-38.826667v-5.12c0-17.493333-11.52-31.146667-27.733334-36.693333zM132.693333 697.6c20.053333-5.546667 34.56-14.08 46.506667-20.906667 15.786667-9.813333 25.6-15.36 49.066667-15.36s33.28 5.973333 49.066666 15.36c19.2 11.52 45.653333 27.306667 93.013334 27.306667s73.813333-15.786667 93.013333-27.306667c15.786667-9.813333 25.173333-15.36 49.066667-15.36 23.466667 0 33.28 5.973333 49.066666 15.36 19.2 11.52 45.653333 27.306667 93.013334 27.306667s73.813333-15.786667 93.013333-27.306667c15.786667-9.813333 25.173333-15.36 49.066667-15.36 23.466667 0 33.28 5.973333 49.066666 15.36 9.813333 5.973333 21.333333 12.8 36.266667 18.346667a41.728 41.728 0 0 0 55.893333-38.826667v-5.12c0-17.066667-11.52-30.72-27.306666-36.693333-7.253333-2.56-13.653333-6.4-21.76-11.093333-19.2-11.52-45.653333-27.306667-93.013334-27.306667s-73.813333 15.786667-93.013333 27.306667c-15.786667 9.813333-25.6 15.36-49.066667 15.36-23.466667 0-33.28-5.973333-49.066666-15.36-19.2-11.52-45.653333-27.306667-93.013334-27.306667s-73.813333 15.786667-93.013333 27.306667c-15.786667 9.813333-25.173333 15.36-49.066667 15.36-23.466667 0-33.28-5.973333-49.066666-15.36-19.2-11.52-45.653333-27.306667-93.013334-27.306667s-73.813333 15.786667-93.013333 27.306667c-7.68 4.693333-14.08 8.533333-21.333333 11.52-16.213333 5.546667-27.733333 19.2-27.733334 36.266666v9.813334c0 24.746667 23.466667 43.52 47.36 36.693333zM704 128a106.666667 106.666667 0 0 0 0 213.333333 106.666667 106.666667 0 0 0 0-213.333333z" p-id="11849"></path>
</svg>