<svg width="1234" height="712" viewBox="0 0 1234 712" xmlns="http://www.w3.org/2000/svg">
    <g fill="none" fill-rule="evenodd">
        <g transform="translate(19)">
            <g stroke-linecap="round">
                <path d="M.92 54.942h1046.105c80.51 0 145.777 65.267 145.777 145.777 0 80.51-65.267 145.778-145.778 145.778H241.582h0" stroke="#D1D3D4" stroke-width="4.524"/>
                <path d="M929.253 346H146.697C66.188 346 .92 411.267.92 491.777c0 80.511 65.267 145.778 145.778 145.778H1147.359" stroke="#D1D3D4" stroke-width="4.524"/>
                <path stroke="#D1D3D4" stroke-width="5" stroke-linejoin="round" d="m1104 625 17.55 13.843L1104 650.93"/>
                <path d="M.92 54.942h1045.882c80.633 0 146 65.366 146 146 0 80.633-65.367 146-146 146h-42.68 0l-799.764-.774" stroke="#72F596" stroke-width="5"/>
            </g>
            <path d="m38.245 16.839 3.393-3.393V4.398l-3.393-3.393H25.35v15.834h12.894zm-2.602-4.072h-5.316v-7.69h5.316l1.018 1.017v5.655l-1.018 1.018zm24.09 4.072v-4.072h-9.727v-2.149h7.012V7h-7.012V5.076h9.5V1.005H45.03v15.834h14.703zm16.285 0v-4.072h-8.37l-1.017-1.018V6.094l1.018-1.018h8.37V1.005H65.046l-3.393 3.393v9.048l3.393 3.393h10.971zm17.53 0v-4.072H83.82v-2.149h7.012V7h-7.012V5.076h9.5V1.005H78.846v15.834h14.703zm7.576 0V6.886h.453l2.94 8.256h4.298l2.94-8.256h.453v9.953h4.75V1.005h-7.08l-2.895 8.256h-.543l-2.895-8.256h-7.17v15.834h4.75zm33.364 0 2.715-2.715v-3.732L134.94 8.13l1.47-1.47V3.493l-2.488-2.488h-13.12v15.834h13.685zm-3.551-9.795h-5.158V4.85h5.203l.452.453v1.244l-.497.497zm.61 5.95h-5.768v-2.557h5.814l.633.634v1.244l-.679.678zm23.411 3.845v-4.072h-9.726v-2.149h7.012V7h-7.012V5.076h9.5V1.005h-14.477v15.834h14.703zm7.803 0v-4.524h3.122l3.19 4.524h4.885v-1.357l-2.873-3.914 2.42-2.42V3.945l-2.94-2.94h-12.78v15.834h4.976zm5.09-8.483h-5.09V4.963h5.09l.678.679v2.036l-.678.678zM275.548 16.708v-4.072h-10.292v-1.13l.679-.68h7.238l2.488-2.488V3.362L273.173.874h-12.215v4.071h9.274l.453.453v1.13l-.453.453h-7.012l-2.94 2.94v6.787h15.268zm15.433 0 3.393-3.393V4.267L290.98.874h-9.274l-3.393 3.393v9.048l3.393 3.393h9.274zm-2.601-4.072h-4.072l-1.018-1.018V5.963l1.018-1.018h4.072l1.017 1.018v5.655l-1.017 1.018zm23.462 4.072v-4.072H301.55v-1.13l.679-.68h7.238l2.489-2.488V3.362L309.467.874h-12.215v4.071h9.275l.452.453v1.13l-.452.453h-7.013l-2.94 2.94v6.787h15.268zm17.695 0v-4.072h-10.292v-1.13l.679-.68h7.238l2.488-2.488V3.362L327.162.874h-12.215v4.071h9.274l.453.453v1.13l-.453.453h-7.012l-2.94 2.94v6.787h15.268zm17.972 0 3.506-3.506V.874h-10.858v4.071h5.882v6.56l-.905.905h-5.768v4.298h8.143zm9.868 0 .995-2.601h7.352l.973 2.6h4.84v-1.356L365.52.874h-6.74l-6.13 14.477v1.357h4.727zm6.831-6.673h-4.275l1.878-4.863h.565l1.832 4.863zm14.28 6.673V6.303h.452l4.863 10.405h7.239V.874h-4.637v10.405h-.453L381.09.874h-7.239v15.834h4.638zM502.596 16.708v-4.072h-10.293v-1.13l.679-.68h7.238l2.489-2.488V3.362L500.22.874h-12.214v4.071h9.274l.452.453v1.13l-.452.453h-7.012l-2.941 2.94v6.787h15.269zm15.49 0 3.392-3.393V4.267L518.085.874h-9.274l-3.393 3.393v9.048l3.393 3.393h9.274zm-2.602-4.072h-4.072l-1.017-1.018V5.963l1.017-1.018h4.072l1.018 1.018v5.655l-1.018 1.018zm23.52 4.072v-4.072h-10.292v-1.13l.679-.68h7.238l2.488-2.488V3.362L536.63.874h-12.215v4.071h9.274l.453.453v1.13l-.453.453h-7.012l-2.94 2.94v6.787h15.268zm17.752 0v-4.072h-10.292v-1.13l.679-.68h7.238l2.488-2.488V3.362L554.381.874h-12.215v4.071h9.274l.453.453v1.13l-.453.453h-7.012l-2.94 2.94v6.787h15.268zm16.05 0v-4.864h6.56V8h-6.56V4.945h9.049V.874H567.83v15.834h4.977zm26.122 0v-4.072h-9.727v-2.149h7.013V6.868H589.2V4.945h9.5V.874h-14.476v15.834h14.703zm16.62 0 2.715-2.715v-3.732L616.001 8l1.47-1.47V3.362L614.984.874h-13.12v15.834h13.686zm-3.55-9.795h-5.158V4.72h5.203l.452.453v1.244l-.498.497zm.61 5.95h-5.768v-2.557h5.813l.634.634v1.244l-.679.678zM724.369 16.708v-4.072h-10.293v-1.13l.679-.68h7.238l2.489-2.488V3.362L721.993.874H709.78v4.071h9.274l.452.453v1.13l-.452.453h-7.012l-2.941 2.94v6.787h15.269zm15.197 0 3.393-3.393V4.267L739.566.874h-9.274l-3.393 3.393v9.048l3.393 3.393h9.274zm-2.601-4.072h-4.072l-1.018-1.018V5.963l1.018-1.018h4.072l1.018 1.018v5.655l-1.018 1.018zm23.227 4.072v-4.072H749.9v-1.13l.679-.68h7.238l2.488-2.488V3.362L757.817.874h-12.215v4.071h9.275l.452.453v1.13l-.452.453h-7.013l-2.94 2.94v6.787h15.268zm17.46 0v-4.072H767.36v-1.13l.678-.68h7.239l2.488-2.488V3.362L775.277.874h-12.215v4.071h9.274l.452.453v1.13l-.452.453h-7.012l-2.94 2.94v6.787h15.268zm15.24 0V6.755h.452l2.94 8.256h4.298l2.94-8.256h.453v9.953h4.75V.874h-7.08L798.75 9.13h-.543L795.31.874h-7.17v15.834h4.75zm22.639 0 .995-2.601h7.351l.973 2.6h4.84v-1.356L823.675.874h-6.74l-6.131 14.477v1.357h4.728zm6.83-6.673h-4.274l1.877-4.863h.566l1.832 4.863zm14.384 6.673v-4.524h3.122l3.189 4.524h4.886V15.35l-2.873-3.914 2.42-2.42V3.814l-2.94-2.94h-12.78v15.834h4.976zm5.09-8.483h-5.09V4.832h5.09l.678.679v2.036l-.678.678zM954.947 16.708v-4.072h-10.292v-1.13l.679-.68h7.238l2.488-2.488V3.362L952.572.874h-12.215v4.071h9.275l.452.453v1.13l-.452.453h-7.013l-2.94 2.94v6.787h15.268zm15.107 0 3.393-3.393V4.267L970.054.874h-9.274l-3.393 3.393v9.048l3.393 3.393h9.274zm-2.601-4.072h-4.072l-1.018-1.018V5.963l1.018-1.018h4.072l1.018 1.018v5.655l-1.018 1.018zm23.137 4.072v-4.072h-10.292v-1.13l.678-.68h7.239l2.488-2.488V3.362L988.215.874H976v4.071h9.274l.453.453v1.13l-.453.453h-7.012l-2.94 2.94v6.787h15.268zm17.369 0v-4.072h-10.292v-1.13l.678-.68h7.239l2.488-2.488V3.362l-2.488-2.488h-12.215v4.071h9.274l.453.453v1.13l-.453.453h-7.012l-2.94 2.94v6.787h15.268zm12.548 0 .995-2.601h7.351l.973 2.6h4.84v-1.356L1028.65.874h-6.741l-6.13 14.477v1.357h4.728zm6.83-6.673h-4.274l1.877-4.863h.566l1.832 4.863zm14.294 6.673v-3.959h7.577l2.94-2.94V3.814l-2.94-2.94h-12.554v15.834h4.977zm4.863-8.03h-4.863V4.945h4.863l.678.679v2.375l-.678.679zm13.297 8.03v-4.524h3.122l3.19 4.524h4.885V15.35l-2.873-3.914 2.42-2.42V3.814l-2.94-2.94h-12.78v15.834h4.976zm5.09-8.483h-5.09V4.832h5.09l.678.679v2.036l-.678.678zM953.792 308.508v-4.072H943.5v-1.13l.678-.68h7.239l2.488-2.487v-4.977l-2.488-2.488h-12.215v4.072h9.274l.452.452v1.13l-.452.453h-7.012l-2.94 2.941v6.786h15.268zm15.386 0 3.393-3.393v-9.048l-3.393-3.393h-9.275l-3.393 3.393v9.048l3.393 3.393h9.275zm-2.602-4.072h-4.071l-1.018-1.018v-5.655l1.018-1.017h4.071l1.018 1.017v5.655l-1.018 1.018zm23.416 4.072v-4.072H979.7v-1.13l.679-.68h7.238l2.488-2.487v-4.977l-2.488-2.488h-12.215v4.072h9.275l.452.452v1.13l-.452.453h-7.013l-2.94 2.941v6.786h15.268zm17.76 0v-4.072h-10.293v-1.13l.679-.68h7.238l2.488-2.487v-4.977l-2.488-2.488h-12.215v4.072h9.274l.453.452v1.13l-.453.453h-7.012l-2.94 2.941v6.786h15.268zm15.525 0v-9.953h.452l2.941 8.256h4.298l2.94-8.256h.453v9.953h4.75v-15.834h-7.08l-2.895 8.256h-.543l-2.896-8.256h-7.17v15.834h4.75zm22.941 0 .995-2.601h7.352l.973 2.601h4.84v-1.357l-6.017-14.477h-6.74l-6.13 14.477v1.357h4.727zm6.831-6.673h-4.275l1.878-4.863h.565l1.832 4.863zm17.173 6.673v-4.615l6.108-9.862v-1.357h-4.411l-3.755 6.334h-.634l-3.755-6.334h-4.637v1.357l6.108 9.862v4.615h4.976zM693.4 308.508v-4.072h-10.293v-1.13l.68-.68h7.238l2.488-2.487v-4.977l-2.488-2.488H678.81v4.072h9.274l.452.452v1.13l-.452.453h-7.012l-2.941 2.941v6.786H693.4zm15.386 0 3.393-3.393v-9.048l-3.393-3.393h-9.275l-3.393 3.393v9.048l3.393 3.393h9.275zm-2.602-4.072h-4.071l-1.018-1.018v-5.655l1.018-1.017h4.071l1.018 1.017v5.655l-1.018 1.018zm23.416 4.072v-4.072h-10.292v-1.13l.679-.68h7.238l2.488-2.487v-4.977l-2.488-2.488H715.01v4.072h9.275l.452.452v1.13l-.452.453h-7.013l-2.94 2.941v6.786H729.6zm17.76 0v-4.072h-10.293v-1.13l.678-.68h7.239l2.488-2.487v-4.977l-2.488-2.488h-12.215v4.072h9.274l.453.452v1.13l-.453.453h-7.012l-2.94 2.941v6.786h15.268zm17.787 0 3.506-3.506v-12.328h-10.858v4.072h5.882v6.56l-.905.904h-5.768v4.298h8.143zm18.892 0 3.62-3.62v-12.214h-4.977v10.518l-1.018 1.018h-3.62l-1.017-1.018v-10.518h-4.977v12.215l3.62 3.619h8.369zm11.88 0v-10.405h.452l4.863 10.405h7.239v-15.834h-4.637v10.405h-.453l-4.863-10.405h-7.238v15.834h4.637zm31.107 0v-4.072h-9.727v-2.149h7.012v-3.619H817.3v-1.922h9.5v-4.072h-14.476v15.834h14.703zM428.646 308.508v-4.072h-10.292v-1.13l.679-.68h7.238l2.488-2.487v-4.977l-2.488-2.488h-12.215v4.072h9.274l.453.452v1.13l-.453.453h-7.012l-2.94 2.941v6.786h15.268zm15.386 0 3.393-3.393v-9.048l-3.393-3.393h-9.274l-3.393 3.393v9.048l3.393 3.393h9.274zm-2.601-4.072h-4.072l-1.018-1.018v-5.655l1.018-1.017h4.072l1.018 1.017v5.655l-1.018 1.018zm23.416 4.072v-4.072h-10.292v-1.13l.678-.68h7.239l2.488-2.487v-4.977l-2.488-2.488h-12.215v4.072h9.274l.452.452v1.13l-.452.453h-7.012l-2.94 2.941v6.786h15.268zm17.759 0v-4.072h-10.293v-1.13l.679-.68h7.238l2.489-2.487v-4.977l-2.489-2.488h-12.214v4.072h9.274l.452.452v1.13l-.452.453h-7.012l-2.941 2.941v6.786h15.269zm17.787 0 3.506-3.506v-12.328h-10.857v4.072h5.881v6.56l-.905.904h-5.768v4.298h8.143zm19.003 0 3.62-3.62v-12.214h-4.977v10.518l-1.018 1.018h-3.62l-1.017-1.018v-10.518h-4.976v12.215l3.619 3.619h8.37zm20.473 0v-4.298h-8.143v-11.536h-4.976v15.834h13.12zm9.39 0v-4.615l6.107-9.862v-1.357h-4.41l-3.756 6.334h-.633l-3.755-6.334h-4.637v1.357l6.107 9.862v4.615h4.977zM171.4 308.508v-4.072h-10.293v-1.13l.68-.68h7.238l2.488-2.487v-4.977l-2.488-2.488H156.81v4.072h9.274l.452.452v1.13l-.452.453h-7.012l-2.941 2.941v6.786H171.4zm15.386 0 3.393-3.393v-9.048l-3.393-3.393h-9.275l-3.393 3.393v9.048l3.393 3.393h9.275zm-2.602-4.072h-4.071l-1.018-1.018v-5.655l1.018-1.017h4.071l1.018 1.017v5.655l-1.018 1.018zm23.416 4.072v-4.072h-10.292v-1.13l.679-.68h7.238l2.488-2.487v-4.977l-2.488-2.488H193.01v4.072h9.275l.452.452v1.13l-.452.453h-7.013l-2.94 2.941v6.786H207.6zm17.76 0v-4.072h-10.293v-1.13l.678-.68h7.239l2.488-2.487v-4.977l-2.488-2.488h-12.215v4.072h9.274l.453.452v1.13l-.453.453h-7.012l-2.94 2.941v6.786h15.268zm13.014 0 .995-2.601h7.352l.973 2.601h4.84v-1.357l-6.017-14.477h-6.74l-6.13 14.477v1.357h4.727zm6.831-6.673h-4.275l1.878-4.863h.565l1.832 4.863zm21.13 6.673 3.619-3.62v-12.214h-4.977v10.518l-1.018 1.018h-3.619l-1.018-1.018v-10.518h-4.976v12.215l3.619 3.619h8.37zm20.586 0 3.393-3.393v-6.447h-9.388v3.506h4.524v1.244l-1.017 1.018h-5.09l-1.018-1.018v-5.655l1.018-1.017h9.387v-4.072h-11.988l-3.393 3.393v9.048l3.393 3.393h10.179zM171.4 599v-4.072h-10.293v-1.13l.68-.68h7.238l2.488-2.487v-4.977l-2.488-2.488H156.81v4.072h9.274l.452.452v1.13l-.452.453h-7.012l-2.941 2.94V599H171.4zm15.386 0 3.393-3.393v-9.048l-3.393-3.393h-9.275l-3.393 3.393v9.048l3.393 3.393h9.275zm-2.602-4.072h-4.071l-1.018-1.018v-5.655l1.018-1.017h4.071l1.018 1.017v5.655l-1.018 1.018zM207.6 599v-4.072h-10.292v-1.13l.679-.68h7.238l2.488-2.487v-4.977l-2.488-2.488H193.01v4.072h9.275l.452.452v1.13l-.452.453h-7.013l-2.94 2.94V599H207.6zm17.76 0v-4.072h-10.293v-1.13l.678-.68h7.239l2.488-2.487v-4.977l-2.488-2.488h-12.215v4.072h9.274l.453.452v1.13l-.453.453h-7.012l-2.94 2.94V599h15.268zm22.65 0 2.828-2.828v-4.071l-3.054-3.054h-7.012l-.453-.452v-.905l.453-.452h9.274v-4.072H238.17l-2.827 2.827v4.072l3.054 3.054h7.012l.452.452v.905l-.452.452h-9.727V599h12.328zm20.473 0v-4.072h-9.726v-2.149h7.012v-3.619h-7.012v-1.922h9.5v-4.072H253.78V599h14.703zm8.033 0v-3.959h7.577l2.94-2.94v-5.994l-2.94-2.941H271.54V599h4.977zm4.863-8.03h-4.863v-3.732h4.863l.678.678v2.375l-.678.679zM433.493 599v-4.072H423.2v-1.13l.68-.68h7.238l2.488-2.487v-4.977l-2.488-2.488h-12.215v4.072h9.274l.452.452v1.13l-.452.453h-7.012l-2.941 2.94V599h15.269zm15.386 0 3.393-3.393v-9.048l-3.393-3.393h-9.275l-3.393 3.393v9.048l3.393 3.393h9.275zm-2.602-4.072h-4.071l-1.018-1.018v-5.655l1.018-1.017h4.071l1.018 1.017v5.655l-1.018 1.018zM469.693 599v-4.072h-10.292v-1.13l.679-.68h7.238l2.488-2.487v-4.977l-2.488-2.488h-12.215v4.072h9.275l.452.452v1.13l-.452.453h-7.013l-2.94 2.94V599h15.268zm17.648 0v-4.072H477.05v-1.13l.679-.68h7.238l2.488-2.487v-4.977l-2.488-2.488h-12.215v4.072h9.274l.453.452v1.13l-.453.453h-7.012l-2.94 2.94V599h15.268zm23.986 0 3.393-3.393v-9.048l-3.393-3.393h-10.18l-3.392 3.393v9.048l3.393 3.393h10.179zm-2.601-4.072h-4.977l-1.018-1.018v-5.655l1.018-1.017h4.977l1.018 1.017v5.655l-1.018 1.018zM532.029 599v-4.072h-8.37l-1.018-1.018v-5.655l1.018-1.017h8.37v-4.072h-10.971l-3.393 3.393v9.048l3.393 3.393h10.97zm11.88 0v-11.762h5.768v-4.072h-16.513v4.072h5.768V599h4.976zM692.465 599v-4.072h-10.292v-1.13l.679-.68h7.238l2.488-2.487v-4.977l-2.488-2.488h-12.215v4.072h9.275l.452.452v1.13l-.452.453h-7.013l-2.94 2.94V599h15.268zm15.386 0 3.393-3.393v-9.048l-3.393-3.393h-9.274l-3.393 3.393v9.048l3.393 3.393h9.274zm-2.601-4.072h-4.072l-1.018-1.018v-5.655l1.018-1.017h4.072l1.018 1.017v5.655l-1.018 1.018zM728.666 599v-4.072h-10.292v-1.13l.678-.68h7.239l2.488-2.487v-4.977l-2.488-2.488h-12.215v4.072h9.274l.453.452v1.13l-.453.453h-7.012l-2.94 2.94V599h15.268zm17.648 0v-4.072h-10.292v-1.13l.678-.68h7.239l2.488-2.487v-4.977l-2.488-2.488h-12.215v4.072h9.274l.453.452v1.13l-.453.453h-7.012l-2.94 2.94V599h15.268zm15.503 0v-10.405h.453L767.133 599h7.238v-15.834h-4.637v10.405h-.452l-4.864-10.405h-7.238V599h4.637zm29.524 0 3.393-3.393v-9.048l-3.393-3.393h-10.18l-3.392 3.393v9.048l3.393 3.393h10.179zm-2.602-4.072h-4.976l-1.018-1.018v-5.655l1.018-1.017h4.976l1.018 1.017v5.655l-1.018 1.018zM808.694 599l5.045-14.477v-1.357h-4.547l-3.845 11.31h-.77l-3.822-11.31h-4.66v1.357L801.23 599h7.464zM955.323 599v-4.072h-10.292v-1.13l.678-.68h7.239l2.488-2.487v-4.977l-2.488-2.488h-12.215v4.072h9.274l.453.452v1.13l-.453.453h-7.012l-2.94 2.94V599h15.268zm15.386 0 3.393-3.393v-9.048l-3.393-3.393h-9.274l-3.393 3.393v9.048l3.393 3.393h9.274zm-2.601-4.072h-4.072l-1.018-1.018v-5.655l1.018-1.017h4.072l1.017 1.017v5.655l-1.017 1.018zM991.524 599v-4.072H981.23v-1.13l.68-.68h7.238l2.488-2.487v-4.977l-2.488-2.488h-12.215v4.072h9.274l.452.452v1.13l-.452.453h-7.012l-2.941 2.94V599h15.269zm17.648 0v-4.072h-10.293v-1.13l.679-.68h7.238l2.489-2.487v-4.977l-2.489-2.488h-12.214v4.072h9.274l.452.452v1.13l-.452.453h-7.012l-2.941 2.94V599h15.269zm25.569 0v-4.072h-9.727v-2.149h7.012v-3.619h-7.012v-1.922h9.5v-4.072h-14.476V599h14.703zm15.725 0 3.393-3.393v-9.048l-3.393-3.393h-12.894V599h12.894zm-2.601-4.072h-5.316v-7.69h5.316l1.018 1.017v5.655l-1.018 1.018zm23.303 4.072v-4.072h-8.37l-1.018-1.018v-5.655l1.018-1.017h8.37v-4.072h-10.971l-3.393 3.393v9.048l3.393 3.393h10.97zM82.41 105.679c2.811 0 4.787-2.432 4.787-6.517 0-4.028-1.976-6.403-4.788-6.403-2.812 0-4.788 2.375-4.788 6.403 0 4.085 1.976 6.517 4.788 6.517zm0-1.406c-1.882 0-3.136-1.92-3.136-5.111 0-3.135 1.254-4.997 3.135-4.997 1.881 0 3.135 1.862 3.135 4.997 0 3.192-1.254 5.11-3.135 5.11zm8.979 1.178v-4.94h2.166c2.736 0 4.617-1.216 4.617-3.857 0-2.736-1.862-3.667-4.617-3.667h-3.762v12.464h1.596zm1.976-6.232h-1.976v-4.94h1.976c2.147 0 3.21.589 3.21 2.375 0 1.767-1.044 2.565-3.21 2.565zm15.705 6.232v-1.35h-6.308V99.58h5.168v-1.35h-5.168v-3.894h6.118v-1.35h-7.714v12.465h7.904zm4.153 0v-6.517c0-1.292-.152-2.622-.209-3.895h.038l1.197 2.584 3.99 7.828h1.748V92.987h-1.52v6.46c0 1.31.152 2.717.21 3.952h-.039l-1.197-2.584-3.99-7.828h-1.748v12.464h1.52zm-30.814 24c2.793 0 4.693-1.197 4.693-3.648 0-1.71-1.064-2.698-2.888-2.983v-.076c1.482-.38 2.185-1.482 2.185-2.717 0-2.185-1.729-3.04-4.275-3.04H78.59v12.464h3.82zm-.55-7.22h-1.692v-3.914h1.767c1.92 0 2.907.494 2.907 1.843 0 1.387-.855 2.07-2.983 2.07zm.322 5.89h-2.014v-4.56h2.014c2.185 0 3.363.627 3.363 2.166 0 1.69-1.235 2.394-3.363 2.394zm15.744 1.33v-1.35h-6.308v-4.521h5.168v-1.35h-5.168v-3.894h6.118v-1.35H90.02v12.465h7.904zm7.573 0v-11.115h4.123v-1.35h-9.842v1.35h4.123v11.115h1.596zm6.87 0 1.188-3.78h4.523l1.167 3.78h1.71l-4.199-12.464h-1.824l-4.199 12.464h1.634zm5.312-5.073h-3.718l.591-1.881c.437-1.387.836-2.755 1.235-4.2h.076c.38 1.445.798 2.813 1.235 4.2l.581 1.88zM907.228 397.25v-6.231c0-1.216-.152-3.344-.266-4.408H907l.722 2.432 1.748 4.902h1.14l1.786-4.902.703-2.432h.057c-.076 1.064-.266 3.192-.266 4.408v6.232h1.52v-12.464h-1.938l-1.767 5.32-.589 2.014h-.076l-.608-2.014-1.748-5.32h-1.938v12.464h1.482zm14.015.229c2.432 0 4.18-1.368 4.18-4.94v-7.752h-1.54v7.79c0 2.565-1.14 3.496-2.64 3.496-1.482 0-2.603-.931-2.603-3.496v-7.79h-1.615v7.752c0 3.572 1.767 4.94 4.218 4.94zm15.705-.228v-1.35h-6.156v-11.114h-1.577v12.464h7.733zm7.365 0v-11.115h4.123v-1.35h-9.842v1.35h4.123v11.115h1.596zm14.242 0v-1.35h-3.097v-9.765h3.097v-1.35h-7.79v1.35h3.097v9.766h-3.097v1.349h7.79zm11.335-5.681v-1.178h-8.17v1.178h8.17zm8.03 5.909c1.653 0 2.888-.665 3.857-1.805l-.912-.97c-.78.875-1.653 1.369-2.793 1.369-2.375 0-3.933-1.957-3.933-5.092 0-3.097 1.558-5.016 3.933-5.016 1.045 0 1.862.437 2.508 1.12l.912-1.006c-.741-.798-1.92-1.52-3.42-1.52-3.25 0-5.586 2.45-5.586 6.46 0 4.066 2.356 6.46 5.434 6.46zm7.592-.228v-5.852h5.168v5.852h1.615v-12.464h-1.615v5.206h-5.168v-5.206h-1.615v12.464h1.615zm10.253 0 1.187-3.781h4.523l1.168 3.78h1.71l-4.2-12.463h-1.823l-4.2 12.464h1.635zm5.311-5.073h-3.718l.592-1.881c.437-1.387.836-2.755 1.235-4.2h.076c.38 1.445.798 2.813 1.235 4.2l.58 1.88zm13.206 5.073v-1.35h-3.097v-9.765h3.097v-1.35h-7.79v1.35h3.097v9.766h-3.097v1.349h7.79zm4.628 0v-6.517c0-1.292-.152-2.622-.209-3.895h.038l1.197 2.584 3.99 7.828h1.748v-12.464h-1.52v6.46c0 1.31.152 2.717.21 3.952h-.039l-1.197-2.584-3.99-7.828h-1.748v12.464h1.52zm23.241 0 1.216-5.016c.19-.76.304-1.482.437-2.242h.057c.114.76.266 1.482.456 2.242l1.216 5.016h1.976l1.824-12.483h-1.71l-.874 7.847c-.114 1.026-.152 1.634-.228 2.869h-.076c-.228-1.235-.342-1.843-.608-2.87l-1.178-4.635h-1.52l-1.216 4.636a46.193 46.193 0 0 0-.608 2.869h-.057c-.057-1.235-.133-1.843-.247-2.888l-.912-7.828h-1.786l1.9 12.483h1.938zm9.34 0 1.188-3.781h4.523l1.168 3.78h1.71l-4.2-12.463h-1.823l-4.2 12.464h1.635zm5.312-5.073h-3.718l.592-1.881c.437-1.387.836-2.755 1.235-4.2h.076c.38 1.445.798 2.813 1.235 4.2l.58 1.88zm13.89 5.073v-1.35h-6.156v-11.114h-1.577v12.464h7.733zm11.145 0v-1.35h-6.156v-11.114h-1.577v12.464h7.733zm10.937 0v-1.35h-6.308v-4.521h5.168v-1.35h-5.168v-3.894h6.118v-1.35h-7.714v12.465h7.904zm7.573 0v-11.115h4.123v-1.35h-9.842v1.35h4.123v11.115h1.596zm-128.95 24.228c2.431 0 4.18-1.368 4.18-4.94v-7.752h-1.54v7.79c0 2.565-1.14 3.496-2.64 3.496-1.483 0-2.604-.931-2.604-3.496v-7.79h-1.615v7.752c0 3.572 1.767 4.94 4.218 4.94zm8.96-.228v-4.94h2.166c2.736 0 4.617-1.216 4.617-3.857 0-2.736-1.862-3.667-4.617-3.667h-3.762v12.464h1.596zm1.976-6.232h-1.976v-4.94h1.976c2.147 0 3.21.589 3.21 2.375 0 1.767-1.044 2.565-3.21 2.565zm12.038 6.46c1.615 0 2.945-.646 3.724-1.444v-5.244h-3.952v1.31h2.47v3.25c-.456.456-1.273.722-2.147.722-2.432 0-3.819-1.957-3.819-5.092 0-3.097 1.52-5.016 3.857-5.016 1.197 0 1.938.494 2.527 1.12l.912-1.006c-.703-.741-1.786-1.52-3.439-1.52-3.23 0-5.529 2.432-5.529 6.46 0 4.066 2.261 6.46 5.396 6.46zm8.238-.228v-5.263h2.206l3 5.263h1.805l-3.163-5.441.133-.035c1.612-.444 2.67-1.588 2.67-3.473 0-2.603-1.844-3.515-4.37-3.515h-3.896v12.464h1.615zm2.052-6.555h-2.052v-4.617h2.052c1.938 0 3.002.589 3.002 2.223 0 1.596-1.064 2.394-3.002 2.394zm7.82 6.555 1.188-3.78h4.523l1.168 3.78h1.71l-4.2-12.464h-1.823l-4.2 12.464h1.635zm5.312-5.073h-3.718l.592-1.881c.437-1.387.836-2.755 1.235-4.2h.076c.38 1.445.798 2.813 1.235 4.2l.58 1.88zm8.418 5.073c3.667 0 5.7-2.318 5.7-6.29 0-3.951-2.033-6.174-5.776-6.174h-3.078v12.464h3.154zm-.19-1.311h-1.368v-9.842h1.368c2.831 0 4.237 1.729 4.237 4.864 0 3.154-1.406 4.978-4.237 4.978zm16.599 1.31v-1.348h-6.308v-4.522h5.168v-1.35h-5.168v-3.894h6.118v-1.35h-7.714v12.465h7.904zM685.05 397.25v-6.231c0-1.216-.152-3.344-.266-4.408h.038l.722 2.432 1.748 4.902h1.14l1.786-4.902.703-2.432h.057c-.076 1.064-.266 3.192-.266 4.408v6.232h1.52v-12.464h-1.938l-1.767 5.32-.589 2.014h-.076l-.608-2.014-1.748-5.32h-1.938v12.464h1.482zm14.015.229c2.432 0 4.18-1.368 4.18-4.94v-7.752h-1.54v7.79c0 2.565-1.14 3.496-2.64 3.496-1.482 0-2.603-.931-2.603-3.496v-7.79h-1.615v7.752c0 3.572 1.767 4.94 4.218 4.94zm15.705-.228v-1.35h-6.156v-11.114h-1.577v12.464h7.733zm7.365 0v-11.115h4.123v-1.35h-9.843v1.35h4.124v11.115h1.596zm14.242 0v-1.35h-3.097v-9.765h3.097v-1.35h-7.79v1.35h3.097v9.766h-3.097v1.349h7.79zm11.335-5.681v-1.178h-8.17v1.178h8.17zm8.03 5.909c1.653 0 2.888-.665 3.857-1.805l-.912-.97c-.78.875-1.653 1.369-2.793 1.369-2.375 0-3.933-1.957-3.933-5.092 0-3.097 1.558-5.016 3.933-5.016 1.045 0 1.862.437 2.508 1.12l.912-1.006c-.741-.798-1.92-1.52-3.42-1.52-3.25 0-5.586 2.45-5.586 6.46 0 4.066 2.356 6.46 5.434 6.46zm7.592-.228v-5.852h5.168v5.852h1.615v-12.464h-1.615v5.206h-5.168v-5.206h-1.615v12.464h1.615zm10.253 0 1.187-3.781h4.523l1.168 3.78h1.71l-4.2-12.463h-1.823l-4.2 12.464h1.635zm5.311-5.073h-3.718l.591-1.881c.438-1.387.837-2.755 1.236-4.2h.076c.38 1.445.798 2.813 1.235 4.2l.58 1.88zm13.206 5.073v-1.35h-3.097v-9.765h3.097v-1.35h-7.79v1.35h3.097v9.766h-3.097v1.349h7.79zm4.628 0v-6.517c0-1.292-.152-2.622-.209-3.895h.038l1.197 2.584 3.99 7.828h1.748v-12.464h-1.52v6.46c0 1.31.152 2.717.21 3.952h-.039l-1.197-2.584-3.99-7.828h-1.748v12.464h1.52zm-156.263 24v-6.232c0-1.216-.152-3.344-.266-4.408h.038l.722 2.432 1.748 4.902h1.14l1.786-4.902.703-2.432h.057c-.076 1.064-.266 3.192-.266 4.408v6.232h1.52v-12.464h-1.938l-1.767 5.32-.59 2.014h-.075l-.608-2.014-1.748-5.32h-1.938v12.464h1.482zm10.518 0 1.188-3.78h4.523l1.167 3.78h1.71l-4.199-12.464h-1.824l-4.199 12.464h1.634zm5.312-5.073h-3.718l.591-1.881c.437-1.387.836-2.755 1.235-4.2h.076c.38 1.445.798 2.813 1.235 4.2l.581 1.88zm7.106 5.073v-5.263h2.206l3 5.263h1.806l-3.164-5.441.133-.035c1.612-.444 2.67-1.588 2.67-3.473 0-2.603-1.844-3.515-4.37-3.515h-3.896v12.464h1.615zm2.053-6.555h-2.053v-4.617h2.053c1.938 0 3.002.589 3.002 2.223 0 1.596-1.065 2.394-3.003 2.394zm9.055 6.555v-3.971l2.147-2.568 3.61 6.539h1.805l-4.409-7.741 3.953-4.723h-1.824l-5.225 6.232h-.057v-6.232h-1.615v12.464h1.615zm17.757 0v-1.35h-6.308v-4.521h5.168v-1.35h-5.168v-3.894h6.118v-1.35h-7.714v12.465h7.904zm7.574 0v-11.115h4.123v-1.35h-9.842v1.35h4.123v11.115h1.596zm8.181 0v-4.94h2.166c2.736 0 4.617-1.216 4.617-3.857 0-2.736-1.862-3.667-4.617-3.667h-3.762v12.464h1.596zm1.976-6.232h-1.976v-4.94h1.976c2.147 0 3.211.589 3.211 2.375 0 1.767-1.045 2.565-3.21 2.565zm15.914 6.232v-1.35h-6.155v-11.114h-1.577v12.464h7.732zm3.09 0 1.187-3.78h4.523l1.168 3.78h1.71l-4.2-12.464h-1.823l-4.2 12.464h1.635zm5.311-5.073h-3.718l.592-1.881c.437-1.387.836-2.755 1.235-4.2h.076c.38 1.445.798 2.813 1.235 4.2l.58 1.88zm10.28 5.3c1.653 0 2.888-.664 3.857-1.804l-.912-.97c-.779.875-1.653 1.369-2.793 1.369-2.375 0-3.933-1.957-3.933-5.092 0-3.097 1.558-5.016 3.933-5.016 1.045 0 1.862.437 2.508 1.12l.912-1.006c-.74-.798-1.919-1.52-3.42-1.52-3.249 0-5.586 2.45-5.586 6.46 0 4.066 2.356 6.46 5.434 6.46zm14.547-.227v-1.35h-6.308v-4.521h5.168v-1.35h-5.168v-3.894h6.118v-1.35h-7.714v12.465h7.904zm17.94.228c2.432 0 4.18-1.368 4.18-4.94v-7.752h-1.54v7.79c0 2.565-1.14 3.496-2.64 3.496-1.482 0-2.603-.931-2.603-3.496v-7.79h-1.615v7.752c0 3.572 1.766 4.94 4.217 4.94zm8.96-.228v-4.94h2.166c2.736 0 4.617-1.216 4.617-3.857 0-2.736-1.862-3.667-4.617-3.667h-3.762v12.464h1.596zm1.976-6.232h-1.976v-4.94h1.976c2.147 0 3.21.589 3.21 2.375 0 1.767-1.044 2.565-3.21 2.565zm12.038 6.46c1.615 0 2.945-.646 3.724-1.444v-5.244h-3.952v1.31h2.47v3.25c-.456.456-1.273.722-2.147.722-2.432 0-3.819-1.957-3.819-5.092 0-3.097 1.52-5.016 3.857-5.016 1.197 0 1.938.494 2.527 1.12l.912-1.006c-.703-.741-1.786-1.52-3.439-1.52-3.23 0-5.529 2.432-5.529 6.46 0 4.066 2.261 6.46 5.396 6.46zm8.239-.228v-5.263h2.205l3 5.263h1.806l-3.164-5.441.133-.035c1.612-.444 2.67-1.588 2.67-3.473 0-2.603-1.843-3.515-4.37-3.515h-3.895v12.464h1.615zm2.052-6.555h-2.052v-4.617h2.052c1.938 0 3.002.589 3.002 2.223 0 1.596-1.064 2.394-3.002 2.394zm7.82 6.555 1.188-3.78h4.523l1.167 3.78h1.71l-4.199-12.464h-1.824l-4.199 12.464h1.634zm5.312-5.073h-3.718l.591-1.881c.437-1.387.836-2.755 1.235-4.2h.076c.38 1.445.798 2.813 1.235 4.2l.581 1.88zm8.418 5.073c3.666 0 5.7-2.318 5.7-6.29 0-3.951-2.034-6.174-5.776-6.174h-3.078v12.464h3.154zm-.19-1.311h-1.368v-9.842h1.367c2.832 0 4.237 1.729 4.237 4.864 0 3.154-1.405 4.978-4.236 4.978zm16.598 1.31v-1.348h-6.308v-4.522h5.168v-1.35h-5.168v-3.894h6.118v-1.35h-7.714v12.465h7.904zM439.299 397.479c2.413 0 4.389-1.311 4.389-3.458 0-1.672-1.387-2.736-3.002-3.078v-.076c1.5-.494 2.584-1.425 2.584-2.888 0-1.957-1.73-3.078-4.01-3.078-1.557 0-2.868.646-3.875 1.52l.836.988c.798-.703 1.843-1.216 2.983-1.216 1.463 0 2.47.74 2.47 1.9 0 1.273-1.102 2.26-3.971 2.26v1.198c3.173 0 4.389.969 4.389 2.413 0 1.349-1.235 2.204-2.888 2.204-1.558 0-2.68-.665-3.477-1.425l-.798 1.026c.893.893 2.28 1.71 4.37 1.71zm9.188-.228v-5.263h2.206l3 5.263h1.805l-3.163-5.441.133-.035c1.611-.444 2.67-1.588 2.67-3.473 0-2.603-1.844-3.515-4.37-3.515h-3.896v12.464h1.615zm2.052-6.555h-2.052v-4.617h2.052c1.938 0 3.002.589 3.002 2.223 0 1.596-1.064 2.394-3.002 2.394zm10.404 6.555c3.668 0 5.7-2.318 5.7-6.29 0-3.951-2.032-6.174-5.775-6.174h-3.079v12.464h3.154zm-.19-1.311h-1.368v-9.842h1.368c2.832 0 4.238 1.729 4.238 4.864 0 3.154-1.406 4.978-4.238 4.978zm21.17 1.31v-5.262h2.206l3 5.263h1.805l-3.163-5.441.133-.035c1.612-.444 2.67-1.588 2.67-3.473 0-2.603-1.844-3.515-4.37-3.515h-3.896v12.464h1.615zm2.052-6.554h-2.052v-4.617h2.052c1.938 0 3.002.589 3.002 2.223 0 1.596-1.064 2.394-3.002 2.394zm15.668 6.555v-1.35h-6.308v-4.521h5.168v-1.35h-5.168v-3.894h6.118v-1.35h-7.714v12.465h7.904zm3.298 0 1.188-3.781h4.523l1.167 3.78h1.71l-4.199-12.463h-1.824l-4.199 12.464h1.634zm5.312-5.073h-3.718l.591-1.881c.437-1.387.836-2.755 1.235-4.2h.076c.38 1.445.798 2.813 1.235 4.2l.581 1.88zm13.89 5.073v-1.35h-6.157v-11.114h-1.577v12.464h7.734zm3.716 0v-6.232c0-1.216-.152-3.344-.266-4.408h.038l.722 2.432 1.748 4.902h1.14l1.786-4.902.703-2.432h.057c-.076 1.064-.266 3.192-.266 4.408v6.232h1.52v-12.464h-1.938l-1.767 5.32-.59 2.014h-.075l-.608-2.014-1.748-5.32h-1.938v12.464h1.482zm-98.352 24c3.667 0 5.7-2.318 5.7-6.29 0-3.951-2.033-6.174-5.776-6.174h-3.078v12.464h3.154zm-.19-1.311h-1.368v-9.842h1.368c2.831 0 4.237 1.729 4.237 4.864 0 3.154-1.406 4.978-4.237 4.978zm16.599 1.31v-1.348h-6.308v-4.522h5.168v-1.35h-5.168v-3.894h6.118v-1.35h-7.714v12.465h7.904zm3.773 0 1.862-3.343c.323-.627.646-1.254 1.007-2.014h.076c.418.76.76 1.387 1.102 2.014l1.862 3.344h1.786l-3.724-6.365 3.477-6.1h-1.69l-1.71 3.174c-.305.57-.552 1.083-.894 1.824h-.076a89.399 89.399 0 0 0-1.007-1.824l-1.748-3.173h-1.767l3.477 6.023-3.724 6.44h1.691zm23.089 0v-5.262h2.205l3 5.263h1.806l-3.164-5.441.134-.035c1.611-.444 2.669-1.588 2.669-3.473 0-2.603-1.843-3.515-4.37-3.515h-3.895v12.464h1.615zm2.052-6.554h-2.052v-4.617h2.052c1.938 0 3.002.589 3.002 2.223 0 1.596-1.064 2.394-3.002 2.394zm15.667 6.555v-1.35h-6.308v-4.521h5.168v-1.35h-5.168v-3.894h6.118v-1.35h-7.714v12.465h7.904zm11.355 0v-1.35h-6.156v-11.114h-1.577v12.464h7.733zm10.936 0v-1.35h-6.308v-4.521h5.168v-1.35h-5.168v-3.894h6.118v-1.35h-7.714v12.465h7.904zm3.298 0 1.188-3.78h4.523l1.168 3.78h1.71l-4.2-12.464h-1.823l-4.2 12.464h1.635zm5.312-5.073h-3.718l.591-1.881c.438-1.387.837-2.755 1.236-4.2h.076c.38 1.445.798 2.813 1.235 4.2l.58 1.88zm9.406 5.3c2.736 0 4.408-1.576 4.408-3.552 0-1.843-1.216-2.717-2.755-3.325l-1.748-.78c-1.064-.417-2.223-.854-2.223-2.051 0-1.121.969-1.805 2.413-1.805 1.292 0 2.242.437 3.059 1.159l.836-1.026c-.912-.912-2.28-1.54-3.838-1.54-2.375 0-4.085 1.407-4.085 3.307 0 1.843 1.444 2.717 2.679 3.21l1.805.799c1.254.532 2.223.912 2.223 2.242 0 1.14-.988 1.957-2.698 1.957-1.406 0-2.698-.608-3.648-1.54l-.95 1.103c1.12 1.12 2.698 1.843 4.522 1.843zm15.42-.227v-1.35h-6.308v-4.521h5.168v-1.35h-5.168v-3.894h6.118v-1.35h-7.714v12.465h7.904zM142.988 397.25v-6.516c0-1.292-.153-2.622-.21-3.895h.038l1.197 2.584 3.99 7.828h1.749v-12.464h-1.52v6.46c0 1.31.151 2.717.208 3.952h-.037l-1.197-2.584-3.99-7.828h-1.749v12.464h1.52zm12.19 0v-5.566h5.13v-1.35h-5.13v-4.198h6.06v-1.35h-7.656v12.465h1.596zm13.52 0v-11.114h4.123v-1.35h-9.842v1.35h4.123v11.115h1.596zm18.643 0v-6.231c0-1.216-.152-3.344-.266-4.408h.038l.722 2.432 1.748 4.902h1.14l1.786-4.902.703-2.432h.057c-.076 1.064-.266 3.192-.266 4.408v6.232h1.52v-12.464h-1.938l-1.767 5.32-.589 2.014h-.076l-.608-2.014-1.748-5.32h-1.938v12.464h1.482zm10.518 0 1.188-3.78h4.523l1.168 3.78h1.71l-4.2-12.463h-1.823l-4.2 12.464h1.635zm5.312-5.072h-3.718l.591-1.881c.438-1.387.837-2.755 1.236-4.2h.076c.38 1.445.798 2.813 1.234 4.2l.581 1.88zm7.107 5.073v-5.263h2.205l3 5.263h1.806l-3.164-5.441.134-.035c1.611-.444 2.669-1.588 2.669-3.473 0-2.603-1.843-3.515-4.37-3.515h-3.895v12.464h1.615zm2.052-6.555h-2.052v-4.617h2.052c1.938 0 3.002.589 3.002 2.223 0 1.596-1.064 2.394-3.002 2.394zm9.055 6.555v-3.971l2.148-2.568 3.61 6.539h1.804l-4.408-7.741 3.952-4.723h-1.824l-5.225 6.232h-.057v-6.232h-1.615v12.464h1.615zm17.758 0v-1.35h-6.308v-4.521h5.168v-1.35h-5.168v-3.894h6.118v-1.35h-7.714v12.465h7.904zm7.573 0v-11.115h4.123v-1.35h-9.842v1.35h4.123v11.115h1.596zm8.181 0v-4.94h2.166c2.737 0 4.618-1.216 4.618-3.857 0-2.736-1.863-3.667-4.618-3.667h-3.761v12.464h1.596zm1.976-6.232h-1.975v-4.94h1.975c2.148 0 3.212.589 3.212 2.375 0 1.767-1.046 2.565-3.212 2.565zm15.915 6.232v-1.35h-6.156v-11.114h-1.577v12.464h7.733zm3.09 0 1.187-3.781h4.523l1.167 3.78h1.71l-4.199-12.463h-1.824l-4.199 12.464h1.634zm5.311-5.073h-3.718l.591-1.881c.437-1.387.836-2.755 1.235-4.2h.076c.38 1.445.798 2.813 1.235 4.2l.581 1.88zm10.28 5.3c1.653 0 2.888-.664 3.857-1.804l-.912-.97c-.78.875-1.653 1.369-2.793 1.369-2.375 0-3.933-1.957-3.933-5.092 0-3.097 1.558-5.016 3.933-5.016 1.045 0 1.862.437 2.508 1.12l.912-1.006c-.741-.798-1.92-1.52-3.42-1.52-3.25 0-5.586 2.45-5.586 6.46 0 4.066 2.356 6.46 5.434 6.46zm14.546-.227v-1.35h-6.308v-4.521h5.168v-1.35h-5.168v-3.894h6.118v-1.35h-7.714v12.465h7.904zm-166.972 24v-1.35h-6.156v-11.114h-1.577v12.464h7.733zm3.09 0 1.187-3.78h4.523l1.168 3.78h1.71l-4.2-12.464h-1.823l-4.2 12.464h1.635zm5.311-5.073h-3.718l.591-1.881c.438-1.387.837-2.755 1.236-4.2h.076c.38 1.445.798 2.813 1.234 4.2l.581 1.88zm9.33 5.3c2.432 0 4.18-1.367 4.18-4.94v-7.751h-1.54v7.79c0 2.565-1.14 3.496-2.64 3.496-1.482 0-2.603-.931-2.603-3.496v-7.79h-1.615v7.752c0 3.572 1.767 4.94 4.218 4.94zm8.504-.227v-6.517c0-1.292-.152-2.622-.209-3.895h.038l1.197 2.584 3.99 7.828h1.748v-12.464h-1.52v6.46c0 1.31.152 2.717.21 3.952h-.039l-1.197-2.584-3.99-7.828h-1.748v12.464h1.52zm14.737.228c1.653 0 2.888-.665 3.857-1.805l-.912-.97c-.78.875-1.653 1.369-2.793 1.369-2.375 0-3.933-1.957-3.933-5.092 0-3.097 1.558-5.016 3.933-5.016 1.045 0 1.862.437 2.508 1.12l.912-1.006c-.741-.798-1.92-1.52-3.42-1.52-3.25 0-5.586 2.45-5.586 6.46 0 4.066 2.356 6.46 5.434 6.46zm7.592-.228v-5.852h5.168v5.852h1.615v-12.464h-1.615v5.206h-5.168v-5.206h-1.615v12.464h1.615zm11.564 0v-4.94h2.166c2.736 0 4.617-1.216 4.617-3.857 0-2.736-1.863-3.667-4.618-3.667h-3.762v12.464h1.596zm1.976-6.232h-1.976v-4.94h1.976c2.147 0 3.21.589 3.21 2.375 0 1.767-1.044 2.565-3.21 2.565zm7.858 6.232 1.187-3.78h4.523l1.168 3.78h1.71l-4.2-12.464h-1.823l-4.2 12.464h1.635zm5.311-5.073h-3.718l.592-1.881c.437-1.387.836-2.755 1.235-4.2h.076c.38 1.445.798 2.813 1.235 4.2l.58 1.88zm8.418 5.073c3.667 0 5.7-2.318 5.7-6.29 0-3.951-2.033-6.174-5.776-6.174h-3.078v12.464h3.154zm-.19-1.311h-1.368v-9.842h1.368c2.831 0 4.237 1.729 4.237 4.864 0 3.154-1.406 4.978-4.237 4.978zm21.17 1.31v-5.262h2.206l3 5.263h1.805l-3.163-5.441.133-.035c1.611-.444 2.67-1.588 2.67-3.473 0-2.603-1.844-3.515-4.37-3.515h-3.896v12.464h1.615zm2.052-6.554h-2.052v-4.617h2.052c1.938 0 3.002.589 3.002 2.223 0 1.596-1.064 2.394-3.002 2.394zm15.667 6.555v-1.35h-6.308v-4.521h5.168v-1.35h-5.168v-3.894h6.118v-1.35h-7.713v12.465h7.903zm11.355 0v-1.35h-6.156v-11.114h-1.577v12.464h7.733zm10.936 0v-1.35h-6.308v-4.521h5.168v-1.35h-5.168v-3.894h6.118v-1.35h-7.714v12.465h7.904zm3.299 0 1.187-3.78h4.523l1.168 3.78h1.71l-4.2-12.464h-1.823l-4.2 12.464h1.635zm5.311-5.073h-3.718l.592-1.881c.437-1.387.836-2.755 1.235-4.2h.076c.38 1.445.798 2.813 1.235 4.2l.58 1.88zm9.406 5.3c2.736 0 4.408-1.576 4.408-3.552 0-1.843-1.216-2.717-2.755-3.325l-1.748-.78c-1.064-.417-2.223-.854-2.223-2.051 0-1.121.97-1.805 2.413-1.805 1.292 0 2.242.437 3.06 1.159l.835-1.026c-.912-.912-2.28-1.54-3.838-1.54-2.375 0-4.085 1.407-4.085 3.307 0 1.843 1.444 2.717 2.68 3.21l1.804.799c1.254.532 2.223.912 2.223 2.242 0 1.14-.988 1.957-2.698 1.957-1.406 0-2.698-.608-3.648-1.54l-.95 1.103c1.121 1.12 2.698 1.843 4.522 1.843zm15.42-.227v-1.35h-6.308v-4.521h5.169v-1.35h-5.168v-3.894h6.118v-1.35h-7.714v12.465h7.904zM218.068 110v-1.349h-3.097v-9.766h3.097v-1.349h-7.79v1.349h3.097v9.766h-3.097V110h7.79zm4.629 0v-6.517c0-1.292-.152-2.622-.21-3.895h.039l1.197 2.584 3.99 7.828h1.748V97.536h-1.52v6.46c0 1.311.152 2.717.209 3.952h-.038l-1.197-2.584-3.99-7.828h-1.748V110h1.52zm17.852-5.681v-1.178h-8.17v1.178h8.17zm3.583 5.681 1.188-3.781h4.523l1.168 3.781h1.71l-4.2-12.464h-1.823l-4.2 12.464h1.635zm5.312-5.073h-3.718l.591-1.881c.438-1.387.837-2.755 1.236-4.199h.076c.38 1.444.798 2.812 1.234 4.199l.581 1.881zm7.145 5.073v-4.94h2.166c2.736 0 4.617-1.216 4.617-3.857 0-2.736-1.862-3.667-4.617-3.667h-3.762V110h1.596zm1.976-6.232h-1.976v-4.94h1.976c2.147 0 3.21.589 3.21 2.375 0 1.767-1.044 2.565-3.21 2.565zm9.17 6.232v-4.94h2.165c2.736 0 4.617-1.216 4.617-3.857 0-2.736-1.862-3.667-4.617-3.667h-3.762V110h1.596zm1.975-6.232h-1.976v-4.94h1.976c2.147 0 3.211.589 3.211 2.375 0 1.767-1.045 2.565-3.21 2.565zM292.99 110V98.885h4.122v-1.349h-9.842v1.349h4.123V110h1.596zm8.142 0v-5.263h2.206l3 5.263h1.805l-3.163-5.441.133-.034c1.612-.444 2.67-1.588 2.67-3.474 0-2.603-1.844-3.515-4.37-3.515h-3.896V110h1.615zm2.053-6.555h-2.053v-4.617h2.053c1.938 0 3.002.589 3.002 2.223 0 1.596-1.065 2.394-3.002 2.394zm7.82 6.555 1.187-3.781h4.523l1.168 3.781h1.71l-4.2-12.464h-1.823L309.37 110h1.635zm5.311-5.073h-3.718l.592-1.881c.437-1.387.836-2.755 1.235-4.199h.076c.38 1.444.798 2.812 1.235 4.199l.58 1.881zm8.418 5.073c3.667 0 5.7-2.318 5.7-6.289 0-3.952-2.033-6.175-5.776-6.175h-3.078V110h3.154zm-.19-1.311h-1.368v-9.842h1.368c2.831 0 4.237 1.729 4.237 4.864 0 3.154-1.406 4.978-4.237 4.978zM341.143 110v-1.349h-6.308v-4.522h5.168v-1.349h-5.168v-3.895h6.118v-1.349h-7.714V110h7.904zm16.344 0v-5.567h5.13v-1.349h-5.13v-4.199h6.06v-1.349h-7.657V110h1.596zm12.74.228c2.433 0 4.18-1.368 4.18-4.94v-7.752h-1.538v7.79c0 2.565-1.14 3.496-2.641 3.496-1.482 0-2.603-.931-2.603-3.496v-7.79h-1.615v7.752c0 3.572 1.767 4.94 4.218 4.94zm8.505-.228v-6.517c0-1.292-.152-2.622-.209-3.895h.038l1.197 2.584 3.99 7.828h1.748V97.536h-1.52v6.46c0 1.311.152 2.717.21 3.952h-.039l-1.197-2.584-3.99-7.828h-1.748V110h1.52zm14.737.228c1.653 0 2.888-.665 3.857-1.805l-.912-.969c-.78.874-1.653 1.368-2.793 1.368-2.375 0-3.933-1.957-3.933-5.092 0-3.097 1.558-5.016 3.933-5.016 1.045 0 1.862.437 2.508 1.121l.912-1.007c-.741-.798-1.92-1.52-3.42-1.52-3.25 0-5.586 2.451-5.586 6.46 0 4.066 2.356 6.46 5.434 6.46zm10.974-.228V98.885h4.123v-1.349h-9.842v1.349h4.123V110h1.596zm14.243 0v-1.349h-3.097v-9.766h3.096v-1.349h-7.79v1.349h3.098v9.766h-3.097V110h7.79zm7.25.228c2.812 0 4.788-2.432 4.788-6.517 0-4.028-1.976-6.403-4.788-6.403-2.812 0-4.788 2.375-4.788 6.403 0 4.085 1.976 6.517 4.788 6.517zm0-1.406c-1.881 0-3.135-1.919-3.135-5.111 0-3.135 1.254-4.997 3.135-4.997 1.88 0 3.135 1.862 3.135 4.997 0 3.192-1.254 5.111-3.135 5.111zm8.523 1.178v-6.517c0-1.292-.152-2.622-.209-3.895h.038l1.197 2.584 3.99 7.828h1.748V97.536h-1.52v6.46c0 1.311.152 2.717.21 3.952h-.039l-1.197-2.584-3.99-7.828h-1.748V110h1.52zm-199.673 24v-1.349h-3.097v-9.766h3.097v-1.349h-7.79v1.349h3.097v9.766h-3.097V134h7.79zm4.629 0v-6.517c0-1.292-.152-2.622-.21-3.895h.039l1.197 2.584 3.99 7.828h1.748v-12.464h-1.52v6.46c0 1.311.152 2.717.209 3.952h-.038l-1.197-2.584-3.99-7.828h-1.748V134h1.52zm17.852-5.681v-1.178h-8.17v1.178h8.17zm3.584 5.681 1.187-3.78h4.523l1.168 3.78h1.71l-4.2-12.464h-1.823l-4.2 12.464h1.635zm5.311-5.073h-3.718l.592-1.881c.437-1.387.836-2.755 1.235-4.199h.076c.38 1.444.798 2.812 1.235 4.199l.58 1.881zm7.145 5.073v-4.94h2.166c2.736 0 4.617-1.216 4.617-3.857 0-2.736-1.862-3.667-4.617-3.667h-3.762V134h1.596zm1.976-6.232h-1.976v-4.94h1.976c2.147 0 3.211.589 3.211 2.375 0 1.767-1.045 2.565-3.211 2.565zm9.17 6.232v-4.94h2.165c2.736 0 4.617-1.216 4.617-3.857 0-2.736-1.862-3.667-4.617-3.667h-3.762V134h1.596zm1.975-6.232h-1.976v-4.94h1.976c2.147 0 3.211.589 3.211 2.375 0 1.767-1.045 2.565-3.21 2.565zM306.06 134v-6.232c0-1.216-.152-3.344-.266-4.408h.038l.722 2.432 1.748 4.902h1.14l1.786-4.902.703-2.432h.057c-.076 1.064-.266 3.192-.266 4.408V134h1.52v-12.464h-1.938l-1.767 5.32-.589 2.014h-.076l-.608-2.014-1.748-5.32h-1.938V134h1.482zm10.519 0 1.187-3.78h4.523l1.168 3.78h1.71l-4.2-12.464h-1.823l-4.2 12.464h1.635zm5.311-5.073h-3.718l.592-1.881c.437-1.387.836-2.755 1.235-4.199h.076c.38 1.444.798 2.812 1.235 4.199l.58 1.881zm7.107 5.073v-5.263h2.206l3 5.263h1.805l-3.163-5.441.133-.034c1.611-.444 2.669-1.588 2.669-3.474 0-2.603-1.843-3.515-4.37-3.515h-3.895V134h1.615zm2.052-6.555h-2.052v-4.617h2.052c1.938 0 3.002.589 3.002 2.223 0 1.596-1.064 2.394-3.002 2.394zm9.055 6.555v-3.971l2.148-2.568 3.61 6.539h1.804l-4.408-7.741 3.952-4.723h-1.824l-5.225 6.232h-.057v-6.232h-1.615V134h1.615zm17.758 0v-1.349h-6.308v-4.522h5.168v-1.349h-5.168v-3.895h6.118v-1.349h-7.714V134h7.904zm7.573 0v-11.115h4.123v-1.349h-9.842v1.349h4.123V134h1.596zm8.182 0v-4.94h2.166c2.736 0 4.617-1.216 4.617-3.857 0-2.736-1.862-3.667-4.617-3.667h-3.762V134h1.596zm1.976-6.232h-1.976v-4.94h1.976c2.147 0 3.21.589 3.21 2.375 0 1.767-1.044 2.565-3.21 2.565zM391.506 134v-1.349h-6.156v-11.115h-1.577V134h7.733zm3.09 0 1.187-3.78h4.523l1.167 3.78h1.71l-4.199-12.464h-1.824L392.961 134h1.634zm5.311-5.073h-3.718l.591-1.881c.437-1.387.836-2.755 1.235-4.199h.076c.38 1.444.798 2.812 1.235 4.199l.581 1.881zm10.28 5.301c1.653 0 2.888-.665 3.857-1.805l-.912-.969c-.78.874-1.653 1.368-2.793 1.368-2.375 0-3.933-1.957-3.933-5.092 0-3.097 1.558-5.016 3.933-5.016 1.045 0 1.862.437 2.508 1.121l.912-1.007c-.741-.798-1.92-1.52-3.42-1.52-3.25 0-5.586 2.451-5.586 6.46 0 4.066 2.356 6.46 5.434 6.46zm14.546-.228v-1.349h-6.308v-4.522h5.168v-1.349h-5.168v-3.895h6.118v-1.349h-7.714V134h7.904zM523.9 110v-1.349h-3.096v-9.766h3.097v-1.349h-7.79v1.349h3.097v9.766h-3.097V110h7.79zm11.621 0v-1.349h-6.308v-4.522h5.168v-1.349h-5.168v-3.895h6.118v-1.349h-7.714V110h7.904zm6.776.228c2.812 0 4.788-2.432 4.788-6.517 0-4.028-1.976-6.403-4.788-6.403-2.812 0-4.788 2.375-4.788 6.403 0 4.085 1.976 6.517 4.788 6.517zm0-1.406c-1.881 0-3.135-1.919-3.135-5.111 0-3.135 1.254-4.997 3.135-4.997 1.88 0 3.135 1.862 3.135 4.997 0 3.192-1.254 5.111-3.135 5.111zm8.732 4.218 6.232-16.53h-1.406l-6.232 16.53h1.406zm17.453-3.04v-1.349h-3.097v-9.766h3.097v-1.349h-7.79v1.349h3.097v9.766h-3.097V110h7.79zm6.358 0c3.667 0 5.7-2.318 5.7-6.289 0-3.952-2.033-6.175-5.776-6.175h-3.078V110h3.154zm-.19-1.311h-1.368v-9.842h1.368c2.83 0 4.237 1.729 4.237 4.864 0 3.154-1.406 4.978-4.237 4.978zm12.228 1.539c2.812 0 4.788-2.432 4.788-6.517 0-4.028-1.976-6.403-4.788-6.403-2.812 0-4.788 2.375-4.788 6.403 0 4.085 1.976 6.517 4.788 6.517zm0-1.406c-1.88 0-3.135-1.919-3.135-5.111 0-3.135 1.254-4.997 3.135-4.997 1.881 0 3.135 1.862 3.135 4.997 0 3.192-1.254 5.111-3.135 5.111z" fill="#231F20" fill-rule="nonzero"/>
            <path fill="red" d="M515 103.749h78v1h-78z"/>
            <path d="M503.676 133.977c1.615 0 2.945-.646 3.724-1.444v-5.244h-3.952v1.311h2.47v3.25c-.456.455-1.273.721-2.147.721-2.432 0-3.819-1.957-3.819-5.092 0-3.097 1.52-5.016 3.857-5.016 1.197 0 1.938.494 2.527 1.121l.912-1.007c-.703-.74-1.786-1.52-3.439-1.52-3.23 0-5.529 2.432-5.529 6.46 0 4.066 2.261 6.46 5.396 6.46zm14.812-.228V132.4h-6.308v-4.522h5.168v-1.349h-5.168v-3.895h6.118v-1.349h-7.714v12.464h7.904zm3.926 0v-6.232c0-1.216-.152-3.344-.266-4.408h.038l.722 2.432 1.748 4.902h1.14l1.786-4.902.703-2.432h.057c-.076 1.064-.266 3.192-.266 4.408v6.232h1.52v-12.464h-1.938l-1.767 5.32-.59 2.014h-.075l-.608-2.014-1.748-5.32h-1.938v12.464h1.482zm25.236.228c2.736 0 4.408-1.577 4.408-3.553 0-1.843-1.216-2.717-2.755-3.325l-1.748-.779c-1.064-.418-2.223-.855-2.223-2.052 0-1.12.969-1.805 2.413-1.805 1.292 0 2.242.437 3.059 1.16l.836-1.027c-.912-.912-2.28-1.539-3.838-1.539-2.375 0-4.085 1.406-4.085 3.306 0 1.843 1.444 2.717 2.679 3.211l1.805.798c1.254.532 2.223.912 2.223 2.242 0 1.14-.988 1.957-2.698 1.957-1.406 0-2.698-.608-3.648-1.539l-.95 1.102c1.12 1.121 2.698 1.843 4.522 1.843zm11.848-.228v-4.446l4.18-8.018h-1.634l-1.805 3.686c-.475.97-.969 1.92-1.463 2.907h-.076c-.513-.988-.95-1.938-1.425-2.907l-1.862-3.686h-1.691l4.18 8.018v4.446h1.596zm10.442.228c2.736 0 4.408-1.577 4.408-3.553 0-1.843-1.216-2.717-2.755-3.325l-1.748-.779c-1.064-.418-2.223-.855-2.223-2.052 0-1.12.97-1.805 2.413-1.805 1.292 0 2.242.437 3.06 1.16l.835-1.027c-.912-.912-2.28-1.539-3.838-1.539-2.375 0-4.085 1.406-4.085 3.306 0 1.843 1.444 2.717 2.68 3.211l1.804.798c1.254.532 2.223.912 2.223 2.242 0 1.14-.988 1.957-2.698 1.957-1.406 0-2.698-.608-3.648-1.539l-.95 1.102c1.121 1.121 2.698 1.843 4.522 1.843zm11.849-.228v-11.115h4.123v-1.349h-9.842v1.35h4.123v11.114h1.596zm14.717 0V132.4h-6.308v-4.522h5.168v-1.349h-5.168v-3.895h6.118v-1.349h-7.714v12.464h7.904zm3.926 0v-6.232c0-1.216-.152-3.344-.266-4.408h.038l.722 2.432 1.748 4.902h1.14l1.786-4.902.703-2.432h.057c-.076 1.064-.266 3.192-.266 4.408v6.232h1.52v-12.464h-1.938l-1.767 5.32-.59 2.014h-.075l-.608-2.014-1.748-5.32h-1.938v12.464h1.482z" fill="red" fill-rule="nonzero"/>
            <path d="M942.65 110v-1.349h-3.097v-9.766h3.097v-1.349h-7.79v1.349h3.097v9.766h-3.097V110h7.79zm4.628 0v-6.517c0-1.292-.152-2.622-.209-3.895h.038l1.197 2.584 3.99 7.828h1.748V97.536h-1.52v6.46c0 1.311.152 2.717.21 3.952h-.039l-1.197-2.584-3.99-7.828h-1.748V110h1.52zm17.853-5.681v-1.178h-8.17v1.178h8.17zm3.583 5.681 1.188-3.781h4.523l1.167 3.781h1.71l-4.199-12.464h-1.824L967.08 110h1.634zm5.312-5.073h-3.718l.591-1.881c.437-1.387.836-2.755 1.235-4.199h.076c.38 1.444.798 2.812 1.235 4.199l.581 1.881zM981.17 110v-4.94h2.167c2.736 0 4.616-1.216 4.616-3.857 0-2.736-1.861-3.667-4.616-3.667h-3.763V110h1.596zm1.976-6.232h-1.976v-4.94h1.976c2.148 0 3.212.589 3.212 2.375 0 1.767-1.045 2.565-3.212 2.565zm9.17 6.232v-4.94h2.166c2.736 0 4.617-1.216 4.617-3.857 0-2.736-1.862-3.667-4.617-3.667h-3.762V110h1.596zm1.976-6.232h-1.976v-4.94h1.976c2.147 0 3.21.589 3.21 2.375 0 1.767-1.044 2.565-3.21 2.565zM1015.1 110l1.216-5.016c.19-.76.304-1.482.437-2.242h.057c.114.76.266 1.482.456 2.242l1.216 5.016h1.976l1.824-12.483h-1.71l-.874 7.847c-.114 1.026-.152 1.634-.228 2.869h-.076c-.228-1.235-.342-1.843-.608-2.869l-1.178-4.636h-1.52l-1.216 4.636a46.193 46.193 0 0 0-.608 2.869h-.057c-.057-1.235-.133-1.843-.247-2.888l-.912-7.828h-1.786l1.9 12.483h1.938zm9.34 0 1.188-3.781h4.523l1.167 3.781h1.71l-4.199-12.464h-1.824L1022.807 110h1.634zm5.312-5.073h-3.718l.591-1.881c.437-1.387.836-2.755 1.235-4.199h.076c.38 1.444.798 2.812 1.235 4.199l.581 1.881zm13.89 5.073v-1.349h-6.157V97.536h-1.577V110h7.733zm11.145 0v-1.349h-6.156V97.536h-1.577V110h7.733zm10.936 0v-1.349h-6.308v-4.522h5.168v-1.349h-5.168v-3.895h6.118v-1.349h-7.714V110h7.904zm7.574 0V98.885h4.123v-1.349h-9.842v1.349h4.123V110h1.596zM972.21 134.228c2.432 0 4.18-1.368 4.18-4.94v-7.752h-1.539v7.79c0 2.565-1.14 3.496-2.64 3.496-1.483 0-2.604-.931-2.604-3.496v-7.79h-1.615v7.752c0 3.572 1.767 4.94 4.218 4.94zm8.96-.228v-4.94h2.167c2.736 0 4.616-1.216 4.616-3.857 0-2.736-1.861-3.667-4.616-3.667h-3.763V134h1.596zm1.976-6.232h-1.976v-4.94h1.976c2.148 0 3.212.589 3.212 2.375 0 1.767-1.045 2.565-3.212 2.565zm12.039 6.46c1.615 0 2.945-.646 3.724-1.444v-5.244h-3.952v1.311h2.47v3.249c-.456.456-1.273.722-2.147.722-2.432 0-3.82-1.957-3.82-5.092 0-3.097 1.52-5.016 3.858-5.016 1.197 0 1.938.494 2.527 1.121l.912-1.007c-.703-.741-1.786-1.52-3.44-1.52-3.23 0-5.528 2.432-5.528 6.46 0 4.066 2.26 6.46 5.396 6.46zm8.238-.228v-5.263h2.206l3 5.263h1.805l-3.163-5.441.133-.034c1.612-.444 2.67-1.588 2.67-3.474 0-2.603-1.844-3.515-4.37-3.515h-3.896V134h1.615zm2.052-6.555h-2.052v-4.617h2.052c1.938 0 3.002.589 3.002 2.223 0 1.596-1.064 2.394-3.002 2.394zm7.82 6.555 1.188-3.78h4.523l1.168 3.78h1.71l-4.2-12.464h-1.823l-4.2 12.464h1.635zm5.312-5.073h-3.718l.592-1.881c.437-1.387.836-2.755 1.235-4.199h.076c.38 1.444.798 2.812 1.235 4.199l.58 1.881zm8.418 5.073c3.667 0 5.7-2.318 5.7-6.289 0-3.952-2.033-6.175-5.776-6.175h-3.078V134h3.154zm-.19-1.311h-1.368v-9.842h1.368c2.831 0 4.237 1.729 4.237 4.864 0 3.154-1.406 4.978-4.237 4.978zm16.599 1.311v-1.349h-6.308v-4.522h5.168v-1.349h-5.168v-3.895h6.118v-1.349h-7.714V134h7.904zM164.35 687.743l1.187-3.781h4.523l1.167 3.78h1.71l-4.199-12.463h-1.824l-4.199 12.464h1.634zm5.311-5.073h-3.718l.591-1.881c.437-1.387.836-2.755 1.235-4.2h.076c.38 1.445.798 2.813 1.235 4.2l.581 1.88zm10.28 5.3c1.653 0 2.888-.664 3.857-1.804l-.912-.97c-.78.875-1.653 1.369-2.793 1.369-2.375 0-3.933-1.957-3.933-5.092 0-3.097 1.558-5.016 3.933-5.016 1.045 0 1.862.437 2.508 1.12l.912-1.006c-.741-.798-1.92-1.52-3.42-1.52-3.25 0-5.586 2.45-5.586 6.46 0 4.066 2.356 6.46 5.434 6.46zm7.592-.227v-5.852h5.168v5.852h1.615v-12.464h-1.615v5.206h-5.168v-5.206h-1.615v12.464h1.615zm17.625 0v-1.35h-3.097v-9.765h3.097v-1.35h-7.79v1.35h3.097v9.766h-3.097v1.349h7.79zm11.62 0v-1.35h-6.308v-4.521h5.168v-1.35h-5.168v-3.894h6.118v-1.35h-7.714v12.465h7.904zm7.725 0 3.952-12.464h-1.634l-1.995 6.726c-.418 1.463-.74 2.66-1.197 4.104h-.076c-.456-1.444-.76-2.641-1.197-4.104l-1.995-6.726h-1.71l3.99 12.464h1.862zm14.566 0v-1.35h-6.308v-4.521h5.168v-1.35h-5.168v-3.894h6.118v-1.35h-7.714v12.465h7.904zm3.925 0v-6.232c0-1.216-.152-3.344-.266-4.408h.038l.722 2.432 1.748 4.902h1.14l1.786-4.902.703-2.432h.057c-.076 1.064-.266 3.192-.266 4.408v6.232h1.52v-12.464h-1.938l-1.767 5.32-.589 2.014h-.076l-.608-2.014-1.748-5.32h-1.938v12.464h1.482zm18.366 0v-1.35h-6.308v-4.521h5.168v-1.35h-5.168v-3.894h6.118v-1.35h-7.714v12.465h7.904zm4.153 0v-6.517c0-1.292-.152-2.622-.21-3.895h.039l1.197 2.584 3.99 7.828h1.748v-12.464h-1.52v6.46c0 1.31.152 2.717.209 3.952h-.038l-1.197-2.584-3.99-7.828h-1.748v12.464h1.52zm14.565 0v-11.115h4.123v-1.35h-9.842v1.35h4.123v11.115h1.596zm-117.824 24c2.793 0 4.693-1.197 4.693-3.648 0-1.71-1.064-2.698-2.888-2.983v-.076c1.482-.38 2.185-1.482 2.185-2.717 0-2.185-1.73-3.04-4.275-3.04h-3.534v12.464h3.819zm-.551-7.22h-1.691v-3.914h1.767c1.919 0 2.907.494 2.907 1.843 0 1.387-.855 2.07-2.983 2.07zm.323 5.89h-2.014v-4.56h2.014c2.185 0 3.363.627 3.363 2.166 0 1.69-1.235 2.394-3.363 2.394zm7.896 1.33 1.187-3.78h4.523l1.168 3.78h1.71l-4.199-12.464h-1.824l-4.199 12.464h1.634zm5.311-5.073h-3.718l.592-1.881c.437-1.387.836-2.755 1.235-4.2h.076c.38 1.445.798 2.813 1.235 4.2l.58 1.88zm8.418 5.073c3.667 0 5.7-2.318 5.7-6.29 0-3.951-2.033-6.174-5.776-6.174h-3.078v12.464h3.154zm-.19-1.311h-1.368v-9.842h1.368c2.831 0 4.237 1.729 4.237 4.864 0 3.154-1.406 4.978-4.237 4.978zm12.932 1.539c1.615 0 2.945-.646 3.724-1.444v-5.244h-3.952v1.31h2.47v3.25c-.456.456-1.273.722-2.147.722-2.432 0-3.82-1.957-3.82-5.092 0-3.097 1.52-5.016 3.858-5.016 1.197 0 1.938.494 2.527 1.12l.912-1.006c-.703-.741-1.786-1.52-3.44-1.52-3.23 0-5.528 2.432-5.528 6.46 0 4.066 2.26 6.46 5.396 6.46zm14.812-.228v-1.35h-6.308v-4.521h5.168v-1.35h-5.168v-3.894h6.118v-1.35h-7.714v12.465h7.904zm18.016.228c2.736 0 4.408-1.577 4.408-3.553 0-1.843-1.216-2.717-2.755-3.325l-1.748-.78c-1.064-.417-2.223-.854-2.223-2.051 0-1.121.969-1.805 2.413-1.805 1.292 0 2.242.437 3.059 1.159l.836-1.026c-.912-.912-2.28-1.54-3.838-1.54-2.375 0-4.085 1.407-4.085 3.307 0 1.843 1.444 2.717 2.679 3.21l1.805.799c1.254.532 2.223.912 2.223 2.242 0 1.14-.988 1.957-2.698 1.957-1.406 0-2.698-.608-3.648-1.54l-.95 1.103c1.121 1.12 2.698 1.843 4.522 1.843zm11.848-.228v-4.446l4.18-8.018h-1.634l-1.805 3.686c-.475.969-.969 1.919-1.463 2.907h-.076c-.513-.988-.95-1.938-1.425-2.907l-1.862-3.686h-1.69l4.18 8.018v4.446h1.595zm10.443.228c2.736 0 4.408-1.577 4.408-3.553 0-1.843-1.216-2.717-2.755-3.325l-1.748-.78c-1.064-.417-2.223-.854-2.223-2.051 0-1.121.969-1.805 2.413-1.805 1.292 0 2.242.437 3.059 1.159l.836-1.026c-.912-.912-2.28-1.54-3.838-1.54-2.375 0-4.085 1.407-4.085 3.307 0 1.843 1.444 2.717 2.679 3.21l1.805.799c1.254.532 2.223.912 2.223 2.242 0 1.14-.988 1.957-2.698 1.957-1.406 0-2.698-.608-3.648-1.54l-.95 1.103c1.12 1.12 2.698 1.843 4.522 1.843zm11.848-.228v-11.115h4.123v-1.35h-9.842v1.35h4.123v11.115h1.596zm14.718 0v-1.35h-6.308v-4.521h5.168v-1.35h-5.168v-3.894h6.118v-1.35h-7.714v12.465h7.904zm3.925 0v-6.232c0-1.216-.152-3.344-.266-4.408h.038l.722 2.432 1.748 4.902h1.14l1.786-4.902.703-2.432h.057c-.076 1.064-.266 3.192-.266 4.408v6.232h1.52v-12.464h-1.938l-1.767 5.32-.589 2.014h-.076l-.608-2.014-1.748-5.32h-1.938v12.464h1.482zM413.83 687.743v-6.232c0-1.216-.151-3.344-.265-4.408h.038l.722 2.432 1.748 4.902h1.14l1.786-4.902.703-2.432h.057c-.076 1.064-.266 3.192-.266 4.408v6.232h1.52v-12.464h-1.938l-1.767 5.32-.59 2.014h-.075l-.608-2.014-1.748-5.32h-1.938v12.464h1.482zm10.52 0 1.187-3.781h4.523l1.167 3.78h1.71l-4.199-12.463h-1.824l-4.199 12.464h1.634zm5.311-5.073h-3.718l.591-1.881c.437-1.387.836-2.755 1.235-4.2h.076c.38 1.445.798 2.813 1.235 4.2l.581 1.88zm7.107 5.073v-5.263h2.205l3 5.263h1.806l-3.164-5.441.133-.035c1.612-.444 2.67-1.588 2.67-3.473 0-2.603-1.843-3.515-4.37-3.515h-3.895v12.464h1.615zm2.052-6.555h-2.052v-4.617h2.052c1.938 0 3.002.589 3.002 2.223 0 1.596-1.064 2.394-3.002 2.394zm7.82 6.555 1.188-3.781h4.523l1.167 3.78h1.71l-4.199-12.463h-1.824l-4.199 12.464h1.634zm5.312-5.073h-3.718l.591-1.881c.437-1.387.836-2.755 1.235-4.2h.076c.38 1.445.798 2.813 1.235 4.2l.581 1.88zm10.109 5.073v-11.115h4.123v-1.35h-9.842v1.35h4.123v11.115h1.596zm7.763 0v-5.852h5.168v5.852h1.615v-12.464h-1.615v5.206h-5.168v-5.206h-1.615v12.464h1.615zm13.73.228c2.811 0 4.787-2.432 4.787-6.517 0-4.028-1.976-6.403-4.788-6.403-2.812 0-4.788 2.375-4.788 6.403 0 4.085 1.976 6.517 4.788 6.517zm0-1.406c-1.882 0-3.136-1.92-3.136-5.111 0-3.135 1.254-4.997 3.135-4.997 1.881 0 3.135 1.862 3.135 4.997 0 3.192-1.254 5.11-3.135 5.11zm8.523 1.178v-6.517c0-1.292-.152-2.622-.21-3.895h.039l1.197 2.584 3.99 7.828h1.748v-12.464h-1.52v6.46c0 1.31.152 2.717.209 3.952h-.038l-1.197-2.584-3.99-7.828h-1.748v12.464h1.52zm22.063 0v-6.232c0-1.216-.152-3.344-.266-4.408h.038l.722 2.432 1.748 4.902h1.14l1.786-4.902.703-2.432h.057c-.076 1.064-.266 3.192-.266 4.408v6.232h1.52v-12.464h-1.938l-1.767 5.32-.59 2.014h-.075l-.608-2.014-1.748-5.32h-1.938v12.464h1.482zm13.995.228c2.812 0 4.788-2.432 4.788-6.517 0-4.028-1.976-6.403-4.788-6.403-2.812 0-4.788 2.375-4.788 6.403 0 4.085 1.976 6.517 4.788 6.517zm0-1.406c-1.881 0-3.135-1.92-3.135-5.111 0-3.135 1.254-4.997 3.135-4.997 1.88 0 3.135 1.862 3.135 4.997 0 3.192-1.254 5.11-3.135 5.11zm10.252 1.178c3.667 0 5.7-2.318 5.7-6.29 0-3.951-2.033-6.174-5.776-6.174h-3.078v12.464h3.154zm-.19-1.311h-1.368v-9.842h1.368c2.831 0 4.237 1.729 4.237 4.864 0 3.154-1.406 4.978-4.237 4.978zm16.599 1.31v-1.348h-6.308v-4.522h5.168v-1.35h-5.168v-3.894h6.118v-1.35h-7.714v12.465h7.904zm-89.538 24v-5.566h5.13v-1.35h-5.13v-4.198h6.061v-1.35h-7.657v12.465h1.596zm12.723.229c2.812 0 4.788-2.432 4.788-6.517 0-4.028-1.976-6.403-4.788-6.403-2.812 0-4.788 2.375-4.788 6.403 0 4.085 1.976 6.517 4.788 6.517zm0-1.406c-1.881 0-3.135-1.92-3.135-5.111 0-3.135 1.254-4.997 3.135-4.997 1.88 0 3.135 1.862 3.135 4.997 0 3.192-1.254 5.11-3.135 5.11zm8.295 1.178v-6.232c0-1.216-.152-3.344-.266-4.408h.038l.722 2.432 1.748 4.902h1.14l1.786-4.902.703-2.432h.057c-.076 1.064-.266 3.192-.266 4.408v6.232h1.52v-12.464h-1.938l-1.767 5.32-.589 2.014h-.076l-.608-2.014-1.748-5.32h-1.938v12.464h1.482zm13.995.228c2.812 0 4.788-2.432 4.788-6.517 0-4.028-1.976-6.403-4.788-6.403-2.812 0-4.788 2.375-4.788 6.403 0 4.085 1.976 6.517 4.788 6.517zm0-1.406c-1.88 0-3.135-1.92-3.135-5.111 0-3.135 1.254-4.997 3.135-4.997 1.881 0 3.135 1.862 3.135 4.997 0 3.192-1.254 5.11-3.135 5.11zM689.495 687.97c2.736 0 4.408-1.576 4.408-3.552 0-1.843-1.216-2.717-2.755-3.325l-1.748-.78c-1.064-.417-2.223-.854-2.223-2.051 0-1.121.97-1.805 2.413-1.805 1.292 0 2.242.437 3.06 1.159l.835-1.026c-.912-.912-2.28-1.54-3.838-1.54-2.375 0-4.085 1.407-4.085 3.307 0 1.843 1.444 2.717 2.68 3.21l1.804.799c1.254.532 2.223.912 2.223 2.242 0 1.14-.988 1.957-2.698 1.957-1.406 0-2.698-.608-3.648-1.54l-.95 1.103c1.121 1.12 2.698 1.843 4.522 1.843zm11.849-.227v-11.115h4.123v-1.35h-9.842v1.35h4.123v11.115h1.596zm14.717 0v-1.35h-6.308v-4.521h5.168v-1.35h-5.168v-3.894h6.118v-1.35h-7.714v12.465h7.904zm4.61 0v-4.94h2.165c2.736 0 4.617-1.216 4.617-3.857 0-2.736-1.861-3.667-4.616-3.667h-3.763v12.464h1.596zm1.975-6.232h-1.976v-4.94h1.976c2.148 0 3.212.589 3.212 2.375 0 1.767-1.045 2.565-3.212 2.565zm8.714 6.232v-6.517c0-1.292-.152-2.622-.21-3.895h.039l1.197 2.584 3.99 7.828h1.748v-12.464h-1.52v6.46c0 1.31.152 2.717.209 3.952h-.038l-1.197-2.584-3.99-7.828h-1.748v12.464h1.52zm24.913 0c2.793 0 4.693-1.197 4.693-3.648 0-1.71-1.064-2.698-2.888-2.983v-.076c1.482-.38 2.185-1.482 2.185-2.717 0-2.185-1.73-3.04-4.275-3.04h-3.534v12.464h3.819zm-.551-7.22h-1.691v-3.914h1.767c1.919 0 2.907.494 2.907 1.843 0 1.387-.855 2.07-2.983 2.07zm.323 5.89h-2.014v-4.56h2.014c2.185 0 3.363.627 3.363 2.166 0 1.69-1.235 2.394-3.363 2.394zm9.17 1.33v-5.263h2.205l3 5.263h1.805l-3.163-5.441.133-.035c1.611-.444 2.67-1.588 2.67-3.473 0-2.603-1.844-3.515-4.37-3.515h-3.896v12.464h1.615zm2.051-6.555h-2.052v-4.617h2.052c1.938 0 3.002.589 3.002 2.223 0 1.596-1.064 2.394-3.002 2.394zm7.82 6.555 1.188-3.781h4.523l1.168 3.78h1.71l-4.2-12.463h-1.823l-4.2 12.464h1.635zm5.312-5.073h-3.718l.591-1.881c.438-1.387.837-2.755 1.236-4.2h.076c.38 1.445.798 2.813 1.235 4.2l.58 1.88zm6.689 5.073v-6.517c0-1.292-.152-2.622-.21-3.895h.039l1.197 2.584 3.99 7.828h1.748v-12.464h-1.52v6.46c0 1.31.152 2.717.209 3.952h-.038l-1.197-2.584-3.99-7.828h-1.748v12.464h1.52zm12.874 0c3.667 0 5.7-2.318 5.7-6.29 0-3.951-2.033-6.174-5.776-6.174h-3.078v12.464h3.154zm-.19-1.311h-1.368v-9.842h1.368c2.831 0 4.237 1.729 4.237 4.864 0 3.154-1.406 4.978-4.237 4.978zm-94.855 25.31v-1.348h-6.308v-4.522h5.168v-1.35h-5.168v-3.894h6.118v-1.35h-7.714v12.465h7.904zm3.773 0 1.862-3.343a66.17 66.17 0 0 0 1.007-2.014h.076c.418.76.76 1.387 1.102 2.014l1.862 3.344h1.786l-3.724-6.365 3.477-6.1h-1.69l-1.71 3.174c-.305.57-.552 1.083-.894 1.824h-.076a89.399 89.399 0 0 0-1.007-1.824l-1.748-3.173h-1.767l3.477 6.023-3.724 6.44h1.691zm11.981 0v-4.94h2.167c2.736 0 4.616-1.215 4.616-3.856 0-2.736-1.861-3.667-4.616-3.667h-3.763v12.464h1.596zm1.976-6.231h-1.976v-4.94h1.976c2.148 0 3.212.589 3.212 2.375 0 1.767-1.045 2.565-3.212 2.565zm7.859 6.232 1.187-3.78h4.523l1.168 3.78h1.71l-4.2-12.464h-1.823l-4.2 12.464h1.635zm5.311-5.073h-3.718l.592-1.881c.437-1.387.836-2.755 1.235-4.2H734c.38 1.445.798 2.813 1.235 4.2l.58 1.88zm6.69 5.073v-6.517c0-1.292-.153-2.622-.21-3.895h.038l1.197 2.584 3.99 7.828h1.748v-12.464h-1.52v6.46c0 1.31.152 2.717.21 3.952h-.039l-1.197-2.584-3.99-7.828h-1.748v12.464h1.52zm13.862.228c2.736 0 4.408-1.577 4.408-3.553 0-1.843-1.216-2.717-2.755-3.325l-1.748-.78c-1.064-.417-2.223-.854-2.223-2.051 0-1.121.969-1.805 2.413-1.805 1.292 0 2.242.437 3.059 1.159l.836-1.026c-.912-.912-2.28-1.54-3.838-1.54-2.375 0-4.085 1.407-4.085 3.307 0 1.843 1.444 2.717 2.679 3.21l1.805.799c1.254.532 2.223.912 2.223 2.242 0 1.14-.988 1.957-2.698 1.957-1.406 0-2.698-.608-3.648-1.54l-.95 1.103c1.12 1.12 2.698 1.843 4.522 1.843zm14.945-.228v-1.35h-3.097v-9.765h3.097v-1.35h-7.79v1.35h3.097v9.766h-3.097v1.349h7.79zm7.25.228c2.813 0 4.788-2.432 4.788-6.517 0-4.028-1.976-6.403-4.788-6.403-2.812 0-4.788 2.375-4.788 6.403 0 4.085 1.976 6.517 4.788 6.517zm0-1.406c-1.88 0-3.135-1.92-3.135-5.111 0-3.135 1.255-4.997 3.135-4.997 1.881 0 3.135 1.862 3.135 4.997 0 3.192-1.254 5.11-3.135 5.11zm8.524 1.178v-6.517c0-1.292-.152-2.622-.21-3.895h.039l1.197 2.584 3.99 7.828h1.748v-12.464h-1.52v6.46c0 1.31.152 2.717.209 3.952h-.038l-1.197-2.584-3.99-7.828h-1.748v12.464h1.52zM976.859 687.97c2.736 0 4.408-1.576 4.408-3.552 0-1.843-1.216-2.717-2.755-3.325l-1.748-.78c-1.064-.417-2.223-.854-2.223-2.051 0-1.121.969-1.805 2.413-1.805 1.292 0 2.242.437 3.059 1.159l.836-1.026c-.912-.912-2.28-1.54-3.838-1.54-2.375 0-4.085 1.407-4.085 3.307 0 1.843 1.444 2.717 2.679 3.21l1.805.799c1.254.532 2.223.912 2.223 2.242 0 1.14-.988 1.957-2.698 1.957-1.406 0-2.698-.608-3.648-1.54l-.95 1.103c1.12 1.12 2.698 1.843 4.522 1.843zm11.05 0c2.812 0 4.788-2.431 4.788-6.516 0-4.028-1.976-6.403-4.788-6.403-2.812 0-4.788 2.375-4.788 6.403 0 4.085 1.976 6.517 4.788 6.517zm0-1.405c-1.88 0-3.135-1.92-3.135-5.111 0-3.135 1.254-4.997 3.135-4.997 1.881 0 3.135 1.862 3.135 4.997 0 3.192-1.254 5.11-3.135 5.11zm12.115 1.406c1.653 0 2.888-.665 3.857-1.805l-.912-.97c-.78.875-1.653 1.369-2.793 1.369-2.375 0-3.933-1.957-3.933-5.092 0-3.097 1.558-5.016 3.933-5.016 1.045 0 1.862.437 2.508 1.12l.912-1.006c-.741-.798-1.92-1.52-3.42-1.52-3.25 0-5.586 2.45-5.586 6.46 0 4.066 2.356 6.46 5.434 6.46zm14.071-.228v-1.35h-3.097v-9.765h3.097v-1.35h-7.79v1.35h3.097v9.766h-3.097v1.349h7.79zm3.773 0 1.188-3.781h4.523l1.167 3.78h1.71l-4.199-12.463h-1.824l-4.199 12.464h1.634zm5.312-5.073h-3.718l.591-1.881c.437-1.387.836-2.755 1.235-4.2h.076c.38 1.445.798 2.813 1.235 4.2l.581 1.88zm13.89 5.073v-1.35h-6.156V675.28h-1.577v12.464h7.733zm-117.61 24v-5.567h5.13v-1.35h-5.13v-4.198h6.06v-1.35h-7.656v12.465h1.596zm17.092 0v-1.35h-6.308v-4.521h5.168v-1.35h-5.168v-3.894h6.118v-1.35h-7.714v12.465h7.904zm3.299 0 1.187-3.78h4.523l1.168 3.78h1.71l-4.2-12.464h-1.823l-4.2 12.464h1.635zm5.311-5.073h-3.718l.592-1.881c.437-1.387.836-2.755 1.235-4.2h.076c.38 1.445.798 2.813 1.235 4.2l.58 1.88zm10.109 5.073v-11.115h4.123v-1.35h-9.842v1.35h4.123v11.115h1.596zm10.366.228c2.432 0 4.18-1.368 4.18-4.94v-7.752h-1.539v7.79c0 2.565-1.14 3.496-2.64 3.496-1.483 0-2.604-.931-2.604-3.496v-7.79h-1.615v7.752c0 3.572 1.767 4.94 4.218 4.94zm8.923-.228v-5.263h2.205l3 5.263h1.806l-3.164-5.441.134-.035c1.611-.444 2.669-1.588 2.669-3.473 0-2.603-1.843-3.515-4.37-3.515h-3.895v12.464h1.615zm2.052-6.555h-2.052v-4.617h2.052c1.938 0 3.002.589 3.002 2.223 0 1.596-1.064 2.394-3.002 2.394zm15.667 6.555v-1.35h-6.308v-4.521h5.168v-1.35h-5.168v-3.894h6.118v-1.35h-7.714v12.465h7.904zm6.87.228c2.737 0 4.409-1.577 4.409-3.553 0-1.843-1.216-2.717-2.755-3.325l-1.748-.78c-1.064-.417-2.223-.854-2.223-2.051 0-1.121.969-1.805 2.413-1.805 1.292 0 2.242.437 3.059 1.159l.836-1.026c-.912-.912-2.28-1.54-3.838-1.54-2.375 0-4.085 1.407-4.085 3.307 0 1.843 1.444 2.717 2.679 3.21l1.805.799c1.254.532 2.223.912 2.223 2.242 0 1.14-.988 1.957-2.698 1.957-1.406 0-2.698-.608-3.648-1.54l-.95 1.103c1.12 1.12 2.698 1.843 4.522 1.843zm15.136-5.91v-1.177h-8.17v1.178h8.17zm4.894 5.682v-4.94h2.166c2.736 0 4.617-1.216 4.617-3.857 0-2.736-1.862-3.667-4.617-3.667h-3.762v12.464h1.596zm1.976-6.232h-1.976v-4.94h1.976c2.147 0 3.211.589 3.211 2.375 0 1.767-1.045 2.565-3.21 2.565zm8.752 6.232v-5.852h5.168v5.852h1.615v-12.464h-1.615v5.206h-5.168v-5.206h-1.615v12.464h1.615zm10.252 0 1.188-3.78h4.523l1.167 3.78h1.71l-4.199-12.464h-1.824l-4.199 12.464h1.634zm5.312-5.073h-3.718l.591-1.881c.437-1.387.836-2.755 1.235-4.2h.076c.38 1.445.798 2.813 1.235 4.2l.581 1.88zm9.406 5.3c2.736 0 4.408-1.576 4.408-3.552 0-1.843-1.216-2.717-2.755-3.325l-1.748-.78c-1.064-.417-2.223-.854-2.223-2.051 0-1.121.969-1.805 2.413-1.805 1.292 0 2.242.437 3.059 1.159l.836-1.026c-.912-.912-2.28-1.54-3.838-1.54-2.375 0-4.085 1.407-4.085 3.307 0 1.843 1.444 2.717 2.679 3.21l1.805.799c1.254.532 2.223.912 2.223 2.242 0 1.14-.988 1.957-2.698 1.957-1.406 0-2.698-.608-3.648-1.54l-.95 1.103c1.12 1.12 2.698 1.843 4.522 1.843zm15.42-.227v-1.35h-6.308v-4.521h5.168v-1.35h-5.168v-3.894h6.118v-1.35h-7.714v12.465h7.904zm21.816 0v-1.35h-3.097v-9.765h3.097v-1.35h-7.79v1.35h3.097v9.766h-3.097v1.349h7.79z" fill="#231F20" fill-rule="nonzero"/>
            <circle fill="#72F596" cx="99.446" cy="54.651" r="16.965"/>
            <circle fill="#72F596" cx="223.965" cy="346.451" r="16.965"/>
            <circle fill="#D1D3D4" cx="223.965" cy="636.943" r="16.965"/>
            <circle fill="#D1D3D4" cx="483.965" cy="636.943" r="16.965"/>
            <circle fill="#D1D3D4" cx="743.965" cy="636.943" r="16.965"/>
            <circle fill="#D1D3D4" cx="1003.965" cy="636.943" r="16.965"/>
            <circle fill="#72F596" cx="483.965" cy="346.451" r="16.965"/>
            <circle fill="#72F596" cx="743.965" cy="346.451" r="16.965"/>
            <circle fill="#72F596" cx="1003.965" cy="346.451" r="16.965"/>
            <circle fill="#72F596" cx="325.648" cy="54.651" r="16.965"/>
            <circle fill="#72F596" cx="551.849" cy="54.651" r="16.965"/>
            <circle fill="#72F596" cx="778.051" cy="54.651" r="16.965"/>
            <circle fill="#72F596" cx="1004.253" cy="54.651" r="16.965"/>
            <path d="M749.086 110v-1.349h-3.097v-9.766h3.097v-1.349h-7.79v1.349h3.097v9.766h-3.097V110h7.79zm11.62 0v-1.349h-6.308v-4.522h5.168v-1.349h-5.168v-3.895h6.118v-1.349h-7.713V110h7.904zm6.776.228c2.812 0 4.788-2.432 4.788-6.517 0-4.028-1.976-6.403-4.788-6.403-2.812 0-4.788 2.375-4.788 6.403 0 4.085 1.976 6.517 4.788 6.517zm0-1.406c-1.881 0-3.135-1.919-3.135-5.111 0-3.135 1.254-4.997 3.135-4.997 1.88 0 3.135 1.862 3.135 4.997 0 3.192-1.254 5.111-3.135 5.111zm8.732 4.218 6.232-16.53h-1.406l-6.232 16.53h1.406zm17.454-3.04v-1.349h-3.097v-9.766h3.097v-1.349h-7.79v1.349h3.097v9.766h-3.097V110h7.79zm6.357 0c3.667 0 5.7-2.318 5.7-6.289 0-3.952-2.033-6.175-5.776-6.175h-3.078V110h3.154zm-.19-1.311h-1.368v-9.842h1.368c2.831 0 4.237 1.729 4.237 4.864 0 3.154-1.406 4.978-4.237 4.978zm12.228 1.539c2.813 0 4.788-2.432 4.788-6.517 0-4.028-1.976-6.403-4.788-6.403-2.812 0-4.788 2.375-4.788 6.403 0 4.085 1.976 6.517 4.788 6.517zm0-1.406c-1.88 0-3.135-1.919-3.135-5.111 0-3.135 1.255-4.997 3.135-4.997 1.881 0 3.135 1.862 3.135 4.997 0 3.192-1.254 5.111-3.135 5.111zM704.51 134l1.216-5.016c.19-.76.304-1.482.437-2.242h.057c.114.76.266 1.482.456 2.242l1.216 5.016h1.976l1.824-12.483h-1.71l-.874 7.847c-.114 1.026-.152 1.634-.228 2.869h-.076c-.228-1.235-.342-1.843-.608-2.869l-1.178-4.636h-1.52l-1.216 4.636a46.193 46.193 0 0 0-.608 2.869h-.057c-.057-1.235-.133-1.843-.247-2.888l-.912-7.828h-1.786l1.9 12.483h1.938zm9.34 0 1.188-3.78h4.523l1.168 3.78h1.71l-4.2-12.464h-1.823l-4.2 12.464h1.635zm5.312-5.073h-3.718l.592-1.881c.437-1.387.836-2.755 1.235-4.199h.076c.38 1.444.798 2.812 1.235 4.199l.58 1.881zm13.89 5.073v-1.349h-6.156v-11.115h-1.577V134h7.733zm11.145 0v-1.349h-6.156v-11.115h-1.577V134h7.733zm10.937 0v-1.349h-6.308v-4.522h5.168v-1.349h-5.168v-3.895h6.118v-1.349h-7.714V134h7.904zm7.573 0v-11.115h4.123v-1.349h-9.842v1.349h4.123V134h1.596zm21.512.228c2.432 0 4.18-1.368 4.18-4.94v-7.752h-1.539v7.79c0 2.565-1.14 3.496-2.641 3.496-1.482 0-2.603-.931-2.603-3.496v-7.79h-1.615v7.752c0 3.572 1.767 4.94 4.218 4.94zm8.96-.228v-4.94h2.166c2.736 0 4.617-1.216 4.617-3.857 0-2.736-1.862-3.667-4.617-3.667h-3.762V134h1.596zm1.976-6.232h-1.976v-4.94h1.976c2.147 0 3.211.589 3.211 2.375 0 1.767-1.045 2.565-3.21 2.565zm12.039 6.46c1.615 0 2.945-.646 3.724-1.444v-5.244h-3.952v1.311h2.47v3.249c-.456.456-1.273.722-2.147.722-2.432 0-3.82-1.957-3.82-5.092 0-3.097 1.52-5.016 3.858-5.016 1.197 0 1.938.494 2.527 1.121l.912-1.007c-.703-.741-1.786-1.52-3.44-1.52-3.23 0-5.528 2.432-5.528 6.46 0 4.066 2.26 6.46 5.396 6.46zm8.238-.228v-5.263h2.206l3 5.263h1.805l-3.163-5.441.133-.034c1.611-.444 2.67-1.588 2.67-3.474 0-2.603-1.844-3.515-4.37-3.515h-3.896V134h1.615zm2.052-6.555h-2.052v-4.617h2.052c1.938 0 3.002.589 3.002 2.223 0 1.596-1.064 2.394-3.002 2.394zm7.82 6.555 1.188-3.78h4.523l1.168 3.78h1.71l-4.2-12.464h-1.823L823.67 134h1.635zm5.312-5.073h-3.718l.592-1.881c.437-1.387.836-2.755 1.235-4.199h.076c.38 1.444.798 2.812 1.235 4.199l.58 1.881zm8.418 5.073c3.667 0 5.7-2.318 5.7-6.289 0-3.952-2.033-6.175-5.776-6.175h-3.078V134h3.154zm-.19-1.311h-1.368v-9.842h1.368c2.831 0 4.237 1.729 4.237 4.864 0 3.154-1.406 4.978-4.237 4.978zM855.442 134v-1.349h-6.308v-4.522h5.168v-1.349h-5.168v-3.895h6.118v-1.349h-7.714V134h7.904z" fill="#231F20" fill-rule="nonzero"/>
        </g>
        <path d="m115.365 63.053-8.175-8.176 1.658-1.718 6.517 6.517 12.678-12.619 1.66 1.66zM341.567 63.053l-8.176-8.176 1.66-1.718 6.516 6.517 12.678-12.619 1.659 1.66zM567.769 63.053l-8.176-8.176 1.659-1.718 6.517 6.517 12.678-12.619 1.658 1.66zM793.97 63.053l-8.175-8.176 1.658-1.718 6.517 6.517 12.678-12.619 1.66 1.66zM1020.172 63.053l-8.176-8.176 1.66-1.718 6.516 6.517 12.678-12.619 1.659 1.66zM1020.172 353.722l-8.176-8.175 1.66-1.718 6.516 6.516 12.678-12.618 1.659 1.658z" fill="#000" fill-rule="nonzero"/>
        <g fill="#000" fill-rule="nonzero">
            <path d="M760.176 353.722 752 345.547l1.659-1.718 6.517 6.516 12.678-12.618 1.658 1.658zM499.176 353.722 491 345.547l1.659-1.718 6.517 6.516 12.678-12.618 1.658 1.658zM240.176 353.722 232 345.547l1.659-1.718 6.517 6.516 12.678-12.618 1.658 1.658z"/>
        </g>
        <path stroke="#72F596" stroke-width="5" stroke-linecap="round" stroke-linejoin="round" d="m1192.56 181 20.014 23.776L1230.55 181"/>
        <path stroke="#D1D3D4" stroke-width="5" stroke-linecap="round" stroke-linejoin="round" d="m3 465 17.013 23.776L40.905 465"/>
    </g>
</svg>
