<svg xmlns="http://www.w3.org/2000/svg" width="378.621" height="423.757" viewBox="0 0 378.621 423.757">
    <g data-name="组 978">
        <g data-name="组 965">
            <path d="M334.568 208h-231.31a46.524 46.524 0 0 0 0 93.047h231.31" transform="translate(-38.635 .665)" style="stroke:#a7a9ac;fill:none;stroke-linecap:round;stroke-width:4px;fill-rule:evenodd"/>
            <path d="M353.522 21.307h-307a46.524 46.524 0 1 0 0 93.047h241.251a46.795 46.795 0 1 1 0 93.59H53.831" transform="translate(23.099 .665)" style="stroke:#56ff97;fill:none;stroke-linecap:round;stroke-width:4px;fill-rule:evenodd"/>
            <path data-name="路径-12备份" d="M56.734 208h231.31a46.524 46.524 0 0 1 0 93.047H-19.365" transform="translate(21.365 93.768)" style="stroke:#a7a9ac;fill:none;stroke-linecap:round;stroke-width:4px;fill-rule:evenodd"/>
        </g>
        <g data-name="组 951" transform="translate(49.935 -3855.123)">
            <circle data-name="椭圆 170" cx="7" cy="7" transform="translate(238.449 3870.096)" style="fill:#56ff97" r="7"/>
            <path data-name="路径 3499" d="M245.673 3881.8a.573.573 0 0 1-.4-.158l-2.185-2.105a.527.527 0 0 1 0-.765.576.576 0 0 1 .793 0l1.721 1.659 3.713-4.907a.574.574 0 0 1 .784-.118.528.528 0 0 1 .123.755l-4.1 5.417a.567.567 0 0 1-.41.22z" transform="translate(-1.382 -1.607)" style="fill:#231f20"/>
        </g>
        <g data-name="组 970" transform="translate(49.935 -3762.29)">
            <circle data-name="椭圆 170" cx="7" cy="7" transform="translate(238.449 3870.096)" style="fill:#56ff97" r="7"/>
            <path data-name="路径 3499" d="M245.673 3881.8a.573.573 0 0 1-.4-.158l-2.185-2.105a.527.527 0 0 1 0-.765.576.576 0 0 1 .793 0l1.721 1.659 3.713-4.907a.574.574 0 0 1 .784-.118.528.528 0 0 1 .123.755l-4.1 5.417a.567.567 0 0 1-.41.22z" transform="translate(-1.382 -1.607)" style="fill:#231f20"/>
        </g>
        <g data-name="组 971" transform="translate(49.935 -3667.971)">
            <circle data-name="椭圆 170" cx="7" cy="7" transform="translate(238.449 3870.096)" style="fill:#56ff97" r="7"/>
            <path data-name="路径 3499" d="M245.673 3881.8a.573.573 0 0 1-.4-.158l-2.185-2.105a.527.527 0 0 1 0-.765.576.576 0 0 1 .793 0l1.721 1.659 3.713-4.907a.574.574 0 0 1 .784-.118.528.528 0 0 1 .123.755l-4.1 5.417a.567.567 0 0 1-.41.22z" transform="translate(-1.382 -1.607)" style="fill:#231f20"/>
        </g>
        <g data-name="组 974" transform="translate(49.935 -3575.652)">
            <circle data-name="椭圆 170" cx="7" cy="7" transform="translate(238.449 3870.096)" style="fill:#a7a9ac" r="7"/>
        </g>
        <g data-name="组 977" transform="translate(49.935 -3483.332)">
            <circle data-name="椭圆 170" cx="7" cy="7" transform="translate(238.449 3870.096)" style="fill:#a7a9ac" r="7"/>
        </g>
        <g data-name="组 966" transform="translate(-55.065 -3855.123)">
            <circle data-name="椭圆 170" cx="7" cy="7" transform="translate(238.449 3870.096)" style="fill:#56ff97" r="7"/>
            <path data-name="路径 3499" d="M245.673 3881.8a.573.573 0 0 1-.4-.158l-2.185-2.105a.527.527 0 0 1 0-.765.576.576 0 0 1 .793 0l1.721 1.659 3.713-4.907a.574.574 0 0 1 .784-.118.528.528 0 0 1 .123.755l-4.1 5.417a.567.567 0 0 1-.41.22z" transform="translate(-1.382 -1.607)" style="fill:#231f20"/>
        </g>
        <g data-name="组 969" transform="translate(-55.065 -3762.29)">
            <circle data-name="椭圆 170" cx="7" cy="7" transform="translate(238.449 3870.096)" style="fill:#56ff97" r="7"/>
            <path data-name="路径 3499" d="M245.673 3881.8a.573.573 0 0 1-.4-.158l-2.185-2.105a.527.527 0 0 1 0-.765.576.576 0 0 1 .793 0l1.721 1.659 3.713-4.907a.574.574 0 0 1 .784-.118.528.528 0 0 1 .123.755l-4.1 5.417a.567.567 0 0 1-.41.22z" transform="translate(-1.382 -1.607)" style="fill:#231f20"/>
        </g>
        <g data-name="组 972" transform="translate(-55.065 -3667.971)">
            <circle data-name="椭圆 170" cx="7" cy="7" transform="translate(238.449 3870.096)" style="fill:#56ff97" r="7"/>
        </g>
        <g data-name="组 975" transform="translate(-55.065 -3575.652)">
            <circle data-name="椭圆 170" cx="7" cy="7" transform="translate(238.449 3870.096)" style="fill:#a7a9ac" r="7"/>
        </g>
        <path data-name="路径 3499" d="M245.673 3881.8a.573.573 0 0 1-.4-.158l-2.185-2.105a.527.527 0 0 1 0-.765.576.576 0 0 1 .793 0l1.721 1.659 3.713-4.907a.574.574 0 0 1 .784-.118.528.528 0 0 1 .123.755l-4.1 5.417a.567.567 0 0 1-.41.22z" transform="translate(-56.448 -3669.578)" style="fill:#231f20"/>
        <g data-name="组 967" transform="translate(-160.065 -3855.123)">
            <circle data-name="椭圆 170" cx="7" cy="7" transform="translate(238.449 3870.096)" style="fill:#56ff97" r="7"/>
            <path data-name="路径 3499" d="M245.673 3881.8a.573.573 0 0 1-.4-.158l-2.185-2.105a.527.527 0 0 1 0-.765.576.576 0 0 1 .793 0l1.721 1.659 3.713-4.907a.574.574 0 0 1 .784-.118.528.528 0 0 1 .123.755l-4.1 5.417a.567.567 0 0 1-.41.22z" transform="translate(-1.382 -1.607)" style="fill:#231f20"/>
        </g>
        <g data-name="组 968" transform="translate(-160.065 -3762.29)">
            <circle data-name="椭圆 170" cx="7" cy="7" transform="translate(238.449 3870.096)" style="fill:#56ff97" r="7"/>
            <path data-name="路径 3499" d="M245.673 3881.8a.573.573 0 0 1-.4-.158l-2.185-2.105a.527.527 0 0 1 0-.765.576.576 0 0 1 .793 0l1.721 1.659 3.713-4.907a.574.574 0 0 1 .784-.118.528.528 0 0 1 .123.755l-4.1 5.417a.567.567 0 0 1-.41.22z" transform="translate(-1.382 -1.607)" style="fill:#231f20"/>
        </g>
        <g data-name="组 973" transform="translate(-160.065 -3667.971)">
            <circle data-name="椭圆 170" cx="7" cy="7" transform="translate(238.449 3870.096)" style="fill:#56ff97" r="7"/>
        </g>
        <g data-name="组 976" transform="translate(-160.065 -3575.652)">
            <circle data-name="椭圆 170" cx="7" cy="7" transform="translate(238.449 3870.096)" style="fill:#a7a9ac" r="7"/>
        </g>
        <path d="m7.86 0 1.8-1.8v-4.8l-1.8-1.8H1.02V0zm-4.2-6.24h2.82l.54.54v3l-.54.54H3.66zM19.26 0v-2.16H14.1V-3.3h3.72v-1.92H14.1v-1.02h5.04V-8.4h-7.68V0zm8.64 0v-2.16h-4.44l-.54-.54v-3l.54-.54h4.44V-8.4h-5.82l-1.8 1.8v4.8l1.8 1.8z" transform="translate(281.384 8.4)" style="opacity:.7;fill:#fff"/>
        <path data-name="路径 3499" d="M245.673 3881.8a.573.573 0 0 1-.4-.158l-2.185-2.105a.527.527 0 0 1 0-.765.576.576 0 0 1 .793 0l1.721 1.659 3.713-4.907a.574.574 0 0 1 .784-.118.528.528 0 0 1 .123.755l-4.1 5.417a.567.567 0 0 1-.41.22z" transform="translate(-161.519 -3669.578)" style="fill:#231f20"/>
        <path data-name="OCTOBER" d="M3.54 0v-5.28h.24L5.34-.9h2.28l1.56-4.38h.24V0h2.52v-8.4H8.184L6.648-4.02H6.36L4.824-8.4H1.02V0zm12.852-8.4L13.14-.72V0h2.508l.528-1.38h3.9L20.592 0h2.568v-.72L19.968-8.4zM18-6.12h.3l.972 2.58H17zM28.32 0v-2.448l3.24-5.232v-.72h-2.34l-1.992 3.36h-.336L24.9-8.4h-2.46v.72l3.24 5.232V0z" transform="translate(281.384 101.233)" style="opacity:.7;fill:#fff"/>
        <path data-name="OCTOBER" d="m-14.28 0 1.86-1.86V-8.4h-5.76v2.16h3.12v3.48l-.48.48h-3.06V0zm10.02 0 1.92-1.92V-8.4h-2.64v5.58l-.54.54h-1.92l-.54-.54V-8.4h-2.64v6.48L-8.7 0zm6.3 0v-5.52h.24L4.86 0H8.7v-8.4H6.24v5.52H6L3.42-8.4H-.42V0zm16.5 0v-2.16h-5.16V-3.3h3.72v-1.92h-3.72v-1.02h5.04V-8.4h-7.68V0z" transform="translate(295.384 195.552)" style="opacity:.7;fill:#fff"/>
        <path data-name="OCTOBER" d="M-12.12 0v-5.52h.24L-9.3 0h3.84v-8.4h-2.46v5.52h-.24l-2.58-5.52h-3.84V0zM3.54 0l1.8-1.8v-4.8l-1.8-1.8h-5.4l-1.8 1.8v4.8l1.8 1.8zm-4.56-2.7v-3l.54-.54h2.64l.54.54v3l-.54.54H-.48zM12.744 0l2.676-7.68v-.72h-2.412l-2.04 6h-.408l-2.028-6H6.06v.72L8.784 0z" transform="translate(295.384 287.871)" style="opacity:.7;fill:#fff"/>
        <path data-name="OCTOBER" d="m-6.33 0 1.8-1.8v-4.8l-1.8-1.8h-6.84V0zm-4.2-6.24h2.82l.54.54v3l-.54.54h-2.82zM5.07 0v-2.16H-.09V-3.3h3.72v-1.92H-.09v-1.02h5.04V-8.4h-7.68V0zm8.64 0v-2.16H9.27l-.54-.54v-3l.54-.54h4.44V-8.4H7.89l-1.8 1.8v4.8L7.89 0z" transform="translate(295.384 380.191)" style="opacity:.7;fill:#fff"/>
        <path data-name="OCTOBER" d="M-11.778-8.4-15.03-.72V0h2.508l.528-1.38h3.9L-7.578 0h2.568v-.72L-8.2-8.4zm1.608 2.28h.3l.97 2.58h-2.268zm9 6.12v-2.1h4.02l1.56-1.56v-3.18L2.85-8.4h-6.66V0zm0-6.24h2.58l.36.36v1.26l-.36.36h-2.58zM8.61 0v-2.4h1.656L11.958 0h2.592v-.72L13.026-2.8l1.284-1.28v-2.76L12.75-8.4H5.97V0zm0-6.3h2.7l.36.36v1.08l-.36.36h-2.7z" transform="translate(190.384 101.233)" style="opacity:.7;fill:#fff"/>
        <path data-name="OCTOBER" d="m-12.15 0 1.86-1.86V-8.4h-5.76v2.16h3.12v3.48l-.48.48h-3.06V0zm10.02 0 1.92-1.92V-8.4h-2.64v5.58l-.54.54h-1.92l-.54-.54V-8.4h-2.64v6.48L-6.57 0zm10.8 0v-2.28H4.35V-8.4H1.71V0zm4.92 0v-2.448l3.24-5.232v-.72h-2.34L12.5-5.04h-.336L10.17-8.4H7.71v.72l3.24 5.232V0z" transform="translate(190.384 195.552)" style="opacity:.7;fill:#fff"/>
        <path data-name="OCTOBER" d="m-6.24 0 1.8-1.8v-4.8l-1.8-1.8h-5.4l-1.8 1.8v4.8l1.8 1.8zm-4.56-2.7v-3l.54-.54h2.64l.54.54v3l-.54.54h-2.64zM4.74 0v-2.16H.3l-.54-.54v-3l.54-.54h4.44V-8.4h-5.82l-1.8 1.8v4.8l1.8 1.8zm6.3 0v-6.24h3.06V-8.4H5.34v2.16H8.4V0z" transform="translate(190.384 287.871)" style="opacity:.7;fill:#fff"/>
        <path data-name="OCTOBER" d="M-10.47 0v-2.58h3.48v-2.04h-3.48v-1.62h4.8V-8.4h-7.44V0zm13.8 0v-2.16h-5.16V-3.3h3.72v-1.92h-3.72v-1.02h5.04V-8.4h-7.68V0zm8.76 0 1.44-1.44v-1.98l-1.2-1.2.78-.78v-1.68L11.79-8.4H4.83V0zM7.47-6.36h2.76l.24.24v.66l-.264.264H7.47zm0 2.964h3.084l.336.336v.66l-.36.36H7.47z" transform="translate(85.384 8.4)" style="opacity:.7;fill:#fff"/>
        <path data-name="OCTOBER" d="M-13.26 0v-5.28h.24l1.56 4.38h2.28l1.56-4.38h.24V0h2.52v-8.4h-3.756l-1.536 4.38h-.288l-1.536-4.38h-3.8V0zM-.408-8.4-3.66-.72V0h2.508l.528-1.38h3.9L3.792 0H6.36v-.72L3.168-8.4zM1.2-6.12h.3l.972 2.58H.2zm9 6.12v-2.4h1.656L13.548 0h2.592v-.72L14.616-2.8 15.9-4.08v-2.76L14.34-8.4H7.56V0zm0-6.3h2.7l.36.36v1.08l-.36.36h-2.7z" transform="translate(85.384 101.233)" style="opacity:.7;fill:#fff"/>
        <path data-name="OCTOBER" d="M-11.838-8.4-15.09-.72V0h2.508l.528-1.38h3.9L-7.638 0h2.568v-.72L-8.262-8.4zm1.608 2.28h.3l.972 2.58h-2.268zM2.13 0l1.92-1.92V-8.4H1.41v5.58l-.54.54h-1.92l-.54-.54V-8.4h-2.64v6.48L-2.31 0zm10.8 0 1.8-1.8v-3.42H9.75v1.86h2.4v.66l-.54.54h-2.7l-.54-.54v-3l.54-.54h4.98V-8.4H7.53l-1.8 1.8v4.8L7.53 0z" transform="translate(85.384 195.552)" style="opacity:.7;fill:#fff"/>
        <path data-name="OCTOBER" d="m-6.84 0 1.5-1.5v-2.16l-1.62-1.62h-3.72l-.24-.24V-6l.24-.24h4.92V-8.4h-6.3l-1.5 1.5v2.16l1.62 1.62h3.72l.24.24v.48l-.24.24h-5.16V0zM3.9 0v-2.16h-5.16V-3.3h3.72v-1.92h-3.72v-1.02h5.04V-8.4H-3.9V0zm4.14 0v-2.1h4.02l1.56-1.56v-3.18L12.06-8.4H5.4V0zm0-6.24h2.58l.36.36v1.26l-.36.36H8.04z" transform="translate(85.384 287.871)" style="opacity:.7;fill:#fff"/>
        <path data-name="路径 3502" d="M178.565 3886.659a.62.62 0 0 1-.439-.182l-8.584-8.584a.627.627 0 0 1-.143-.107.644.644 0 0 1 .143-1.021l8.584-8.584a.621.621 0 0 1 1.06.439v17.418a.621.621 0 0 1-.621.621zm-7.831-9.33 7.21 7.21v-14.421z" transform="translate(164.557 -3854.993)" style="fill:#fff"/>
        <path data-name="路径 3502" d="M178.565 3886.659a.62.62 0 0 1-.439-.182l-8.584-8.584a.627.627 0 0 1-.143-.107.644.644 0 0 1 .143-1.021l8.584-8.584a.621.621 0 0 1 1.06.439v17.418a.621.621 0 0 1-.621.621zm-7.831-9.33 7.21 7.21v-14.421z" transform="translate(-21.443 -3481.993)" style="fill:#fff"/>
        <path data-name="路径 3502" d="M178.565 3883.3a.7.7 0 0 1-.439-.149l-8.584-7.037a.639.639 0 0 1-.143-.088.477.477 0 0 1 0-.749.63.63 0 0 1 .143-.088l8.584-7.037a.724.724 0 0 1 .677-.11.519.519 0 0 1 .383.47v14.28a.519.519 0 0 1-.383.47.739.739 0 0 1-.238.038zm-7.831-7.649 7.21 5.911v-11.823z" transform="rotate(-90 -1805.516 2047.054)" style="fill:#fff"/>
        <path data-name="路径 3502" d="M178.565 3883.3a.7.7 0 0 1-.439-.149l-8.584-7.037a.639.639 0 0 1-.143-.088.477.477 0 0 1 0-.749.63.63 0 0 1 .143-.088l8.584-7.037a.724.724 0 0 1 .677-.11.519.519 0 0 1 .383.47v14.28a.519.519 0 0 1-.383.47.739.739 0 0 1-.238.038zm-7.831-7.649 7.21 5.911v-11.823z" transform="rotate(-90 -1591.016 1927.554)" style="fill:#fff"/>
        <path data-name="路径 3502" d="M178.565 3883.3a.7.7 0 0 1-.439-.149l-8.584-7.037a.639.639 0 0 1-.143-.088.477.477 0 0 1 0-.749.63.63 0 0 1 .143-.088l8.584-7.037a.724.724 0 0 1 .677-.11.519.519 0 0 1 .383.47v14.28a.519.519 0 0 1-.383.47.739.739 0 0 1-.238.038zm-7.831-7.649 7.21 5.911v-11.823z" transform="rotate(-90 -1714.516 2143.054)" style="fill:#fff"/>
        <path data-name="路径 3502" d="M178.565 3883.3a.7.7 0 0 1-.439-.149l-8.584-7.037a.639.639 0 0 1-.143-.088.477.477 0 0 1 0-.749.63.63 0 0 1 .143-.088l8.584-7.037a.724.724 0 0 1 .677-.11.519.519 0 0 1 .383.47v14.28a.519.519 0 0 1-.383.47.739.739 0 0 1-.238.038zm-7.831-7.649 7.21 5.911v-11.823z" transform="rotate(-90 -1497.016 2022.554)" style="fill:#fff"/>
        <path data-name="OCTOBER" d="M-26.7 0v-2.16h-5.46v-.6l.36-.36h3.84l1.32-1.32v-2.64l-1.32-1.32h-6.48v2.16h4.92l.24.24v.6l-.24.24h-3.72L-34.8-3.6V0zm8.16 0 1.8-1.8v-4.8l-1.8-1.8h-4.92l-1.8 1.8v4.8l1.8 1.8zm-4.08-2.7v-3l.54-.54h2.16l.54.54v3l-.54.54h-2.16zM-7.5 0v-2.16h-5.46v-.6l.36-.36h3.84l1.32-1.32v-2.64L-8.76-8.4h-6.48v2.16h4.92l.24.24v.6l-.24.24h-3.72L-15.6-3.6V0zm9.36 0v-2.16H-3.6v-.6l.36-.36H.6l1.32-1.32v-2.64L.6-8.4h-6.48v2.16h4.92l.24.24v.6l-.24.24h-3.72L-6.24-3.6V0zm9.48 0 1.86-1.86V-8.4H7.44v2.16h3.12v3.48l-.48.48H7.02V0zm5.952-8.4L14.04-.72V0h2.508l.528-1.38h3.9L21.492 0h2.568v-.72L20.868-8.4zM18.9-6.12h.3l.972 2.58H17.9zM27.72 0v-5.52h.24L30.54 0h3.84v-8.4h-2.46v5.52h-.24L29.1-8.4h-3.84V0z" transform="translate(190.594 8.4)" style="opacity:.7;fill:#fff"/>
        <path data-name="路径 3534" d="M2.7.108C4.065.108 5.014-1 5.014-2.969c0-1.934-.949-3.023-2.314-3.023S.386-4.9.386-2.969C.386-1 1.335.108 2.7.108zm0-.91c-.749 0-1.237-.78-1.237-2.167 0-1.35.488-2.113 1.237-2.113s1.237.763 1.237 2.113C3.937-1.583 3.449-.8 2.7-.8zM6.192 0h1.047v-2.162h.887c1.27 0 2.243-.593 2.243-1.91 0-1.362-.955-1.813-2.243-1.813H6.192zm1.047-3v-2.048h.8c.855 0 1.293.249 1.293.976S8.917-3 8.043-3zm4.488 3h3.863v-.88h-2.816v-1.739h2.309V-3.5h-2.309V-5H15.5v-.88h-3.773zm5.138 0h1v-2.575c0-.652-.1-1.361-.142-1.987h.025l.534 1.254L19.836 0h1.1v-5.884h-1v2.558c0 .657.1 1.4.142 2h-.025l-.534-1.257-1.556-3.3h-1.1zm10.91 0h1.977c1.3 0 2.24-.55 2.24-1.728 0-.8-.471-1.252-1.322-1.4v-.032a1.286 1.286 0 0 0 1.018-1.277c0-1.078-.875-1.447-2.088-1.447h-1.825zm1.041-3.466v-1.583h.715c.76 0 1.136.2 1.136.738s-.336.846-1.159.846zm0 2.631v-1.836h.828c.88 0 1.325.254 1.325.874 0 .666-.463.962-1.325.962zM33.327 0h3.863v-.88h-2.816v-1.739h2.309V-3.5h-2.309V-5H37.1v-.88h-3.773zm6.65 0h1.047v-5h1.854v-.88h-4.755V-5h1.854zm3.4 0h1.071l.9-3.129c.177-.621.353-1.288.519-1.939h.033c.16.651.348 1.319.526 1.939L47.309 0h1.114l-1.906-5.884h-1.234zm1.132-1.589h2.759v-.827h-2.759z" transform="translate(268.384 41.545)" style="fill:#fff"/>
        <path data-name="路径 3533" d="M-31.818 0h.907v-2.374c0-.619-.092-1.842-.152-2.412h.025l.382 1.367.643 1.859h.593l.648-1.859.392-1.367h.027c-.049.57-.152 1.793-.152 2.412V0h.925v-5.884h-1.159l-.7 2.3-.236.881h-.036l-.242-.881-.7-2.3h-1.159zm7.53.108c1.291 0 2.046-.747 2.046-2.353v-3.639h-1.01v3.716c0 .954-.4 1.365-1.036 1.365s-1.018-.411-1.018-1.365v-3.716h-1.052v3.639c0 1.606.774 2.353 2.07 2.353zM-20.52 0h3.8v-.88h-2.761v-5h-1.039zm6.5 0h1.047v-5h1.854v-.88h-4.754V-5h1.854zm3.983 0h3.882v-.88h-1.422V-5h1.417v-.88h-3.882V-5h1.417v4.12h-1.417zM-4.7-2.6h4v-.75h-4zM3.182.108A2.353 2.353 0 0 0 5.059-.75l-.584-.634A1.56 1.56 0 0 1 3.287-.8c-1 0-1.675-.811-1.675-2.154 0-1.318.672-2.125 1.648-2.125a1.5 1.5 0 0 1 1.1.475l.584-.652a2.365 2.365 0 0 0-1.686-.733A2.749 2.749 0 0 0 .535-2.926C.535-.973 1.724.108 3.182.108zM6.042 0h1.052v-2.607h2.012V0h1.052v-5.884H9.106v2.36H7.094v-2.36H6.042zm4.935 0h1.071l.9-3.129c.177-.621.353-1.288.519-1.939h.033c.16.651.348 1.319.526 1.939L14.909 0h1.114l-1.906-5.884h-1.234zm1.132-1.589h2.759v-.827h-2.759zM16.959 0h3.882v-.88h-1.418V-5h1.417v-.88h-3.881V-5h1.417v4.12h-1.417zm5.306 0h1v-2.575c0-.652-.1-1.361-.142-1.987h.025l.534 1.254L25.236 0h1.1v-5.884h-1v2.558c0 .657.1 1.4.142 2h-.025l-.534-1.257-1.556-3.3h-1.1zM-39.6 11h1.156l.454-2.092c.08-.367.131-.735.181-1.092h.027a10.143 10.143 0 0 0 .182 1.092l.46 2.092h1.18l.795-5.89h-1.054l-.281 3.416c-.034.486-.046.853-.068 1.415h-.036c-.1-.562-.179-.932-.288-1.415l-.462-1.912h-.786l-.483 1.912c-.107.489-.193.86-.288 1.415h-.03c-.017-.555-.04-.923-.074-1.421l-.3-3.411h-1.117zm4.676 0h1.071l.9-3.129c.177-.621.353-1.288.519-1.939h.036c.16.651.348 1.319.526 1.939l.881 3.129h1.114l-1.906-5.884h-1.234zm1.132-1.589h2.759v-.827h-2.759zM-28.62 11h3.8v-.88h-2.761v-5h-1.039zm5.4 0h3.8v-.88h-2.761v-5h-1.039zm5.246 0h3.863v-.88h-2.816V8.381h2.309V7.5h-2.309V6h2.727v-.88h-3.773zm6.65 0h1.047V6h1.854v-.88h-4.754V6h1.854zm11.336.108c1.291 0 2.046-.747 2.046-2.353V5.116H1.049v3.716c0 .954-.4 1.365-1.036 1.365s-1.018-.411-1.018-1.365V5.116h-1.053v3.639c0 1.606.774 2.353 2.07 2.353zM3.492 11h1.047V8.838h.887c1.27 0 2.243-.593 2.243-1.91 0-1.362-.955-1.813-2.243-1.813H3.492zm1.047-3V5.952h.8c.855 0 1.293.249 1.293.976S6.217 8 5.343 8zm6.62 3.106a2.644 2.644 0 0 0 1.8-.7v-2.6H11v.864h1.01v1.271a1.178 1.178 0 0 1-.789.256c-1.036 0-1.6-.811-1.6-2.154 0-1.318.647-2.125 1.583-2.125a1.4 1.4 0 0 1 1.088.475l.584-.652a2.25 2.25 0 0 0-1.676-.733c-1.527 0-2.669 1.132-2.669 3.067.003 1.952 1.137 3.033 2.628 3.033zm3.1-.108h1.052V8.7h.915c1.22 0 2.169-.574 2.169-1.839 0-1.316-.949-1.748-2.169-1.748h-1.97zm1.052-3.135V5.952h.807c.806 0 1.244.236 1.244.911s-.438 1-1.244 1zm.716.557L17.444 11h1.175l-1.836-3.205zm3.05 2.58h1.071l.9-3.129c.177-.621.353-1.288.519-1.939h.033c.16.651.348 1.319.526 1.939L23.009 11h1.114l-1.906-5.884h-1.234zm1.132-1.589h2.759v-.827h-2.759zM25.007 11h1.6c1.681 0 2.723-1.019 2.723-2.969s-1.042-2.915-2.779-2.915h-1.544zm1.047-.849V5.965h.43c1.123 0 1.766.624 1.766 2.066s-.643 2.12-1.766 2.12zm4.573.849h3.863v-.88h-2.816V8.381h2.309V7.5h-2.309V6H34.4v-.88h-3.773z" transform="translate(295.384 134.378)" style="fill:#fff"/>
        <path data-name="路径 3532" d="M-31.818 0h.907v-2.374c0-.619-.092-1.842-.152-2.412h.025l.382 1.367.643 1.859h.593l.648-1.859.392-1.367h.027c-.049.57-.152 1.793-.152 2.412V0h.925v-5.884h-1.159l-.7 2.3-.236.881h-.036l-.242-.881-.7-2.3h-1.159zm7.53.108c1.291 0 2.046-.747 2.046-2.353v-3.639h-1.01v3.716c0 .954-.4 1.365-1.036 1.365s-1.018-.411-1.018-1.365v-3.716h-1.052v3.639c0 1.606.774 2.353 2.07 2.353zM-20.52 0h3.8v-.88h-2.761v-5h-1.039zm6.5 0h1.047v-5h1.854v-.88h-4.754V-5h1.854zm3.983 0h3.882v-.88h-1.422V-5h1.417v-.88h-3.882V-5h1.417v4.12h-1.417zM-4.7-2.6h4v-.75h-4zM3.182.108A2.353 2.353 0 0 0 5.059-.75l-.584-.634A1.56 1.56 0 0 1 3.287-.8c-1 0-1.675-.811-1.675-2.154 0-1.318.672-2.125 1.648-2.125a1.5 1.5 0 0 1 1.1.475l.584-.652a2.365 2.365 0 0 0-1.686-.733A2.749 2.749 0 0 0 .535-2.926C.535-.973 1.724.108 3.182.108zM6.042 0h1.052v-2.607h2.012V0h1.052v-5.884H9.106v2.36H7.094v-2.36H6.042zm4.935 0h1.071l.9-3.129c.177-.621.353-1.288.519-1.939h.033c.16.651.348 1.319.526 1.939L14.909 0h1.114l-1.906-5.884h-1.234zm1.132-1.589h2.759v-.827h-2.759zM16.959 0h3.882v-.88h-1.418V-5h1.417v-.88h-3.881V-5h1.417v4.12h-1.417zm5.306 0h1v-2.575c0-.652-.1-1.361-.142-1.987h.025l.534 1.254L25.236 0h1.1v-5.884h-1v2.558c0 .657.1 1.4.142 2h-.025l-.534-1.257-1.556-3.3h-1.1zm-75.683 11h.907V8.626c0-.619-.092-1.842-.152-2.412h.025l.382 1.367.643 1.859h.593l.648-1.859.392-1.367h.027c-.049.57-.152 1.793-.152 2.412V11h.925V5.116h-1.159l-.7 2.3-.236.881h-.036l-.242-.881-.7-2.3h-1.159zm4.995 0h1.071l.9-3.129c.177-.621.353-1.288.519-1.939h.036c.16.651.348 1.319.526 1.939l.88 3.129h1.114l-1.906-5.884h-1.234zm1.132-1.589h2.759v-.827h-2.759zM-42.444 11h1.052V8.7h.915c1.22 0 2.169-.574 2.169-1.839 0-1.316-.949-1.748-2.169-1.748h-1.967zm1.052-3.135V5.952h.807c.806 0 1.244.236 1.244.911s-.438 1-1.244 1zm.716.557 1.42 2.578h1.175l-1.836-3.205zM-37.062 11H-36V9.261l3.3-4.145h-1.175l-2.1 2.668H-36V5.116h-1.059zm3.38 0h1.169l-2.135-3.822-.622.822zm2.21 0h3.863v-.88h-2.816V8.381h2.309V7.5h-2.309V6h2.725v-.88h-3.773zm6.65 0h1.047V6h1.854v-.88h-4.754V6h1.854zm4.016 0h1.047V8.838h.887c1.27 0 2.243-.593 2.243-1.91 0-1.362-.955-1.813-2.243-1.813h-1.934zm1.047-3V5.952h.8c.855 0 1.293.249 1.293.976S-18.083 8-18.957 8zm4.641 3h3.8v-.88h-2.761v-5h-1.041zm4.5 0h1.071l.9-3.129c.177-.621.353-1.288.519-1.939h.028c.16.651.348 1.319.526 1.939L-6.691 11h1.114l-1.906-5.884h-1.234zm1.132-1.589h2.759v-.827h-2.764zm7.273 1.7a2.353 2.353 0 0 0 1.872-.861l-.584-.634a1.56 1.56 0 0 1-1.188.582c-1 0-1.675-.811-1.675-2.154 0-1.318.672-2.125 1.648-2.125a1.5 1.5 0 0 1 1.1.475l.584-.652a2.365 2.365 0 0 0-1.686-.733 2.749 2.749 0 0 0-2.723 3.065c0 1.953 1.189 3.034 2.647 3.034zM.927 11H4.79v-.88H1.974V8.381h2.309V7.5H1.974V6H4.7v-.88H.927zm12.585.108c1.291 0 2.046-.747 2.046-2.353V5.116h-1.01v3.716c0 .954-.4 1.365-1.036 1.365s-1.018-.411-1.018-1.365V5.116h-1.052v3.639c0 1.606.774 2.353 2.07 2.353zm3.48-.108h1.047V8.838h.887c1.27 0 2.243-.593 2.243-1.91 0-1.362-.955-1.813-2.243-1.813h-1.934zm1.047-3V5.952h.8c.855 0 1.293.249 1.293.976S19.717 8 18.843 8zm6.62 3.106a2.644 2.644 0 0 0 1.8-.7v-2.6H24.5v.864h1.01v1.271a1.178 1.178 0 0 1-.789.256c-1.036 0-1.6-.811-1.6-2.154 0-1.318.647-2.125 1.583-2.125a1.4 1.4 0 0 1 1.088.475l.584-.652a2.25 2.25 0 0 0-1.676-.733c-1.527 0-2.669 1.132-2.669 3.067.003 1.952 1.137 3.033 2.628 3.033zm3.1-.108h1.052V8.7h.915c1.22 0 2.169-.574 2.169-1.839 0-1.316-.949-1.748-2.169-1.748h-1.97zm1.052-3.135V5.952h.807c.806 0 1.244.236 1.244.911s-.438 1-1.244 1zm.716.557L30.944 11h1.175l-1.836-3.205zm3.05 2.58h1.071l.9-3.129c.177-.621.353-1.288.519-1.939h.033c.16.651.348 1.319.526 1.939L36.509 11h1.114l-1.906-5.884h-1.234zm1.132-1.589h2.759v-.827h-2.759zM38.507 11h1.6c1.681 0 2.723-1.019 2.723-2.969s-1.042-2.915-2.779-2.915h-1.544zm1.047-.849V5.965h.43c1.123 0 1.766.624 1.766 2.066s-.643 2.12-1.766 2.12zm4.573.849h3.863v-.88h-2.816V8.381h2.309V7.5h-2.309V6H47.9v-.88h-3.773z" transform="translate(295.384 228.697)" style="fill:#fff"/>
        <path data-name="路径 3529" d="M-34.341 0h3.882v-.88h-1.417V-5h1.417v-.88h-3.882V-5h1.417v4.12h-1.417zm5.306 0h1v-2.575c0-.652-.1-1.361-.142-1.987h.025l.534 1.254L-26.064 0h1.1v-5.884h-1v2.558c0 .657.1 1.4.142 2h-.025l-.534-1.257-1.556-3.3h-1.1zm5.43-2.6h4.005v-.75h-4zm4.882 2.6h1.071l.9-3.129c.177-.621.353-1.288.519-1.939h.036c.16.651.348 1.319.526 1.939l.88 3.129h1.114l-1.906-5.884h-1.234zm1.132-1.589h2.759v-.827h-2.759zM-12.708 0h1.047v-2.162h.887c1.27 0 2.243-.593 2.243-1.91 0-1.362-.955-1.813-2.243-1.813h-1.934zm1.047-3v-2.048h.8c.855 0 1.293.249 1.293.976S-9.983-3-10.857-3zm4.353 3h1.047v-2.162h.887c1.27 0 2.243-.593 2.243-1.91 0-1.362-.955-1.813-2.243-1.813h-1.934zm1.047-3v-2.048h.8c.855 0 1.293.249 1.293.976S-4.583-3-5.457-3zM4.877 0h1.046v-5h1.854v-.88H3.023V-5h1.854zm3.979 0h1.052v-2.3h.915c1.22 0 2.169-.574 2.169-1.839 0-1.316-.949-1.748-2.169-1.748H8.856zm1.052-3.135v-1.913h.807c.806 0 1.244.236 1.244.911s-.438 1-1.244 1zm.716.557L12.044 0h1.175l-1.836-3.205zM13.677 0h1.071l.9-3.129c.177-.621.353-1.288.519-1.939h.033c.16.651.348 1.319.526 1.939L17.609 0h1.114l-1.906-5.884h-1.234zm1.132-1.589h2.759v-.827h-2.759zM19.607 0h1.6c1.681 0 2.723-1.019 2.723-2.969s-1.042-2.915-2.779-2.915h-1.544zm1.047-.849v-4.186h.43c1.123 0 1.766.624 1.766 2.066s-.643 2.12-1.766 2.12zM25.227 0h3.863v-.88h-2.816v-1.739h2.309V-3.5h-2.309V-5H29v-.88h-3.773zm-45.759 11h1.047V8.545h2.311v-.88h-2.311V6h2.719v-.88h-3.766zm7.044.108c1.291 0 2.046-.747 2.046-2.353V5.116h-1.01v3.716c0 .954-.4 1.365-1.036 1.365s-1.018-.411-1.018-1.365V5.116h-1.052v3.639c0 1.606.774 2.353 2.07 2.353zm3.353-.108h1V8.425c0-.652-.1-1.361-.142-1.987h.025l.534 1.254L-7.164 11h1.1V5.116h-1v2.558c0 .657.1 1.4.142 2h-.025l-.534-1.257-1.556-3.3h-1.1zm7.917.108a2.353 2.353 0 0 0 1.877-.858l-.584-.634a1.56 1.56 0 0 1-1.188.582c-1 0-1.675-.811-1.675-2.154 0-1.318.672-2.125 1.648-2.125a1.5 1.5 0 0 1 1.1.475l.584-.652a2.365 2.365 0 0 0-1.686-.733 2.749 2.749 0 0 0-2.723 3.065c0 1.953 1.189 3.034 2.647 3.034zM2.177 11h1.046V6h1.854v-.88H.323V6h1.854zm3.983 0h3.882v-.88H8.623V6h1.417v-.88H6.159V6h1.418v4.12H6.159zm7.341.108c1.365 0 2.314-1.106 2.314-3.077 0-1.934-.949-3.023-2.314-3.023S11.186 6.1 11.186 8.031c0 1.969.949 3.077 2.314 3.077zm0-.91c-.749 0-1.237-.78-1.237-2.167 0-1.35.488-2.113 1.237-2.113s1.237.763 1.237 2.113c-.001 1.386-.489 2.169-1.238 2.169zm3.365.8h1V8.425c0-.652-.1-1.361-.142-1.987h.025l.534 1.254L19.836 11h1.1V5.116h-1v2.558c0 .657.1 1.4.142 2h-.025l-.534-1.257-1.556-3.3h-1.1zM-47.841 22h3.882v-.88h-1.417V17h1.417v-.88h-3.882V17h1.417v4.12h-1.417zm5.306 0h1v-2.575c0-.652-.1-1.361-.142-1.987h.025l.534 1.254L-39.564 22h1.1v-5.884h-1v2.558c0 .657.1 1.4.142 2h-.025l-.534-1.257-1.556-3.3h-1.1zm5.43-2.6h4.005v-.75h-4zm4.881 2.6h1.071l.9-3.129c.177-.621.353-1.288.519-1.939h.036c.16.651.348 1.319.526 1.939l.881 3.129h1.114l-1.906-5.884h-1.234zm1.132-1.589h2.759v-.827h-2.759zM-26.208 22h1.047v-2.162h.887c1.27 0 2.243-.593 2.243-1.91 0-1.362-.955-1.813-2.243-1.813h-1.934zm1.047-3v-2.048h.8c.855 0 1.293.249 1.293.976S-23.483 19-24.357 19zm4.353 3h1.047v-2.162h.887c1.27 0 2.243-.593 2.243-1.91 0-1.362-.955-1.813-2.243-1.813h-1.934zm1.047-3v-2.048h.8c.855 0 1.293.249 1.293.976S-18.083 19-18.957 19zm9.543 3h.907v-2.374c0-.619-.092-1.842-.152-2.412h.025l.382 1.367.643 1.859h.593l.648-1.859.392-1.367h.027c-.049.57-.152 1.793-.152 2.412V22h.925v-5.884h-1.161l-.7 2.3-.236.881h-.036l-.242-.881-.7-2.3h-1.159zm4.995 0h1.071l.9-3.129c.177-.621.353-1.288.519-1.939h.033c.16.651.348 1.319.526 1.939L-1.291 22h1.114l-1.906-5.884h-1.234zm1.132-1.589h2.759v-.827h-2.759zM.756 22h1.052v-2.3h.915c1.22 0 2.169-.574 2.169-1.839 0-1.316-.949-1.748-2.169-1.748H.756zm1.052-3.135v-1.913h.807c.806 0 1.244.236 1.244.911s-.438 1-1.244 1zm.716.557L3.944 22h1.175l-1.836-3.205zM6.138 22H7.2v-1.739l3.3-4.145H9.322l-2.1 2.668H7.2v-2.668H6.138zm3.38 0h1.169l-2.136-3.822L7.93 19zm2.21 0h3.862v-.88h-2.816v-1.739h2.309V18.5h-2.309V17H15.5v-.88h-3.773zm6.65 0h1.047v-5h1.854v-.88h-4.756V17h1.854zm4.016 0h1.047v-2.162h.887c1.27 0 2.243-.593 2.243-1.91 0-1.362-.955-1.813-2.243-1.813h-1.936zm1.047-3v-2.048h.8c.855 0 1.293.249 1.293.976S25.117 19 24.243 19zm4.641 3h3.8v-.88h-2.761v-5H28.08zm4.5 0h1.071l.9-3.129c.177-.621.353-1.288.519-1.939h.028c.16.651.348 1.319.526 1.939L36.509 22h1.114l-1.906-5.884h-1.234zm1.132-1.589h2.759v-.827h-2.764zm7.273 1.7a2.353 2.353 0 0 0 1.877-.858l-.584-.634a1.56 1.56 0 0 1-1.188.582c-1 0-1.675-.811-1.675-2.154 0-1.318.672-2.125 1.648-2.125a1.5 1.5 0 0 1 1.1.475l.584-.652a2.365 2.365 0 0 0-1.686-.733 2.749 2.749 0 0 0-2.725 3.067c-.003 1.948 1.186 3.029 2.644 3.029zm3.14-.111h3.863v-.88h-2.816v-1.739h2.309V18.5h-2.309V17H47.9v-.88h-3.773z" transform="translate(190.384 41.545)" style="fill:#fff"/>
        <path data-name="路径 3528" d="M-37.041 0h3.882v-.88h-1.417V-5h1.417v-.88h-3.882V-5h1.417v4.12h-1.417zm5.306 0h1v-2.575c0-.652-.1-1.361-.142-1.987h.025l.534 1.254L-28.764 0h1.1v-5.884h-1v2.558c0 .657.1 1.4.142 2h-.025l-.534-1.257-1.556-3.3h-1.1zm5.43-2.6h4.005v-.75h-4zm4.882 2.6h1.071l.9-3.129c.177-.621.353-1.288.519-1.939h.036c.16.651.348 1.319.526 1.939l.88 3.129h1.114l-1.906-5.884h-1.234zm1.132-1.589h2.759v-.827h-2.759zM-15.408 0h1.047v-2.162h.887c1.27 0 2.243-.593 2.243-1.91 0-1.362-.955-1.813-2.243-1.813h-1.934zm1.047-3v-2.048h.8c.855 0 1.293.249 1.293.976S-12.683-3-13.557-3zm4.353 3h1.047v-2.162h.887c1.27 0 2.243-.593 2.243-1.91 0-1.362-.955-1.813-2.243-1.813h-1.934zm1.047-3v-2.048h.8c.855 0 1.293.249 1.293.976S-7.283-3-8.157-3zM.9 0h1.157l.453-2.092c.08-.367.131-.735.181-1.092h.027A10.143 10.143 0 0 0 2.9-2.092L3.365 0h1.18l.795-5.89H4.285L4-2.474c-.034.486-.046.853-.068 1.415h-.04c-.1-.562-.179-.932-.288-1.415l-.462-1.911h-.786l-.483 1.911c-.107.489-.193.86-.288 1.415h-.03c-.017-.555-.04-.923-.074-1.421L1.18-5.89H.064zm4.677 0h1.071l.9-3.129c.177-.621.353-1.288.519-1.939H8.1c.16.651.348 1.319.526 1.939L9.509 0h1.114L8.717-5.884H7.483zm1.132-1.589h2.758v-.827H6.709zM11.88 0h3.8v-.88h-2.759v-5H11.88zm5.4 0h3.8v-.88h-2.759v-5H17.28zm5.246 0h3.864v-.88h-2.816v-1.739h2.309V-3.5h-2.309V-5H26.3v-.88h-3.773zm6.65 0h1.047v-5h1.854v-.88h-4.754V-5h1.854zm-45.364 11.108c1.291 0 2.046-.747 2.046-2.353V5.116h-1.01v3.716c0 .954-.4 1.365-1.036 1.365s-1.018-.411-1.018-1.365V5.116h-1.052v3.639c0 1.606.774 2.353 2.07 2.353zm3.48-.108h1.047V8.838h.887c1.27 0 2.243-.593 2.243-1.91 0-1.362-.955-1.813-2.243-1.813h-1.934zm1.047-3V5.952h.8c.855 0 1.293.249 1.293.976S-9.983 8-10.857 8zm6.62 3.106a2.644 2.644 0 0 0 1.8-.7v-2.6H-5.2v.864h1.01v1.271a1.178 1.178 0 0 1-.789.256c-1.036 0-1.6-.811-1.6-2.154 0-1.318.647-2.125 1.583-2.125a1.4 1.4 0 0 1 1.088.475l.584-.652A2.25 2.25 0 0 0-5 5.008c-1.527 0-2.669 1.132-2.669 3.067.003 1.952 1.137 3.033 2.628 3.033zm3.1-.108h1.049V8.7h.915c1.22 0 2.169-.574 2.169-1.839 0-1.316-.949-1.748-2.169-1.748h-1.967zm1.049-3.133V5.952h.807c.806 0 1.244.236 1.244.911s-.438 1-1.244 1zm.716.557L1.244 11h1.175L.583 7.795zM2.877 11h1.071l.9-3.129c.177-.621.353-1.288.519-1.939H5.4c.16.651.348 1.319.526 1.939L6.809 11h1.114L6.017 5.116H4.783zm1.132-1.589h2.758v-.827H4.009zM8.807 11h1.6c1.681 0 2.723-1.019 2.723-2.969s-1.042-2.915-2.779-2.915H8.807zm1.047-.849V5.965h.43c1.123 0 1.766.624 1.766 2.066s-.643 2.12-1.766 2.12zm4.573.849h3.863v-.88h-2.816V8.381h2.309V7.5h-2.309V6H18.2v-.88h-3.773z" transform="translate(190.384 134.378)" style="fill:#fff"/>
        <path data-name="路径 3525" d="M-23.941.108a2.644 2.644 0 0 0 1.8-.7v-2.6H-24.1v.856h1.008v1.271a1.178 1.178 0 0 1-.789.256c-1.036 0-1.6-.811-1.6-2.154 0-1.318.647-2.125 1.583-2.125a1.4 1.4 0 0 1 1.088.475l.584-.652a2.25 2.25 0 0 0-1.674-.727c-1.527 0-2.669 1.132-2.669 3.067.003 1.952 1.137 3.033 2.628 3.033zM-20.673 0h3.863v-.88h-2.816v-1.739h2.309V-3.5h-2.309V-5h2.726v-.88h-3.773zm5.055 0h.907v-2.374c0-.619-.092-1.842-.152-2.412h.025l.382 1.367.643 1.859h.593l.648-1.859.392-1.367h.027c-.049.57-.152 1.793-.152 2.412V0h.925v-5.884h-1.159l-.7 2.3-.236.881h-.036l-.242-.881-.7-2.3h-1.159zm12.933.108C-1.309.108-.5-.689-.5-1.644a1.653 1.653 0 0 0-1.283-1.585l-.772-.336c-.534-.2-1-.372-1-.83 0-.435.376-.687.935-.687a2.085 2.085 0 0 1 1.4.5l.535-.664a2.713 2.713 0 0 0-1.884-.749 1.824 1.824 0 0 0-2.048 1.661 1.7 1.7 0 0 0 1.256 1.561l.809.352c.574.242.977.382.977.907 0 .411-.362.712-1.047.712a2.487 2.487 0 0 1-1.642-.67l-.609.72a3.193 3.193 0 0 0 2.188.86zM2.177 0h1.046v-2.043l1.934-3.841H4.073l-.72 1.574c-.2.456-.413.892-.62 1.36H2.7c-.213-.468-.4-.9-.6-1.36l-.742-1.574H.243l1.934 3.841zm5.938.108c1.375 0 2.181-.8 2.181-1.752a1.653 1.653 0 0 0-1.279-1.585l-.772-.336c-.534-.2-1-.372-1-.83 0-.435.376-.687.935-.687a2.085 2.085 0 0 1 1.4.5l.535-.664a2.713 2.713 0 0 0-1.884-.749 1.824 1.824 0 0 0-2.048 1.661 1.7 1.7 0 0 0 1.256 1.561l.809.352c.574.242.977.382.977.907 0 .411-.362.712-1.047.712a2.487 2.487 0 0 1-1.642-.67l-.609.72a3.193 3.193 0 0 0 2.188.86zM12.977 0h1.047v-5h1.854v-.88h-4.755V-5h1.854zm4.15 0h3.863v-.88h-2.816v-1.739h2.309V-3.5h-2.309V-5H20.9v-.88h-3.773zm5.055 0h.907v-2.374c0-.619-.092-1.842-.152-2.412h.025l.382 1.367.643 1.859h.593l.648-1.859.392-1.367h.027c-.049.57-.152 1.793-.152 2.412V0h.925v-5.884h-1.161l-.7 2.3-.236.881h-.036l-.242-.881-.7-2.3h-1.163z" transform="translate(85.384 41.545)" style="fill:#fff"/>
        <path data-name="路径 3524" d="M-20.841 0h3.882v-.88h-1.417V-5h1.417v-.88h-3.882V-5h1.417v4.12h-1.417zm5.568 0h3.863v-.88h-2.816v-1.739h2.309V-3.5h-2.309V-5h2.726v-.88h-3.773zM-8.1.108C-6.735.108-5.786-1-5.786-2.969c0-1.934-.949-3.023-2.314-3.023s-2.314 1.092-2.314 3.023C-10.414-1-9.465.108-8.1.108zm0-.91c-.749 0-1.237-.78-1.237-2.167 0-1.35.488-2.113 1.237-2.113s1.237.763 1.237 2.113C-6.863-1.583-7.351-.8-8.1-.8zm3.475 2.242h.891l2.959-7.83h-.891zM.759 0h3.882v-.88H3.223V-5h1.418v-.88H.759V-5h1.418v4.12H.759zm5.348 0H7.7c1.681 0 2.723-1.019 2.723-2.969S9.384-5.884 7.648-5.884H6.107zm1.047-.849v-4.186h.43c1.123 0 1.766.624 1.766 2.066s-.643 2.12-1.766 2.12zM13.5.108c1.365 0 2.314-1.106 2.314-3.077 0-1.934-.949-3.023-2.314-3.023S11.186-4.9 11.186-2.969C11.186-1 12.135.108 13.5.108zm0-.91c-.749 0-1.237-.78-1.237-2.167 0-1.35.488-2.113 1.237-2.113s1.237.763 1.237 2.113c0 1.386-.488 2.169-1.237 2.169zM-36.9 11h1.156l.454-2.092c.08-.367.131-.735.181-1.092h.027a10.143 10.143 0 0 0 .182 1.092l.46 2.092h1.18l.795-5.89h-1.054l-.281 3.416c-.034.486-.046.853-.068 1.415h-.036c-.1-.562-.179-.932-.288-1.415l-.462-1.912h-.786l-.483 1.912c-.107.489-.193.86-.288 1.415h-.03c-.017-.555-.04-.923-.074-1.421l-.3-3.411h-1.117zm4.676 0h1.071l.9-3.129c.177-.621.353-1.288.519-1.939h.036c.16.651.348 1.319.526 1.939l.881 3.129h1.114l-1.906-5.884h-1.234zm1.132-1.589h2.759v-.827h-2.759zM-25.92 11h3.8v-.88h-2.761v-5h-1.039zm5.4 0h3.8v-.88h-2.761v-5h-1.039zm5.246 0h3.863v-.88h-2.816V8.381h2.309V7.5h-2.309V6h2.727v-.88h-3.773zm6.65 0h1.047V6h1.854v-.88h-4.754V6h1.854zm11.336.108c1.291 0 2.046-.747 2.046-2.353V5.116H3.749v3.716c0 .954-.4 1.365-1.036 1.365s-1.019-.411-1.019-1.365V5.116H.642v3.639c0 1.606.774 2.353 2.07 2.353zM6.192 11h1.047V8.838h.887c1.27 0 2.243-.593 2.243-1.91 0-1.362-.955-1.813-2.243-1.813H6.192zm1.047-3V5.952h.8c.855 0 1.293.249 1.293.976S8.917 8 8.043 8zm6.62 3.106a2.644 2.644 0 0 0 1.8-.7v-2.6H13.7v.864h1.01v1.271a1.178 1.178 0 0 1-.789.256c-1.036 0-1.6-.811-1.6-2.154 0-1.318.647-2.125 1.583-2.125a1.4 1.4 0 0 1 1.088.475l.584-.652a2.25 2.25 0 0 0-1.676-.733c-1.527 0-2.669 1.132-2.669 3.067.003 1.952 1.137 3.033 2.628 3.033zm3.1-.108h1.052V8.7h.915c1.22 0 2.169-.574 2.169-1.839 0-1.316-.949-1.748-2.169-1.748h-1.97zm1.052-3.135V5.952h.807c.806 0 1.244.236 1.244.911s-.438 1-1.244 1zm.716.557L20.144 11h1.175l-1.836-3.205zm3.05 2.58h1.071l.9-3.129c.177-.621.353-1.288.519-1.939h.033c.16.651.348 1.319.526 1.939L25.709 11h1.114l-1.906-5.884h-1.234zm1.132-1.589h2.759v-.827h-2.759zM27.707 11h1.6c1.681 0 2.723-1.019 2.723-2.969s-1.042-2.915-2.779-2.915h-1.544zm1.047-.849V5.965h.43c1.123 0 1.766.624 1.766 2.066s-.643 2.12-1.766 2.12zm4.573.849h3.863v-.88h-2.816V8.381h2.309V7.5h-2.309V6H37.1v-.88h-3.773z" transform="translate(85.384 134.378)" style="fill:#fff"/>
        <path data-name="路径 3565" d="M-24.151.12c1.289 0 2.364-.684 2.364-1.827a1.732 1.732 0 0 0-1.539-1.6v-.04C-22.543-3.616-22-4.1-22-4.841c0-1.052-.923-1.652-2.172-1.652a3.164 3.164 0 0 0-2.07.8l.518.617a2.33 2.33 0 0 1 1.512-.618c.72 0 1.207.355 1.207.922 0 .627-.55 1.1-1.991 1.1v.736c1.621 0 2.207.467 2.207 1.175C-22.791-1.1-23.4-.7-24.225-.7a2.533 2.533 0 0 1-1.757-.722l-.487.641a3.126 3.126 0 0 0 2.318.901zm4.064-.12h1.012v-2.66h1.107c1.343 0 2.356-.634 2.356-1.992 0-1.417-1.013-1.9-2.356-1.9h-2.119zm1.012-3.467v-2.275h.987c.957 0 1.479.286 1.479 1.09 0 .788-.523 1.185-1.479 1.185zm.911.536L-16.521 0h1.131l-2.02-3.5zM-14.173 0h1.718c1.9 0 3.013-1.175 3.013-3.3s-1.115-3.244-3.064-3.244h-1.667zm1-.819V-5.73h.6c1.367 0 2.094.8 2.094 2.426s-.727 2.486-2.094 2.486zM-2.087 0h1.012v-2.66H.033c1.343 0 2.356-.634 2.356-1.992 0-1.417-1.013-1.9-2.356-1.9h-2.12zm1.012-3.467v-2.275h.987c.957 0 1.479.286 1.479 1.09 0 .788-.523 1.185-1.479 1.185zm.911.536L1.479 0H2.61L.59-3.5zM4.084 0h4.227v-.846H5.088V-3H7.73v-.846H5.088V-5.7h3.123v-.846H4.084zm5.168 0h1.028l1.072-3.567c.213-.709.416-1.441.613-2.182H12c.189.741.4 1.473.616 2.182L13.676 0h1.072l-2.163-6.549h-1.17zm1.215-1.876H13.5v-.8h-3.033zM16.269 0h4.148v-.846h-3.152v-5.7h-1zm5.414 0h.9v-2.953c0-.664-.091-1.906-.155-2.5h.024l.4 1.4.815 2.319h.63l.828-2.319.4-1.4h.03c-.047.6-.155 1.839-.155 2.5V0h.916v-6.549h-1.155l-.855 2.673-.286 1.019h-.04l-.294-1.019-.847-2.673h-1.156zm-53.856 10.056h1.718c1.9 0 3.013-1.175 3.013-3.3s-1.115-3.244-3.064-3.244h-1.667zm1-.819V4.326h.6c1.367 0 2.094.8 2.094 2.426s-.727 2.486-2.094 2.486zm5.253.819h4.227V9.21h-3.223V7.058h2.642v-.847h-2.642V4.354h3.123v-.847h-4.127zm5.355 0h1.067l.9-1.648c.168-.332.334-.664.517-1.064h.04c.211.4.385.732.565 1.064l.909 1.648h1.123l-1.945-3.333 1.819-3.216h-1.067l-.818 1.556c-.154.3-.288.587-.463.982h-.04a32.62 32.62 0 0 0-.523-.982l-.845-1.556h-1.115l1.819 3.168zm12.475 0h1.012V7.4h1.107c1.343 0 2.356-.634 2.356-1.992 0-1.417-1.013-1.9-2.356-1.9h-2.116zm1.012-3.467V4.314h.987c.957 0 1.479.286 1.479 1.09 0 .788-.523 1.185-1.479 1.185zm.911.536 1.643 2.931h1.134l-2.021-3.5zm4.248 2.931h4.23V9.21H-.912V7.058H1.73v-.847H-.912V4.354h3.123v-.847h-4.127zm6.185 0h4.151V9.21H5.265v-5.7h-1zm5.815 0h4.227V9.21h-3.22V7.058h2.642v-.847h-2.642V4.354h3.123v-.847h-4.127zm5.168 0h1.031l1.072-3.567c.213-.709.416-1.441.613-2.182H18c.189.741.4 1.473.616 2.182l1.055 3.567h1.072l-2.158-6.549h-1.17zm1.218-1.876H19.5v-.8h-3.033zm7.566 2c1.485 0 2.372-.858 2.372-1.909a1.844 1.844 0 0 0-1.435-1.76l-.888-.391c-.577-.224-1.142-.431-1.142-1 0-.536.463-.855 1.152-.855a2.31 2.31 0 0 1 1.582.584l.518-.641a2.94 2.94 0 0 0-2.057-.821 1.972 1.972 0 0 0-2.211 1.793 1.877 1.877 0 0 0 1.4 1.712l.924.405c.649.274 1.127.452 1.127 1.092 0 .527-.46.909-1.289.909a2.759 2.759 0 0 1-1.871-.776l-.59.692a3.442 3.442 0 0 0 2.408.962zm4.051-.12h4.227v-.85h-3.223V7.058h2.642v-.847h-2.642V4.354h3.123v-.847h-4.127z" transform="translate(190.423 229.58)" style="fill:#fff"/>
        <path data-name="路径 3566" d="M-44.221 0h.957v-3.141c0-.7-.095-1.447-.134-2.13h.024l.611 1.377L-40.852 0h1.073v-6.549h-.957v3.116c0 .711.095 1.5.134 2.155h-.024l-.611-1.379-1.911-3.892h-1.073zm6.478 0h1v-2.827h2.633v-.846h-2.633V-5.7h3.1v-.846h-4.108zm7.243 0h1v-5.7h2.114v-.846h-5.232v.846h2.118zm10.185 0h.9v-2.953c0-.664-.091-1.906-.155-2.5h.024l.4 1.4.815 2.319h.63l.828-2.319.4-1.4h.03c-.047.6-.155 1.839-.155 2.5V0h.916v-6.549h-1.156l-.855 2.673-.286 1.019h-.04l-.294-1.019-.847-2.673h-1.156zm5.569 0h1.028l1.072-3.567c.213-.709.416-1.441.613-2.182H-12c.189.741.4 1.473.616 2.182L-10.324 0h1.072l-2.163-6.549h-1.169zm1.215-1.876h3.031v-.8h-3.038zM-8.087 0h1.012v-2.66h1.107c1.343 0 2.356-.634 2.356-1.992 0-1.417-1.013-1.9-2.356-1.9h-2.119zm1.012-3.467v-2.275h.987c.957 0 1.479.286 1.479 1.09 0 .788-.523 1.185-1.479 1.185zm.911.536L-4.521 0h1.131l-2.02-3.5zM-2.107 0h1.017v-2.01l3.7-4.539H1.477l-2.536 3.12h-.031v-3.12h-1.017zM1.71 0h1.127L.422-4.283l-.6.787zm2.374 0h4.227v-.846H5.088V-3H7.73v-.846H5.088V-5.7h3.123v-.846H4.084zM11.5 0h1v-5.7h2.114v-.846h-5.23v.846H11.5zm4.451 0h1v-2.5h1.062c1.425 0 2.462-.649 2.462-2.077 0-1.477-1.021-1.973-2.462-1.973h-2.064zm1-3.306v-2.436h.965c1.039 0 1.561.293 1.561 1.166s-.507 1.27-1.561 1.27zM22.269 0h4.148v-.846h-3.152v-5.7h-1zm4.983 0h1.028l1.072-3.567c.213-.709.416-1.441.613-2.182H30c.189.741.4 1.473.616 2.182L31.676 0h1.072l-2.163-6.549h-1.17zm1.215-1.876H31.5v-.8h-3.033zm8.056 2a2.575 2.575 0 0 0 2.058-.952l-.566-.609a1.81 1.81 0 0 1-1.393.683c-1.181 0-1.964-.965-1.964-2.534 0-1.546.783-2.5 1.949-2.5a1.714 1.714 0 0 1 1.271.558l.566-.629a2.544 2.544 0 0 0-1.837-.807c-1.719 0-2.985 1.281-2.985 3.4C33.622-1.11 34.9.12 36.523.12zM40.084 0h4.227v-.846h-3.223V-3h2.642v-.846h-2.642V-5.7h3.123v-.846h-4.127zm-89.815 10.056h4.148V9.21h-3.152v-5.7h-1zm4.983 0h1.028l1.072-3.567c.213-.709.416-1.441.613-2.182H-42c.189.741.4 1.473.616 2.182l1.055 3.567h1.072l-2.163-6.549h-1.169zm1.215-1.876h3.033v-.8h-3.038zm7.545 2c1.358 0 2.237-.776 2.237-2.607V3.507h-.969v4.115c0 1.2-.523 1.676-1.269 1.676s-1.249-.473-1.249-1.676V3.507h-1.012v4.062c.001 1.831.895 2.607 2.262 2.607zm3.767-.12h.957V6.916c0-.7-.095-1.447-.134-2.13h.024l.611 1.377 1.911 3.894h1.073v-6.55h-.957v3.117c0 .711.095 1.5.134 2.155h-.024l-.611-1.379-1.911-3.892h-1.073zm8.744.12a2.575 2.575 0 0 0 2.058-.952l-.566-.609a1.81 1.81 0 0 1-1.393.683c-1.181 0-1.964-.965-1.964-2.534 0-1.546.783-2.5 1.949-2.5a1.714 1.714 0 0 1 1.271.558l.566-.629a2.544 2.544 0 0 0-1.837-.807c-1.719 0-2.985 1.281-2.985 3.4 0 2.156 1.278 3.386 2.901 3.386zm3.228-.12h1.012V7.069h2.474v2.987h1.012V3.507h-1.012v2.68h-2.474v-2.68h-1.012zm6.2 0h1v-2.5h1.062c1.425 0 2.462-.649 2.462-2.077 0-1.477-1.021-1.973-2.462-1.973h-2.066zm1-3.306v-2.44h.965c1.039 0 1.561.293 1.561 1.166s-.507 1.27-1.561 1.27zm4.3 3.306h1.029l1.072-3.567c.213-.709.416-1.441.613-2.182H-6c.189.741.4 1.473.616 2.182l1.055 3.567h1.072l-2.158-6.553h-1.17zm1.216-1.88H-4.5v-.8h-3.033zm5.36 1.876h1.718c1.9 0 3.013-1.175 3.013-3.3S1.443 3.507-.506 3.507h-1.667zm1-.819V4.326h.6c1.367 0 2.094.8 2.094 2.426S.795 9.237-.572 9.237zm11.082.819h1.012V7.4h1.107c1.343 0 2.356-.634 2.356-1.992 0-1.417-1.013-1.9-2.356-1.9H9.913zm1.012-3.467V4.314h.987c.957 0 1.479.286 1.479 1.09 0 .788-.523 1.185-1.479 1.185zm.911.536 1.643 2.931h1.135l-2.021-3.5zm4.248 2.931h4.227V9.21h-3.219V7.058h2.642v-.847h-2.642V4.354h3.123v-.847h-4.127zm6.185 0h4.148V9.21h-3.148v-5.7h-1zm5.815 0h4.227V9.21h-3.219V7.058h2.642v-.847h-2.642V4.354h3.123v-.847h-4.127zm5.168 0h1.032l1.072-3.567c.213-.709.416-1.441.613-2.182H36c.189.741.4 1.473.616 2.182l1.055 3.567h1.072l-2.158-6.549h-1.17zm1.219-1.876H37.5v-.8h-3.033zm7.566 2c1.485 0 2.372-.858 2.372-1.909a1.844 1.844 0 0 0-1.435-1.76l-.888-.391c-.577-.224-1.142-.431-1.142-1 0-.536.463-.855 1.152-.855a2.31 2.31 0 0 1 1.582.584l.518-.641a2.94 2.94 0 0 0-2.057-.821 1.972 1.972 0 0 0-2.211 1.793 1.877 1.877 0 0 0 1.4 1.712l.924.405c.649.274 1.127.452 1.127 1.092 0 .527-.46.909-1.289.909a2.759 2.759 0 0 1-1.871-.776l-.59.692a3.442 3.442 0 0 0 2.408.962zm4.051-.12h4.227v-.85h-3.223V7.058h2.642v-.847h-2.642V4.354h3.123v-.847h-4.127z" transform="translate(85.423 229.58)" style="fill:#fff"/>
        <path data-name="路径 3567" d="M-32.748 0h1.028l1.072-3.567c.213-.709.416-1.441.613-2.182H-30c.189.741.4 1.473.616 2.182L-28.324 0h1.072l-2.163-6.549h-1.169zm1.215-1.876h3.033v-.8h-3.038zm8.056 2a2.575 2.575 0 0 0 2.058-.952l-.566-.609a1.81 1.81 0 0 1-1.393.683c-1.181 0-1.964-.965-1.964-2.534 0-1.546.783-2.5 1.949-2.5a1.714 1.714 0 0 1 1.271.558l.566-.629a2.544 2.544 0 0 0-1.837-.807c-1.719 0-2.985 1.281-2.985 3.4C-26.378-1.11-25.1.12-23.477.12zM-20.249 0h1.012v-2.987h2.474V0h1.012v-6.549h-1.012v2.68h-2.474v-2.68h-1.012zm6.149 0h4.2v-.846h-1.6V-5.7h1.6v-.846h-4.2v.846h1.6v4.854h-1.6zm6.188 0h4.227v-.846h-3.227V-3h2.642v-.846h-2.642V-5.7h3.123v-.846h-4.127zm7.327 0H.6l2.05-6.549H1.623l-.977 3.41C.435-2.384.273-1.747.044-1H0c-.229-.749-.381-1.386-.6-2.141l-.981-3.409h-1.07zm4.669 0h4.227v-.846H5.088V-3H7.73v-.846H5.088V-5.7h3.123v-.846H4.084zm5.6 0h.9v-2.953c0-.664-.091-1.906-.155-2.5h.024l.4 1.4.815 2.319h.63l.828-2.319.4-1.4h.03c-.047.6-.155 1.839-.155 2.5V0h.916v-6.549h-1.156l-.855 2.673-.286 1.019h-.04l-.294-1.019-.847-2.673H9.683zm6.4 0h4.227v-.846h-3.223V-3h2.642v-.846h-2.642V-5.7h3.123v-.846h-4.127zm5.695 0h.957v-3.141c0-.7-.095-1.447-.134-2.13h.024l.611 1.377L25.148 0h1.073v-6.549h-.957v3.116c0 .711.095 1.5.134 2.155h-.024l-.611-1.379-1.911-3.892h-1.073zM29.5 0h1v-5.7h2.114v-.846h-5.23v.846H29.5zm-64.575 10.056h2.105c1.457 0 2.479-.621 2.479-1.92 0-.893-.541-1.405-1.494-1.561v-.04a1.427 1.427 0 0 0 1.141-1.424c0-1.174-.942-1.6-2.285-1.6h-1.946zm1-3.826V4.323h.861c.926 0 1.394.241 1.394.893 0 .668-.411 1.013-1.426 1.013zm0 3.01V7.023h.989c1.062 0 1.619.306 1.619 1.054 0 .813-.581 1.163-1.619 1.163zm4.331.816h1.028l1.072-3.567c.213-.709.416-1.441.613-2.182H-27c.189.741.4 1.473.616 2.182l1.055 3.567h1.072l-2.163-6.549h-1.169zm1.215-1.876h3.029v-.8h-3.038zm5.36 1.876h1.718c1.9 0 3.013-1.175 3.013-3.3s-1.115-3.244-3.064-3.244h-1.667zm1-.819V4.326h.6c1.367 0 2.094.8 2.094 2.426s-.727 2.486-2.094 2.486zm7.554.939a2.847 2.847 0 0 0 1.981-.767V6.585h-2.129v.823h1.209v1.559a1.47 1.47 0 0 1-1 .331c-1.215 0-1.892-.965-1.892-2.534 0-1.546.759-2.5 1.892-2.5a1.63 1.63 0 0 1 1.268.558l.566-.629a2.458 2.458 0 0 0-1.834-.807c-1.7 0-2.938 1.269-2.938 3.4-.002 2.16 1.223 3.39 2.877 3.39zm3.7-.12h4.227V9.21h-3.224V7.058h2.642v-.847h-2.642V4.354h3.123v-.847h-4.127zm13.949.12c1.485 0 2.372-.858 2.372-1.909A1.844 1.844 0 0 0 3.97 6.511l-.888-.391c-.577-.224-1.142-.431-1.142-1 0-.536.463-.855 1.152-.855a2.31 2.31 0 0 1 1.582.584l.518-.641a2.94 2.94 0 0 0-2.057-.821A1.972 1.972 0 0 0 .924 5.18a1.877 1.877 0 0 0 1.4 1.712l.926.408c.649.274 1.127.452 1.127 1.092 0 .527-.46.909-1.289.909a2.759 2.759 0 0 1-1.871-.776l-.59.692a3.442 3.442 0 0 0 2.406.959zm5.465-.12h1v-2.3l2.174-4.244h-1.032L9.767 5.35c-.237.508-.484 1-.729 1.521H9c-.253-.52-.474-1.013-.709-1.521l-.9-1.843H6.324L8.5 7.752zm6.535.12c1.485 0 2.372-.858 2.372-1.909a1.844 1.844 0 0 0-1.436-1.756l-.888-.391c-.577-.224-1.142-.431-1.142-1 0-.536.463-.855 1.152-.855a2.31 2.31 0 0 1 1.582.584l.518-.641a2.94 2.94 0 0 0-2.057-.821 1.972 1.972 0 0 0-2.211 1.793 1.877 1.877 0 0 0 1.4 1.712l.924.405c.649.274 1.127.452 1.127 1.092 0 .527-.46.909-1.289.909a2.759 2.759 0 0 1-1.871-.776l-.59.692a3.442 3.442 0 0 0 2.408.962zm5.465-.12h1v-5.7h2.114v-.849h-5.229v.846H20.5zm4.586 0h4.227V9.21h-3.224V7.058h2.642v-.847h-2.642V4.354h3.123v-.847h-4.127zm5.6 0h.9V7.1c0-.664-.091-1.906-.155-2.5h.024l.4 1.4.815 2.319h.63L34.123 6l.4-1.4h.03c-.047.6-.155 1.839-.155 2.5v2.953h.916V3.507h-1.153l-.855 2.673-.286 1.02h-.04l-.294-1.02-.847-2.673h-1.156z" transform="translate(85.423 321.58)" style="fill:#fff"/>
        <path data-name="路径 3568" d="M-38.317 0h.9v-2.953c0-.664-.091-1.906-.155-2.5h.024l.4 1.4.815 2.319h.63l.828-2.319.4-1.4h.03c-.047.6-.155 1.839-.155 2.5V0h.916v-6.549h-1.156l-.855 2.673-.286 1.019h-.04l-.294-1.019-.847-2.673h-1.156zm5.569 0h1.028l1.072-3.567c.213-.709.416-1.441.613-2.182H-30c.189.741.4 1.473.616 2.182L-28.324 0h1.072l-2.163-6.549h-1.169zm1.215-1.876h3.033v-.8h-3.038zM-26.087 0h1.012v-2.66h1.107c1.343 0 2.356-.634 2.356-1.992 0-1.417-1.013-1.9-2.356-1.9h-2.119zm1.012-3.467v-2.275h.987c.957 0 1.479.286 1.479 1.09 0 .788-.523 1.185-1.479 1.185zm.911.536L-22.521 0h1.131l-2.02-3.5zM-20.748 0h1.028l1.072-3.567c.213-.709.416-1.441.613-2.182H-18c.189.741.4 1.473.616 2.182L-16.324 0h1.072l-2.163-6.549h-1.169zm1.215-1.876h3.033v-.8h-3.038zM-12.5 0h1v-5.7h2.114v-.846h-5.232v.846h2.118zm4.253 0h1.012v-2.987h2.474V0h1.012v-6.549h-1.014v2.68h-2.474v-2.68h-1.012zM0 .12c1.5 0 2.546-1.254 2.546-3.42C2.546-5.439 1.5-6.669 0-6.669S-2.546-5.439-2.546-3.3C-2.546-1.134-1.5.12 0 .12zm0-.878c-.91 0-1.51-.942-1.51-2.542 0-1.573.6-2.486 1.51-2.486s1.51.908 1.51 2.486C1.51-1.7.91-.758 0-.758zM3.779 0h.957v-3.141c0-.7-.095-1.447-.134-2.13h.024l.611 1.377L7.148 0h1.073v-6.549h-.957v3.116c0 .711.095 1.5.134 2.155h-.023l-.612-1.379-1.911-3.892H3.779zm11.9 0h.9v-2.953c0-.664-.091-1.906-.155-2.5h.024l.4 1.4.815 2.319h.63l.828-2.319.4-1.4h.03c-.047.6-.155 1.839-.155 2.5V0h.916v-6.549h-1.151l-.855 2.673-.286 1.019h-.04l-.294-1.019-.847-2.673h-1.156zM24 .12c1.5 0 2.546-1.254 2.546-3.424 0-2.135-1.047-3.364-2.546-3.364S21.454-5.439 21.454-3.3C21.454-1.134 22.5.12 24 .12zm0-.878c-.91 0-1.51-.937-1.51-2.546 0-1.573.6-2.486 1.51-2.486s1.51.913 1.51 2.486c0 1.604-.6 2.546-1.51 2.546zM27.827 0h1.718c1.9 0 3.013-1.175 3.013-3.3s-1.115-3.244-3.064-3.244h-1.667zm1-.819V-5.73h.6c1.367 0 2.094.8 2.094 2.426s-.726 2.485-2.093 2.485zM34.084 0h4.227v-.846h-3.223V-3h2.642v-.846h-2.642V-5.7h3.123v-.846h-4.127zm-44.827 10.056h1V7.229h2.633v-.846h-2.629V4.354h3.1v-.847h-4.108zm7.743.12c1.5 0 2.546-1.254 2.546-3.424C-.454 4.617-1.5 3.387-3 3.387s-2.546 1.23-2.546 3.365c0 2.17 1.046 3.424 2.546 3.424zm0-.876c-.91 0-1.51-.937-1.51-2.546 0-1.573.6-2.486 1.51-2.486s1.51.913 1.51 2.486C-1.49 8.361-2.09 9.3-3 9.3zm3.683.758h.9V7.1c0-.664-.091-1.906-.155-2.5h.024L1.85 6l.815 2.32h.63L4.123 6l.4-1.4h.03c-.044.6-.153 1.839-.153 2.5v2.953h.916V3.507H4.161L3.306 6.18 3.02 7.2h-.04l-.294-1.02-.847-2.673H.683zM9 10.176c1.5 0 2.546-1.254 2.546-3.424 0-2.135-1.046-3.365-2.546-3.365s-2.546 1.23-2.546 3.365c0 2.17 1.046 3.424 2.546 3.424zM9 9.3c-.91 0-1.51-.937-1.51-2.546 0-1.573.6-2.486 1.51-2.486s1.51.913 1.51 2.486C10.51 8.361 9.91 9.3 9 9.3z" transform="translate(189.884 321.58)" style="fill:#fff"/>
        <path data-name="路径 3569" d="M-32.967.12c1.485 0 2.372-.858 2.372-1.909a1.844 1.844 0 0 0-1.435-1.756l-.888-.391c-.577-.224-1.142-.431-1.142-1 0-.536.463-.855 1.152-.855a2.31 2.31 0 0 1 1.582.584l.518-.641a2.94 2.94 0 0 0-2.057-.821 1.972 1.972 0 0 0-2.212 1.792 1.877 1.877 0 0 0 1.4 1.712l.924.405c.649.274 1.127.452 1.127 1.092 0 .527-.46.909-1.289.909a2.759 2.759 0 0 1-1.871-.776l-.59.692a3.442 3.442 0 0 0 2.409.963zM-27.5 0h1v-5.7h2.114v-.846h-5.232v.846h2.118zm4.586 0h4.227v-.846h-3.223V-3h2.642v-.846h-2.642V-5.7h3.123v-.846h-4.127zm5.865 0h1v-2.5h1.062c1.425 0 2.462-.649 2.462-2.077 0-1.477-1.021-1.973-2.462-1.973h-2.066zm1-3.306v-2.436h.965c1.039 0 1.561.293 1.561 1.166s-.507 1.27-1.561 1.27zM-11.221 0h.957v-3.141c0-.7-.095-1.447-.134-2.13h.024l.611 1.377L-7.852 0h1.073v-6.549h-.957v3.116c0 .711.095 1.5.134 2.155h-.024l-.611-1.379-1.911-3.892h-1.073zM.925 0H3.03c1.457 0 2.479-.621 2.479-1.92 0-.893-.541-1.405-1.494-1.561v-.04a1.427 1.427 0 0 0 1.141-1.424c0-1.174-.942-1.6-2.285-1.6H.925zm1-3.826v-1.907h.861c.926 0 1.394.241 1.394.893 0 .668-.411 1.013-1.426 1.013zm0 3.01v-2.217h.985c1.062 0 1.619.306 1.619 1.054 0 .813-.581 1.163-1.619 1.163zM6.913 0h1.013v-2.66h1.107c1.343 0 2.356-.634 2.356-1.992 0-1.417-1.013-1.9-2.356-1.9h-2.12zm1.013-3.467v-2.275h.987c.957 0 1.479.286 1.479 1.09 0 .788-.523 1.185-1.479 1.185zm.911.536L10.479 0h1.131L9.59-3.5zM12.252 0h1.028l1.072-3.567c.213-.709.416-1.441.613-2.182H15c.189.741.4 1.473.616 2.182L16.676 0h1.072l-2.163-6.549h-1.17zm1.215-1.876H16.5v-.8h-3.033zM18.779 0h.957v-3.141c0-.7-.095-1.447-.134-2.13h.024l.611 1.377L22.148 0h1.073v-6.549h-.957v3.116c0 .711.095 1.5.134 2.155h-.024l-.611-1.379-1.911-3.892h-1.073zm6.048 0h1.718c1.9 0 3.013-1.175 3.013-3.3s-1.115-3.244-3.064-3.244h-1.667zm1-.819V-5.73h.6c1.367 0 2.094.8 2.094 2.426s-.726 2.485-2.093 2.485zm-51.743 10.875h4.227V9.21h-3.223V7.058h2.642v-.847h-2.642V4.354h3.123v-.847h-4.127zm5.355 0h1.067l.9-1.648c.168-.332.334-.664.517-1.064h.04c.211.4.385.732.565 1.064l.909 1.648h1.123l-1.945-3.333 1.819-3.216h-1.067l-.818 1.556c-.154.3-.288.587-.463.982h-.04a32.62 32.62 0 0 0-.523-.982l-.845-1.556h-1.115l1.819 3.168zm6.511 0h1v-2.5h1.062c1.425 0 2.462-.649 2.462-2.077 0-1.477-1.021-1.973-2.462-1.973h-2.066zm1-3.306V4.314h.965c1.039 0 1.561.293 1.561 1.166s-.507 1.27-1.561 1.27zm4.3 3.306h1.03l1.072-3.567c.213-.709.416-1.441.613-2.182H-6c.189.741.4 1.473.616 2.182l1.055 3.567h1.072l-2.158-6.549h-1.17zm1.217-1.876H-4.5v-.8h-3.033zm5.312 1.876h.957v-3.14c0-.7-.095-1.447-.134-2.13h.024l.611 1.377 1.911 3.894h1.073v-6.55h-.957v3.117c0 .711.095 1.5.134 2.155h-.023L.763 7.4l-1.911-3.893h-1.073zm8.254.12c1.485 0 2.372-.858 2.372-1.909A1.844 1.844 0 0 0 6.97 6.511l-.888-.391c-.577-.224-1.142-.431-1.142-1 0-.536.463-.855 1.152-.855a2.31 2.31 0 0 1 1.582.584l.518-.641a2.94 2.94 0 0 0-2.057-.821A1.972 1.972 0 0 0 3.924 5.18a1.877 1.877 0 0 0 1.4 1.712l.926.408c.649.274 1.127.452 1.127 1.092 0 .527-.46.909-1.289.909a2.759 2.759 0 0 1-1.871-.776l-.59.692a3.442 3.442 0 0 0 2.406.959zm3.863-.12H14.1V9.21h-1.6V4.354h1.6v-.847H9.9v.846h1.6V9.21H9.9zm8.1.12c1.5 0 2.546-1.254 2.546-3.424 0-2.135-1.047-3.364-2.546-3.364S15.45 4.617 15.45 6.752c.004 2.17 1.05 3.424 2.55 3.424zM18 9.3c-.91 0-1.51-.937-1.51-2.546 0-1.573.6-2.486 1.51-2.486s1.51.913 1.51 2.486c0 1.607-.6 2.546-1.51 2.546zm3.779.758h.957V6.916c0-.7-.095-1.447-.134-2.13h.024l.611 1.377 1.911 3.894h1.073v-6.55h-.957v3.117c0 .711.095 1.5.134 2.155h-.024L24.763 7.4l-1.911-3.893h-1.073z" transform="translate(295.345 321.58)" style="fill:#fff"/>
        <path data-name="路径 3570" d="M-50.967.12c1.485 0 2.372-.858 2.372-1.909a1.844 1.844 0 0 0-1.435-1.756l-.888-.391c-.577-.224-1.142-.431-1.142-1 0-.536.463-.855 1.152-.855a2.31 2.31 0 0 1 1.582.584l.518-.641a2.94 2.94 0 0 0-2.057-.821 1.972 1.972 0 0 0-2.212 1.792 1.877 1.877 0 0 0 1.4 1.712l.924.405c.649.274 1.127.452 1.127 1.092 0 .527-.46.909-1.289.909a2.759 2.759 0 0 1-1.871-.776l-.59.692a3.442 3.442 0 0 0 2.409.963zm5.967 0c1.5 0 2.546-1.254 2.546-3.424 0-2.135-1.047-3.364-2.546-3.364s-2.546 1.229-2.546 3.368C-47.546-1.134-46.5.12-45 .12zm0-.878c-.91 0-1.51-.937-1.51-2.546 0-1.573.6-2.486 1.51-2.486s1.51.913 1.51 2.486c0 1.604-.6 2.546-1.51 2.546zm6.523.878a2.575 2.575 0 0 0 2.058-.952l-.566-.609a1.81 1.81 0 0 1-1.393.683c-1.181 0-1.964-.965-1.964-2.534 0-1.546.783-2.5 1.949-2.5a1.714 1.714 0 0 1 1.271.558l.566-.629a2.544 2.544 0 0 0-1.837-.807c-1.719 0-2.985 1.281-2.985 3.4 0 2.16 1.278 3.39 2.901 3.39zM-35.1 0h4.2v-.846h-1.6V-5.7h1.6v-.846h-4.2v.846h1.6v4.854h-1.6zm5.356 0h1.028l1.072-3.567c.213-.709.416-1.441.613-2.182H-27c.189.741.4 1.473.616 2.182L-25.324 0h1.072l-2.163-6.549h-1.169zm1.215-1.876h3.029v-.8h-3.038zM-22.731 0h4.148v-.846h-3.152v-5.7h-1zm11.988 0h1v-2.827h2.633v-.846h-2.629V-5.7h3.1v-.846h-4.108zm5.827 0h4.227v-.846h-3.223V-3h2.642v-.846h-2.642V-5.7h3.123v-.846h-4.127zM.252 0H1.28l1.072-3.567c.213-.709.416-1.441.613-2.182H3c.189.741.4 1.473.616 2.182L4.676 0h1.072L3.585-6.549h-1.17zm1.215-1.876H4.5v-.8H1.467zM8.5 0h1v-5.7h2.114v-.846h-5.23v.846H8.5zm6.514.12c1.358 0 2.237-.776 2.237-2.607v-4.062h-.969v4.115c0 1.2-.523 1.676-1.269 1.676s-1.249-.473-1.249-1.676v-4.115h-1.013v4.061c0 1.832.894 2.608 2.261 2.608zm3.9-.12h1.012v-2.66h1.107c1.343 0 2.356-.634 2.356-1.992 0-1.417-1.013-1.9-2.356-1.9h-2.12zm1.012-3.467v-2.275h.987c.957 0 1.479.286 1.479 1.09 0 .788-.523 1.185-1.479 1.185zm.911.536L22.479 0h1.131l-2.02-3.5zM25.084 0h4.227v-.846h-3.223V-3h2.642v-.846h-2.642V-5.7h3.123v-.846h-4.127zm7.949.12c1.485 0 2.372-.858 2.372-1.909a1.844 1.844 0 0 0-1.435-1.756l-.888-.391c-.577-.224-1.142-.431-1.142-1 0-.536.463-.855 1.152-.855a2.31 2.31 0 0 1 1.582.584l.518-.641a2.94 2.94 0 0 0-2.057-.821 1.972 1.972 0 0 0-2.212 1.792 1.877 1.877 0 0 0 1.4 1.712l.924.405c.649.274 1.127.452 1.127 1.092 0 .527-.46.909-1.289.909a2.759 2.759 0 0 1-1.871-.776l-.59.692a3.442 3.442 0 0 0 2.409.963zm9.778-3.056h4.378v-.728h-4.378zm-62.862 12.992h1v-2.5h1.062c1.425 0 2.462-.649 2.462-2.077 0-1.477-1.021-1.973-2.462-1.973h-2.066zm1-3.306V4.314h.965c1.039 0 1.561.293 1.561 1.166s-.507 1.27-1.561 1.27zm4.8 3.306h1.012V7.069h2.474v2.987h1.012V3.507h-1.012v2.68h-2.474v-2.68h-1.012zm5.5 0h1.031l1.072-3.567c.213-.709.416-1.441.613-2.182H-6c.189.741.4 1.473.616 2.182l1.055 3.567h1.072l-2.158-6.549h-1.17zm1.218-1.876H-4.5v-.8h-3.033zm7.566 2c1.485 0 2.372-.858 2.372-1.909A1.844 1.844 0 0 0 .97 6.511L.082 6.12c-.577-.224-1.142-.431-1.142-1 0-.536.463-.855 1.152-.855a2.31 2.31 0 0 1 1.582.584l.518-.641a2.94 2.94 0 0 0-2.056-.821A1.972 1.972 0 0 0-2.076 5.18a1.877 1.877 0 0 0 1.4 1.712L.25 7.3c.649.274 1.127.452 1.127 1.092 0 .527-.46.909-1.289.909a2.759 2.759 0 0 1-1.871-.776l-.59.692a3.442 3.442 0 0 0 2.406.959zm4.051-.12h4.227v-.85H5.088V7.058H7.73v-.847H5.088V4.354h3.123v-.847H4.084zm11.812 0H20.1v-.85h-1.6V4.354h1.6v-.847h-4.2v.846h1.6V9.21h-1.6z" transform="translate(295.345 413.58)" style="fill:#fff"/>
    </g>
</svg>
