<svg width="36" height="301" viewBox="0 0 36 301" xmlns="http://www.w3.org/2000/svg">
    <g fill="#00F1FF" fill-rule="nonzero">
        <path d="M35.62 300.46H.94v-28l6.44-6.44h11.4l5.3 5.31 8.57-6.3h3v10.7l-9.9 7v6.84h9.9l-.03 10.89zm-18.57-10.9v-11.15l-1.49-1.49H11.1l-1.49 1.49v11.15h7.44zM35.62 252.62l-7.43 7.44H8.37l-7.43-7.44v-22.29l7.43-7.43h19.82l7.43 7.43v22.29zm-8.91-5.69V236l-2.23-2.23H12.09L9.86 236v10.9l2.23 2.23h12.39l2.23-2.2zM.94 190.92l31.71-13.18h3v10.6l-5.69 2.13v16.11l5.69 2.18v10.35h-3L.94 205.68v-14.76zM21 203.16v-9.37l-10.65 4V199L21 203.16zM35.62 172.68H.94v-28.25L8.37 137h19.82l7.43 7.43v28.25zm-8.91-10.9v-11.65l-2.23-2.23H12.09l-2.23 2.23v11.65h16.85zM35.62 130.55H.94v-15.71L19 108.5v-1.19L.94 101V85.46h34.68v10.41h-21.8v1l18.09 6.44v9.41l-18.09 6.44v1h21.8zM.94 52.18 32.65 39h3v10.61l-5.69 2.13v16.1L35.62 70v10.37h-3L.94 67V52.18zM21 64.42v-9.36l-10.65 4v1.24L21 64.42zM35.62 33.94H.94V6.44L7.38 0h13.13L27 6.44V23h8.67l-.05 10.94zM18 23V12.38l-1.49-1.48h-5.2l-1.49 1.48V23H18z"/>
    </g>
</svg>
