<svg width="1210" height="1224" viewBox="0 0 1210 1224" xmlns="http://www.w3.org/2000/svg" xmlns:xlink="http://www.w3.org/1999/xlink">
    <defs>
        <path d="m27.284 35 4.32-4.32v-5.94l-3.6-3.6 2.34-2.34v-5.04l-3.96-3.96H5.504V35h21.78zm-5.652-15.588h-8.208V15.92h8.28l.72.72v1.98l-.792.792zm.972 9.468h-9.18v-4.068h9.252l1.008 1.008v1.98l-1.08 1.08zM55.184 35l5.76-5.76V9.8h-7.92v16.74l-1.62 1.62h-5.76l-1.62-1.62V9.8h-7.92v19.44l5.76 5.76h13.32zm26.28 0v-7.344l9.72-15.696V9.8h-7.02l-5.976 10.08H77.18L71.204 9.8h-7.38v2.16l9.72 15.696V35h7.92z" id="d"/>
        <path d="M15.146 35v-7.2h4.968L25.19 35h7.776v-2.16l-4.572-6.228 3.852-3.852v-8.28l-4.68-4.68H7.226V35h7.92zm8.1-13.5h-8.1v-5.4h8.1l1.08 1.08v3.24l-1.08 1.08zM61.406 35v-6.48h-15.48V25.1h11.16v-5.76h-11.16v-3.06h15.12V9.8h-23.04V35h23.4zm11.88 0V18.44h.72L81.746 35h11.52V9.8h-7.38v16.56h-.72L77.426 9.8h-11.52V35h7.38zm40.5 0V16.28h9.18V9.8h-26.28v6.48h9.18V35h7.92z" id="e"/>
        <path d="M19.94 35v-6.12H14.9V15.92h5.04V9.8h-18v6.12h5.04v12.96H1.94V35h18zM32 35V18.44h.72L40.46 35h11.52V9.8H44.6v16.56h-.72L36.14 9.8H24.62V35H32zm37.44-7.2v-5.76H57.2v5.76h12.24zm8.784 7.2 1.584-4.14h11.7L93.056 35h7.704v-2.16L91.184 9.8H80.456L70.7 32.84V35h7.524zm10.872-10.62h-6.804l2.988-7.74h.9l2.916 7.74zM112.28 35v-6.3h12.06l4.68-4.68v-9.54l-4.68-4.68h-19.98V35h7.92zm7.74-12.78h-7.74v-5.94h7.74l1.08 1.08v3.78l-1.08 1.08zM141.62 35v-6.3h12.06l4.68-4.68v-9.54l-4.68-4.68H133.7V35h7.92zm7.74-12.78h-7.74v-5.94h7.74l1.08 1.08v3.78l-1.08 1.08zM181.4 35V19.16h.72l4.68 13.14h6.84l4.68-13.14h.72V35h7.56V9.8h-11.268l-4.608 13.14h-.864L185.252 9.8H173.84V35h7.56zm36.324 0 1.584-4.14h11.7l1.548 4.14h7.704v-2.16L230.684 9.8h-10.728L210.2 32.84V35h7.524zm10.872-10.62h-6.804l2.988-7.74h.9l2.916 7.74zM251.78 35v-7.2h4.968l5.076 7.2h7.776v-2.16l-4.572-6.228 3.852-3.852v-8.28L264.2 9.8h-20.34V35h7.92zm8.1-13.5h-8.1v-5.4h8.1l1.08 1.08v3.24l-1.08 1.08zM282.56 35v-9.36h3.276L292.46 35h8.28v-2.16l-8.46-10.836 7.74-10.044V9.8h-7.92l-6.372 9h-3.168v-9h-7.92V35h7.92zm45.18 0v-6.48h-15.48V25.1h11.16v-5.76h-11.16v-3.06h15.12V9.8h-23.04V35h23.4zm18.9 0V16.28h9.18V9.8h-26.28v6.48h9.18V35h7.92zm20.52 0v-6.3h12.06l4.68-4.68v-9.54l-4.68-4.68h-19.98V35h7.92zm7.74-12.78h-7.74v-5.94h7.74l1.08 1.08v3.78l-1.08 1.08zM409.46 35v-6.84H396.5V9.8h-7.92V35h20.88zm9.324 0 1.584-4.14h11.7l1.548 4.14h7.704v-2.16L431.744 9.8h-10.728l-9.756 23.04V35h7.524zm10.872-10.62h-6.804l2.988-7.74h.9l2.916 7.74zM466.34 35v-6.48h-13.32l-1.62-1.62v-9l1.62-1.62h13.32V9.8h-17.46l-5.4 5.4v14.4l5.4 5.4h17.46zm27.9 0v-6.48h-15.48V25.1h11.16v-5.76h-11.16v-3.06h15.12V9.8h-23.04V35h23.4z" id="f"/>
        <path d="M9.349 31.384c4.064 0 7.392-2.208 7.392-5.824 0-2.816-2.336-4.608-5.056-5.184v-.128c2.528-.832 4.352-2.4 4.352-4.864 0-3.296-2.912-5.184-6.752-5.184-2.624 0-4.832 1.088-6.528 2.56l1.408 1.664c1.344-1.184 3.104-2.048 5.024-2.048 2.464 0 4.16 1.248 4.16 3.2 0 2.144-1.856 3.808-6.688 3.808V21.4c5.344 0 7.392 1.632 7.392 4.064 0 2.272-2.08 3.712-4.864 3.712-2.624 0-4.512-1.12-5.856-2.4l-1.344 1.728c1.504 1.504 3.84 2.88 7.36 2.88zm19.616 0c4.544 0 7.328-3.872 7.328-10.656 0-6.848-2.784-10.528-7.328-10.528-4.544 0-7.328 3.68-7.328 10.528 0 6.784 2.784 10.656 7.328 10.656zm0-2.144c-2.848 0-4.864-2.656-4.864-8.512s2.016-8.384 4.864-8.384 4.864 2.528 4.864 8.384-2.016 8.512-4.864 8.512zm0-6.592c1.056 0 1.984-.8 1.984-2.144 0-1.312-.928-2.112-1.984-2.112s-1.984.8-1.984 2.112c0 1.344.928 2.144 1.984 2.144zm14.912-1.92c2.592 0 4.448-1.984 4.448-5.312 0-3.328-1.856-5.216-4.448-5.216-2.592 0-4.448 1.888-4.448 5.216 0 3.328 1.856 5.312 4.448 5.312zm7.136-2.24 5.856-6.016-1.568-1.44-5.344 6.496 1.056.96zm-7.136.64c-1.376 0-2.464-1.216-2.464-3.712 0-2.56 1.088-3.616 2.464-3.616s2.464 1.056 2.464 3.616c0 2.496-1.088 3.712-2.464 3.712zm8.576 12.256c2.592 0 4.448-1.984 4.448-5.312 0-3.328-1.856-5.216-4.448-5.216-2.592 0-4.448 1.888-4.448 5.216 0 3.328 1.856 5.312 4.448 5.312zm0-1.6c-1.376 0-2.464-1.216-2.464-3.712 0-2.56 1.088-3.616 2.464-3.616s2.464 1.056 2.464 3.616c0 2.496-1.088 3.712-2.464 3.712zm-11.424.192 5.344-6.496-1.056-.96-5.856 6.016 1.568 1.44zM87.909 31V12.28h6.944v-2.272H78.277v2.272h6.944V31h2.688zm17.856.384c4.736 0 8.064-4.096 8.064-10.976 0-6.784-3.328-10.784-8.064-10.784-4.736 0-8.064 4-8.064 10.784 0 6.88 3.328 10.976 8.064 10.976zm0-2.368c-3.168 0-5.28-3.232-5.28-8.608 0-5.28 2.112-8.416 5.28-8.416s5.28 3.136 5.28 8.416c0 5.376-2.112 8.608-5.28 8.608zM140.453 31v-8.864h3.716L149.22 31h3.04l-5.328-9.163.08-.02c2.795-.72 4.64-2.658 4.64-5.889 0-4.384-3.104-5.92-7.36-5.92h-6.56V31h2.72zm3.456-11.04h-3.456v-7.776h3.456c3.264 0 5.056.992 5.056 3.744 0 2.688-1.792 4.032-5.056 4.032zM170.725 31v-2.272H160.1v-7.616h8.704V18.84H160.1v-6.56h10.304v-2.272h-12.992V31h13.312zm7.424 0V20.024c0-2.176-.256-4.416-.352-6.56h.064l2.016 4.352L186.597 31h2.944V10.008h-2.56v10.88c0 2.208.256 4.576.352 6.656h-.064l-2.016-4.352-6.72-13.184h-2.944V31h2.56zm24.96 0V12.28h6.944v-2.272h-16.576v2.272h6.944V31h2.688zm25.216 0v-2.272H217.7v-7.616h8.704V18.84H217.7v-6.56h10.304v-2.272h-12.992V31h13.312zm8.128 0v-8.864h3.715L245.22 31h3.04l-5.328-9.163.08-.02c2.795-.72 4.64-2.658 4.64-5.889 0-4.384-3.104-5.92-7.36-5.92h-6.56V31h2.72zm3.456-11.04h-3.456v-7.776h3.456c3.264 0 5.056.992 5.056 3.744 0 2.688-1.792 4.032-5.056 4.032z" id="g"/>
        <path d="M10.149 81c.32-8 1.632-12.608 7.04-18.784v-1.632H2.405v2.304h11.744C9.509 68.584 7.717 73.288 7.365 81h2.784zm18.816.384c4.544 0 7.328-3.872 7.328-10.656 0-6.848-2.784-10.528-7.328-10.528-4.544 0-7.328 3.68-7.328 10.528 0 6.784 2.784 10.656 7.328 10.656zm0-2.144c-2.848 0-4.864-2.656-4.864-8.512s2.016-8.384 4.864-8.384 4.864 2.528 4.864 8.384-2.016 8.512-4.864 8.512zm0-6.592c1.056 0 1.984-.8 1.984-2.144 0-1.312-.928-2.112-1.984-2.112s-1.984.8-1.984 2.112c0 1.344.928 2.144 1.984 2.144zm14.912-1.92c2.592 0 4.448-1.984 4.448-5.312 0-3.328-1.856-5.216-4.448-5.216-2.592 0-4.448 1.888-4.448 5.216 0 3.328 1.856 5.312 4.448 5.312zm7.136-2.24 5.856-6.016-1.568-1.44-5.344 6.496 1.056.96zm-7.136.64c-1.376 0-2.464-1.216-2.464-3.712 0-2.56 1.088-3.616 2.464-3.616s2.464 1.056 2.464 3.616c0 2.496-1.088 3.712-2.464 3.712zm8.576 12.256c2.592 0 4.448-1.984 4.448-5.312 0-3.328-1.856-5.216-4.448-5.216-2.592 0-4.448 1.888-4.448 5.216 0 3.328 1.856 5.312 4.448 5.312zm0-1.6c-1.376 0-2.464-1.216-2.464-3.712 0-2.56 1.088-3.616 2.464-3.616s2.464 1.056 2.464 3.616c0 2.496-1.088 3.712-2.464 3.712zm-11.424.192 5.344-6.496-1.056-.96-5.856 6.016 1.568 1.44zM87.909 81V62.28h6.944v-2.272H78.277v2.272h6.944V81h2.688zm17.856.384c4.736 0 8.064-4.096 8.064-10.976 0-6.784-3.328-10.784-8.064-10.784-4.736 0-8.064 4-8.064 10.784 0 6.88 3.328 10.976 8.064 10.976zm0-2.368c-3.168 0-5.28-3.232-5.28-8.608 0-5.28 2.112-8.416 5.28-8.416s5.28 3.136 5.28 8.416c0 5.376-2.112 8.608-5.28 8.608zm38.4 2.368c4.736 0 8.064-4.096 8.064-10.976 0-6.784-3.328-10.784-8.064-10.784-4.736 0-8.064 4-8.064 10.784 0 6.88 3.328 10.976 8.064 10.976zm0-2.368c-3.168 0-5.28-3.232-5.28-8.608 0-5.28 2.112-8.416 5.28-8.416s5.28 3.136 5.28 8.416c0 5.376-2.112 8.608-5.28 8.608zM160.549 81l2.048-8.448c.32-1.28.512-2.496.736-3.776h.096a39.48 39.48 0 0 0 .768 3.776L166.245 81h3.328l3.072-21.024h-2.88l-1.472 13.216c-.192 1.728-.256 2.752-.384 4.832h-.128c-.384-2.08-.576-3.104-1.024-4.832l-1.984-7.808h-2.56l-2.048 7.808a77.8 77.8 0 0 0-1.024 4.832h-.096c-.096-2.08-.224-3.104-.416-4.864l-1.536-13.184h-3.008l3.2 21.024h3.264zm17.6 0V70.024c0-2.176-.256-4.416-.352-6.56h.064l2.016 4.352L186.597 81h2.944V60.008h-2.56v10.88c0 2.208.256 4.576.352 6.656h-.064l-2.016-4.352-6.72-13.184h-2.944V81h2.56zm30.976 0v-2.272H198.5v-7.616h8.704V68.84H198.5v-6.56h10.304v-2.272h-12.992V81h13.312zm8.128 0v-8.864h3.715L226.02 81h3.04l-5.328-9.163.08-.02c2.795-.72 4.64-2.658 4.64-5.889 0-4.384-3.104-5.92-7.36-5.92h-6.56V81h2.72zm3.456-11.04h-3.456v-7.776h3.456c3.264 0 5.056.992 5.056 3.744 0 2.688-1.792 4.032-5.056 4.032z" id="h"/>
        <path d="M11.05 35V19.16h.72l4.68 13.14h6.84l4.68-13.14h.72V35h7.56V9.8H24.982l-4.608 13.14h-.864L14.902 9.8H3.49V35h7.56zm52.2 0 5.4-5.4V15.2l-5.4-5.4h-16.2l-5.4 5.4v14.4l5.4 5.4h16.2zm-4.14-6.48h-7.92l-1.62-1.62v-9l1.62-1.62h7.92l1.62 1.62v9l-1.62 1.62zM90.862 35l8.028-23.04V9.8h-7.236l-6.12 18H84.31l-6.084-18H70.81v2.16L78.982 35h11.88zm35.028 0v-6.48h-15.48V25.1h11.16v-5.76h-11.16v-3.06h15.12V9.8h-23.04V35h23.4zm29.7 0V16.28h9.18V9.8h-26.28v6.48h9.18V35h7.92zm32.76 0 5.4-5.4V15.2l-5.4-5.4h-16.2l-5.4 5.4v14.4l5.4 5.4h16.2zm-4.14-6.48h-7.92l-1.62-1.62v-9l1.62-1.62h7.92l1.62 1.62v9l-1.62 1.62z" id="l"/>
        <path d="M63.26 71.905v-6.48H47.78v-3.42h11.16v-5.76H47.78v-3.06H62.9v-6.48H39.86v25.2h23.4zm9.505 0 1.584-4.14h11.7l1.548 4.14H95.3v-2.16l-9.576-23.04H74.997l-9.756 23.04v2.16h7.524zm10.872-10.62h-6.804l2.988-7.74h.9l2.916 7.74zm23.184 10.62v-7.2h4.968l5.076 7.2h7.776v-2.16l-4.572-6.228 3.852-3.852v-8.28l-4.68-4.68H98.9v25.2h7.92zm8.1-13.5h-8.1v-5.4h8.1l1.08 1.08v3.24l-1.08 1.08zm22.14 13.5v-16.56h.72l7.74 16.56h11.52v-25.2h-7.38v16.56h-.72l-7.74-16.56h-11.52v25.2h7.38z" id="m"/>
        <path d="M11.05 35V19.16h.72l4.68 13.14h6.84l4.68-13.14h.72V35h7.56V9.8H24.982l-4.608 13.14h-.864L14.902 9.8H3.49V35h7.56zm52.2 0 5.4-5.4V15.2l-5.4-5.4h-16.2l-5.4 5.4v14.4l5.4 5.4h16.2zm-4.14-6.48h-7.92l-1.62-1.62v-9l1.62-1.62h7.92l1.62 1.62v9l-1.62 1.62zM90.862 35l8.028-23.04V9.8h-7.236l-6.12 18H84.31l-6.084-18H70.81v2.16L78.982 35h11.88zm35.028 0v-6.48h-15.48V25.1h11.16v-5.76h-11.16v-3.06h15.12V9.8h-23.04V35h23.4zm29.7 0V16.28h9.18V9.8h-26.28v6.48h9.18V35h7.92zm32.76 0 5.4-5.4V15.2l-5.4-5.4h-16.2l-5.4 5.4v14.4l5.4 5.4h16.2zm-4.14-6.48h-7.92l-1.62-1.62v-9l1.62-1.62h7.92l1.62 1.62v9l-1.62 1.62z" id="n"/>
        <path d="M63.26 71.905v-6.48H47.78v-3.42h11.16v-5.76H47.78v-3.06H62.9v-6.48H39.86v25.2h23.4zm9.505 0 1.584-4.14h11.7l1.548 4.14H95.3v-2.16l-9.576-23.04H74.997l-9.756 23.04v2.16h7.524zm10.872-10.62h-6.804l2.988-7.74h.9l2.916 7.74zm23.184 10.62v-7.2h4.968l5.076 7.2h7.776v-2.16l-4.572-6.228 3.852-3.852v-8.28l-4.68-4.68H98.9v25.2h7.92zm8.1-13.5h-8.1v-5.4h8.1l1.08 1.08v3.24l-1.08 1.08zm22.14 13.5v-16.56h.72l7.74 16.56h11.52v-25.2h-7.38v16.56h-.72l-7.74-16.56h-11.52v25.2h7.38z" id="o"/>
        <path d="M99.51 35v-6.12h-5.04V15.92h5.04V9.8h-18v6.12h5.04v12.96h-5.04V35h18zm12.06 0V18.44h.72L120.03 35h11.52V9.8h-7.38v16.56h-.72L115.71 9.8h-11.52V35h7.38zm37.44-7.2v-5.76h-12.24v5.76h12.24zm8.784 7.2 1.584-4.14h11.7l1.548 4.14h7.704v-2.16L170.754 9.8h-10.728l-9.756 23.04V35h7.524zm10.872-10.62h-6.804l2.988-7.74h.9l2.916 7.74zM191.85 35v-6.3h12.06l4.68-4.68v-9.54l-4.68-4.68h-19.98V35h7.92zm7.74-12.78h-7.74v-5.94h7.74l1.08 1.08v3.78l-1.08 1.08zM221.19 35v-6.3h12.06l4.68-4.68v-9.54l-4.68-4.68h-19.98V35h7.92zm7.74-12.78h-7.74v-5.94h7.74l1.08 1.08v3.78l-1.08 1.08zM18.528 79l2.304-7.92h.9L24 79h10.98l6.3-23.04V53.8h-7.236l-4.68 18h-1.08l-4.716-18h-7.092v2.16l1.44 5.22L14.46 71.8h-1.08l-4.86-18H1.176v2.16L7.62 79h10.908zm29.376 0 1.584-4.14h11.7L62.736 79h7.704v-2.16L60.864 53.8H50.136L40.38 76.84V79h7.524zm10.872-10.62h-6.804l2.988-7.74h.9l2.916 7.74zM94.92 79v-6.84H81.96V53.8h-7.92V79h20.88zm24.48 0v-6.84h-12.96V53.8h-7.92V79h20.88zm27 0v-6.48h-15.48V69.1h11.16v-5.76h-11.16v-3.06h15.12V53.8H123V79h23.4zm18.9 0V60.28h9.18V53.8H148.2v6.48h9.18V79h7.92zm14.94 7.2 10.08-31.32v-2.16h-5.04L175.2 84.04v2.16h5.04zm32.4-7.2 4.5-4.5v-6.48l-4.86-4.86h-11.16l-.72-.72V61l.72-.72h14.76V53.8h-18.9l-4.5 4.5v6.48l4.86 4.86h11.16l.72.72v1.44l-.72.72h-15.48V79h19.62zm23.112 0 2.304-7.92h.9l2.268 7.92h10.98l6.3-23.04V53.8h-7.236l-4.68 18h-1.08l-4.716-18H233.7v2.16l1.44 5.22-3.456 10.62h-1.08l-4.86-18H218.4v2.16L224.844 79h10.908zm29.376 0 1.584-4.14h11.7L279.96 79h7.704v-2.16l-9.576-23.04H267.36l-9.756 23.04V79h7.524zM276 68.38h-6.804l2.988-7.74h.9L276 68.38zM299.184 79v-6.3h12.06l4.68-4.68v-9.54l-4.68-4.68h-19.98V79h7.92zm7.74-12.78h-7.74v-5.94h7.74l1.08 1.08v3.78l-1.08 1.08z" id="p"/>
        <path d="m116.197 23.822-2.906-7.19a23.53 23.53 0 0 0-2.806-5.11C98.215-5.749 56.021-3.88 22.542 22.557 4.58 36.743-2.222 47.696.81 57.939l.844 2.937-.836-2.91c.376 1.263 1.733 5.405 2.378 6.55l4.57 9.848 6.539-3.048a41.938 41.938 0 0 0 9.963 2.55c20.38 2.784 47.68-6.393 65.86-20.058 11.071-8.32 19.01-18.495 21.72-27.96l4.35-2.026z" id="q"/>
        <path d="m116.197 23.822-2.906-7.19a23.53 23.53 0 0 0-2.806-5.11C98.215-5.749 56.021-3.88 22.542 22.557 4.58 36.743-2.222 47.696.81 57.939l.844 2.937-.836-2.91c.376 1.263 1.733 5.405 2.378 6.55l4.57 9.848 6.539-3.048a41.938 41.938 0 0 0 9.963 2.55c20.38 2.784 47.68-6.393 65.86-20.058 11.071-8.32 19.01-18.495 21.72-27.96l4.35-2.026z" id="s"/>
        <path d="M21.694 22.428C55.172-4.01 97.367-5.88 109.636 11.39c8.731 12.288-1.038 31.339-19.51 45.222-18.18 13.664-45.48 22.84-65.86 20.057-28.281-3.863-35.081-28.57-2.572-54.242z" id="u"/>
        <path d="M73.209 51.781C68.923 21.037 47.483-1.603 28.109.138l-.003-.002-.095.01c-.32.031-.641.068-.961.111L14.852 1.654l1.958 3.945C4.414 15.742-2.31 37.903 1.08 62.216c3.117 22.369 13.955 40.523 27.091 48.086l.375 5.41 11.801-1.376a22.5 22.5 0 0 0 3.305-.385h.015c19.247-3.687 33.85-31.266 29.542-62.17z" id="x"/>
        <path d="M91.51 51.75C87.224 21.006 65.785-1.634 46.41.107l-.003-.003-.095.011c-.32.03-.641.067-.961.11L34.754 1.44c-.533.048-1.067.106-1.601.183-22.117 3.222-36.48 31.312-32.08 62.742 4.252 30.37 24.464 52.742 45.775 51.312v.002l.028-.003c.736-.05 1.472-.127 2.21-.234.168-.025.334-.055.5-.082l9.065-1.056a22.647 22.647 0 0 0 3.305-.386h.014c19.245-3.685 33.848-31.264 29.54-62.167z" id="A"/>
        <path d="M30.116.762c-30.967 0-48.187 14.02 4.145 14.02 59.713 0 83.461-13.988 37.403-13.988S53.082.762 30.116.762z" id="C"/>
        <path d="M46.525 3.721 37.665.275 34.318 3.57c-9.15 2.412-2.884 11.847 3.265 24.633L.566 108.105l15.014 5.03a12.96 12.96 0 0 0 4.214.746c22.94 1.085 46.442-25.118 50.972-57.903 3.76-27.176-7.087-48.062-24.24-52.257z" id="F"/>
        <path d="M46.525 3.721 37.665.275 34.318 3.57c-9.15 2.412-2.884 11.847 3.265 24.633L.566 108.105l15.014 5.03a12.96 12.96 0 0 0 4.214.746c22.94 1.085 46.442-25.118 50.972-57.903 3.76-27.176-7.087-48.062-24.24-52.257z" id="H"/>
        <path d="M1.86 55.068C7.064 26.51 27.52 2.218 48.775.194 71.39-1.96 86.902 21.586 81.976 53.56c-5.038 32.712-28.942 58.547-51.862 57.109-21.49-1.35-33.563-26.454-28.253-55.6z" id="J"/>
        <linearGradient x1="0%" y1="50%" x2="100%" y2="50%" id="a">
            <stop stop-color="#F2757E" offset=".4%"/>
            <stop stop-color="#FED4DA" offset="37.6%"/>
            <stop stop-color="#F6B8EB" offset="81.5%"/>
            <stop stop-color="#A398EB" offset="99.9%"/>
        </linearGradient>
        <linearGradient x1="0%" y1="50%" x2="100%" y2="50%" id="b">
            <stop stop-color="#27AAE1" offset=".4%"/>
            <stop stop-color="#00F1FF" offset="37.6%"/>
            <stop stop-color="#DFBDED" offset="81.5%"/>
            <stop stop-color="#FED4DA" offset="99.9%"/>
        </linearGradient>
        <linearGradient x1="59.7%" y1="100.7%" x2="-7.4%" y2="-114.6%" id="c">
            <stop stop-color="#27AAE1" offset=".4%"/>
            <stop stop-color="#00F1FF" offset="37.6%"/>
            <stop stop-color="#DFBDED" offset="81.5%"/>
            <stop stop-color="#FED4DA" offset="99.9%"/>
        </linearGradient>
        <linearGradient x1="0%" y1="50%" x2="100%" y2="50%" id="i">
            <stop stop-color="#F2757E" offset=".4%"/>
            <stop stop-color="#FED4DA" offset="37.6%"/>
            <stop stop-color="#F6B8EB" offset="81.5%"/>
            <stop stop-color="#A398EB" offset="99.9%"/>
        </linearGradient>
        <linearGradient x1="0%" y1="50%" x2="100%" y2="50%" id="j">
            <stop stop-color="#27AAE1" offset=".4%"/>
            <stop stop-color="#00F1FF" offset="37.6%"/>
            <stop stop-color="#DFBDED" offset="81.5%"/>
            <stop stop-color="#FED4DA" offset="99.9%"/>
        </linearGradient>
        <linearGradient x1="59.7%" y1="100.7%" x2="-7.4%" y2="-114.6%" id="k">
            <stop stop-color="#27AAE1" offset=".4%"/>
            <stop stop-color="#00F1FF" offset="37.6%"/>
            <stop stop-color="#DFBDED" offset="81.5%"/>
            <stop stop-color="#FED4DA" offset="99.9%"/>
        </linearGradient>
        <linearGradient x1="37.6%" y1="16.4%" x2="61.5%" y2="79.6%" id="w">
            <stop stop-color="#E5BB7B" offset="25.7%"/>
            <stop stop-color="#DFB477" offset="31.5%"/>
            <stop stop-color="#CDA06B" offset="54.1%"/>
            <stop stop-color="#C29464" offset="77%"/>
            <stop stop-color="#BF9162" offset="100%"/>
        </linearGradient>
        <linearGradient x1="44.8%" y1="38.8%" x2="21.7%" y2="-7.5%" id="z">
            <stop stop-color="#E6BC7B" stop-opacity="0" offset="0%"/>
            <stop stop-color="#ECE1D3" offset="20.8%"/>
            <stop stop-color="#DCB890" offset="37.8%"/>
            <stop stop-color="#FFF" offset="68.2%"/>
            <stop stop-color="#E6BC7B" stop-opacity="0" offset="100%"/>
        </linearGradient>
        <linearGradient x1="43.8%" y1="3.2%" x2="49.1%" y2="57.3%" id="E">
            <stop stop-color="#ACBCC9" offset=".2%"/>
            <stop stop-color="#F3F3F3" offset="18.7%"/>
            <stop stop-color="#ACBCC9" offset="41.7%"/>
            <stop stop-color="#94A0AF" offset="100%"/>
        </linearGradient>
    </defs>
    <g fill="none" fill-rule="evenodd">
        <text transform="translate(71 649)" fill="#231F20" fill-rule="nonzero" font-family="TTOctosquares-Black" font-size="37.827" font-weight="800">
                        <tspan x=".976" y="36">MOVE 2 EARN</tspan>
                    </text>
        <path stroke="#231F20" stroke-width="5.766" d="M956.5 912.5V225"/>
        <path fill="#F1F2F2" fill-rule="nonzero" d="M701 738.814 955.5 792l254.5-53.186V601H701z"/>
        <path stroke="#231F20" stroke-width="5.766" d="M255.5 912.5V225M610.5 1118.5v-206"/>
        <path stroke="#231F20" stroke-width="5.766" stroke-linecap="round" d="M256 912.5h699.5"/>
        <path fill="#F1F2F2" fill-rule="nonzero" d="M1 495.86 255.5 561 510 495.86V310H1.002z"/>
        <path d="m164.74 421.652-1.386 48.912-7.62 12.055 4.158 13.995 18.29 4.849 54.522.023 31.804 4.27 68.461-3.003 19.105-16.256-.278-11.5-7.545-6.711-49.661-16.223-2.651-4.502-6.705-.131-3.687-2.5s-5.936-3.178-6.467-3.287c-.53-.109-5.63-1.613-5.63-1.613l-5.29-3.699-5.338-2.487s-4.71-2.98-4.78-3.187c-.068-.208-6.374-3.26-6.374-3.26l-11.431-8.035s-4.78.207-5.473-.486c-.693-.693-11.847-8.868-11.847-8.868l-5.611 1.178-4.434 4.296-1.109 9.56 2.495 3.603-5.266 1.94-23.555-.554-16.697-8.38z" fill="#FFF"/>
        <path fill="url(#a)" fill-rule="nonzero" d="m40.232 54.124-16.657 16.06 52.676 1.81 31.691 6.277-11.087-17.837z" transform="translate(155 410)"/>
        <g stroke="#D1D3D4" stroke-linejoin="round" stroke-width=".924">
            <path d="m222.261 425.256-15.18 6.907M227.993 428.37l-13.553 7.893M233.725 431.483l-11.925 8.882M239.456 434.596l-10.296 9.87M245.188 437.71l-8.668 10.856M250.918 440.821l-7.039 11.845M256.651 443.936l-5.413 12.832M262.382 447.05l-3.784 13.82M268.114 450.162l-2.156 14.808M273.845 453.274l-.527 15.796M279.576 456.387l1.102 16.783M285.308 459.502l2.73 17.77M291.04 462.614l4.356 18.76M296.771 465.727l5.985 19.747"/>
        </g>
        <path fill="url(#b)" fill-rule="nonzero" d="M51.272 21.552 26.384 43.149l72.998 6.165L51.78 21.062" transform="translate(155 410)"/>
        <path fill="url(#c)" d="M155.338 47.163 189.25 58.29l-18.928 16.315-22.566.873z" transform="translate(155 410)"/>
        <g style="mix-blend-mode:multiply" stroke="#27AAE1" stroke-linejoin="round" stroke-width=".924">
            <path d="m310.337 457.163 33.914 11.124M309.074 461.882l32.022 9.124M307.81 466.6l30.131 7.125M306.547 471.32l28.24 5.124M305.284 476.038l26.35 3.126M304.02 480.755l24.458 1.126M302.757 485.474l22.566-.873"/>
        </g>
        <g stroke="#D1D3D4" stroke-linejoin="round" stroke-width=".924">
            <path d="m164.01 468.258-7.66 12.819 2.698 15.907M169.79 472.892l-5.325 9.317 3.034 17.287M175.749 477.811l-3.17 5.53 2.872 17.83M183.023 480.306l-2.33 4.167 2.538 17.121M191.06 480.722l-2.248 4.883 2.203 16.407M199.304 481.068l-2.381 5.668 1.869 15.702M207.687 481.344l-2.65 6.518 1.534 14.993M215.93 482.038 213.15 489l1.118 13.13M224.589 480.49l-3.325 9.641.832 11.652M232.161 482.019l-2.781 9.243.407 10.38M239.735 483.548l-2.24 8.847.192 9.803M247.307 485.082l-1.698 8.449.078 10.339M254.879 486.606l-1.157 8.052-.47 10.735M262.45 488.135l-1.417 17.68"/>
        </g>
        <g stroke="#D1D3D4" stroke-linejoin="round" stroke-width=".924">
            <path d="m164.42 432.987 21.063 16.593M165.15 426.857l24.274 19.1M169.86 423.843l23.506 18.49M187.319 430.77l9.99 7.94M195.355 430.633l5.895 4.454"/>
        </g>
        <g stroke="#D1D3D4" stroke-linejoin="round" stroke-width=".924">
            <path d="m188.168 453.719 13.509 11.016M195.655 454.338l11.598 11.03M203.142 454.958l9.686 11.044M210.629 455.577l7.774 11.059M218.117 456.196l5.862 11.074M225.604 456.814l3.95 11.088M233.09 457.433l2.038 11.102M240.579 458.052l.126 11.117M248.066 458.672l-1.786 11.13M255.554 459.29l-3.7 11.147"/>
        </g>
        <g stroke="#231F20" stroke-linejoin="round">
            <path stroke-width=".924" d="m222.262 425.256 10.526-5.579 3.961-.241 12.226 8.878 7.777 3.454 1.786 2.796 5.619 1.766 6.673 3.78 10.755 3.72 3.647 3.595 6.18 1.061 1.663 2.697 3.692 14.535zM164.513 440.07l30.715 24.05-32.066 5.253z"/>
            <path stroke-width=".924" d="m195.232 464.124-16.657 16.06-14.259-11.171zM195.232 464.124l56.627 6.311 11.088 17.838-29.515-5.57-54.856-2.518zM206.777 431.06l-25.398 22.088-16.87-13.078-.713-18.335 18.145 8.541zM207.08 432.163l95.677 53.311-5.986-19.746-74.509-40.472z"/>
            <path stroke-width=".924" d="m206.272 431.552-24.888 21.597 74.171 6.142z"/>
            <path stroke-width=".924" d="m255.553 459.29-3.698 11.147-56.627-6.312-13.844-10.976zM255.553 459.29l19.622 28.257-12.233.727-11.087-17.837z"/>
            <path stroke-width=".924" d="m255.553 459.29 47.2 26.185-27.583 2.072zM293.08 451.194l9.677 34.276 7.58-28.311zM302.758 485.474l22.566-.872 18.928-16.315-33.913-11.126zM262.451 488.136l-1.418 17.68 6.346-.231 1.086-17.548zM273.997 487.649l-.845 17.713 6.347-.23.349-17.928zM287.417 486.734l-.771 18.63 6.347-.23.274-18.844zM300.28 485.678l-.59 18.46 6.348-.23.054-18.474zM314.108 485.254l.41 18.122 6.68-.268-1.211-18.093z"/>
            <path stroke-width=".924" d="m325.464 484.453 3.34 18.97 7.08-3.673-5.41-19.572zM335.306 476.014l7.326 19.127 8.016-6.212-11.223-16.389z"/>
            <path stroke-width=".924" fill="#72F596" fill-rule="nonzero" d="m250.876 428.473-14.19 13.95 6.533 3.945 13.729-14.238zM262.864 435.522l-14.19 13.95 7.08 4.151 13.73-14.237zM275.08 441.645l-14.245 14.532 7.08 4.15 13.785-14.819zM287.665 447.402l-13.823 15.468 7.08 4.151 13.68-16.692z"/>
            <path stroke-width="2.112" d="m163.734 420.647.534 20.624-.258 26.988-7.66 12.819 2.698 15.908 19.45 5.58 54.201-1.077 27.454 4.495 72.81-3.225 20.04-15.338-.337-11.863-8.417-7.267-49.661-16.222-.787-2.736-6.534-2.473-2.03.573-2.52-1.407-1.123-2.192-6.77-2.875-2.555.674-2.81-1.598-.535-1.94-6.846-3.053-1.859.627-3.33-2.367-.127-1.526-6.037-3.525-1.74.07-12.225-8.877-4.967-.381-11.31-8.957-6.15.546-6.669 4.203-.431 8.737 4.307 4.897-4.751 2.585-24.837-.78z"/>
            <path stroke-width=".924" d="m344.25 468.287-18.928 16.315-62.38 3.672-29.516-5.57-54.855-2.518-14.561-11.927-7.66 12.819 2.36 14.976 19.786 6.51 54.201-1.076 27.454 4.495 72.81-3.226L353 487.42l-.337-11.863z"/>
            <path d="m242.579 477.253-.045-6.353-3.972-3.355 2.248-1.934-.04-5.714-5.106-4.249-4.599.033-.031-4.475-5.15.036.032 4.475-2.933.021-.032-4.475-5.149.036.031 4.475-7.355.053.187 26.313 7.355-.052.045 6.326 5.15-.036-.046-6.326 2.933-.021.044 6.326 5.15-.036-.044-6.326 5.877-.042 5.45-4.7zm-9.464-14.482.014 1.88-1.42 1.176-13.496.095-.03-4.21 13.496-.096 1.436 1.155zm-.131 13.271-14.699.105-.032-4.699 14.697-.105 1.928 1.566.012 1.54-1.906 1.593z" stroke-width=".924" fill="#72F596" fill-rule="nonzero"/>
        </g>
        <path fill="#F1F2F2" fill-rule="nonzero" d="M3 738.814 257.5 792 512 738.814V601H3z"/>
        <g transform="translate(207 335)" fill-rule="nonzero">
            <use fill="#000" xlink:href="#d"/>
            <use fill="#231F20" xlink:href="#d"/>
        </g>
        <path fill="#F1F2F2" fill-rule="nonzero" d="M701 495.86 955.5 561l254.5-65.14V310H701zM356 1109.814 610.5 1163l254.5-53.186V972H356z"/>
        <path fill="#F1F2F2" fill-rule="nonzero" d="M346 1109.814 600.5 1163l254.5-53.186V972H346z"/>
        <g transform="translate(893 335)" fill-rule="nonzero">
            <use fill="#000" xlink:href="#e"/>
            <use fill="#231F20" xlink:href="#e"/>
        </g>
        <path fill="#F1F2F2" fill-rule="nonzero" d="M0 140h1210v123H0z"/>
        <g transform="translate(357 177)" fill-rule="nonzero">
            <use fill="#000" xlink:href="#f"/>
            <use fill="#231F20" xlink:href="#f"/>
        </g>
        <g fill-rule="nonzero">
            <g transform="translate(830 386)">
                <use fill="#000" xlink:href="#g"/>
                <use fill="#231F20" xlink:href="#g"/>
            </g>
            <g transform="translate(830 386)">
                <use fill="#000" xlink:href="#h"/>
                <use fill="#231F20" xlink:href="#h"/>
            </g>
        </g>
        <g>
            <path d="m467.907 21.839-2.331 82.291-12.822 20.282 6.993 23.545 30.772 8.16 91.73.04 53.504 7.186 115.181-5.054 32.15-27.35-.465-19.349-12.696-11.289-83.552-27.294-4.46-7.573-11.28-.221-6.204-4.208s-9.987-5.345-10.882-5.528c-.895-.184-9.473-2.716-9.473-2.716l-8.9-6.22-8.979-4.185s-7.926-5.012-8.043-5.362c-.117-.35-10.723-5.478-10.723-5.478l-19.233-13.522s-8.043.35-9.208-.814c-1.166-1.163-19.934-14.919-19.934-14.919l-9.442 1.982-7.46 7.227-1.865 16.084 4.196 6.062-8.858 3.264-39.63-.933-28.086-14.108z" fill="#FFF"/>
            <path fill="url(#i)" fill-rule="nonzero" d="m67.2 91.297-28.023 27.018 88.622 3.052 53.326 10.562-18.653-30.01z" transform="translate(452 2)"/>
            <g stroke="#D1D3D4" stroke-linejoin="round" stroke-width="1.554">
                <path d="m564.684 27.902-25.54 11.621M574.325 33.14l-22.8 13.282M583.97 38.378l-20.063 14.944M593.613 43.615 576.29 60.221M603.254 48.853 588.671 67.12M612.898 54.092l-11.844 19.93M622.541 59.33l-9.105 21.59M632.184 64.568 625.82 87.82M641.827 69.804 638.2 94.718M651.47 75.043l-.887 26.576M661.112 80.281l1.852 28.237M670.756 85.52l4.592 29.897M680.4 90.757l7.33 31.56M690.041 95.995l10.07 33.221"/>
            </g>
            <path fill="url(#j)" fill-rule="nonzero" d="M85.78 36.494 43.907 72.83l122.816 10.374-80.09-47.534" transform="translate(452 2)"/>
            <path fill="url(#k)" d="M260.866 79.585 317.923 98.3l-31.845 27.45-37.967 1.468z" transform="translate(452 2)"/>
            <g style="mix-blend-mode:multiply" stroke="#27AAE1" stroke-linejoin="round" stroke-width="1.554">
                <path d="m712.866 81.585 57.058 18.714M710.74 89.523l53.875 15.35M708.615 97.462l50.694 11.987M706.49 105.4 754 114.024M704.364 113.339l44.33 5.259M702.237 121.278l41.148 1.895M700.112 129.217l37.966-1.47"/>
            </g>
            <g stroke="#D1D3D4" stroke-linejoin="round" stroke-width="1.554">
                <path d="m466.677 100.247-12.885 21.569 4.542 26.762M476.404 108.048l-8.96 15.675 5.113 29.087M486.428 116.324l-5.332 9.302 4.83 30.002M498.666 120.52l-3.92 7.01 4.272 28.806M512.188 121.22l-3.788 8.215 3.707 27.612M526.058 121.802l-4.007 9.537 3.145 26.418M540.162 122.268l-4.459 10.975 2.583 25.223M554.033 123.436l-4.679 11.712 1.88 22.09M568.599 120.83l-5.594 16.221 1.4 19.603M581.338 123.403l-4.678 15.553.685 17.466M594.082 125.978l-3.768 14.884.321 16.494M606.82 128.549l-2.857 14.215.132 17.391M619.559 131.12l-1.946 13.548-.79 18.06M632.3 133.693l-2.386 29.746"/>
            </g>
            <g stroke="#D1D3D4" stroke-linejoin="round" stroke-width="1.554">
                <path d="m467.37 40.91 35.434 27.915M468.594 30.594l40.843 32.136M476.52 25.523l39.549 31.11M505.894 37.18l16.808 13.358M519.414 36.947l9.92 7.494"/>
            </g>
            <g stroke="#D1D3D4" stroke-linejoin="round" stroke-width="1.554">
                <path d="m507.322 75.79 22.729 18.533M519.918 76.832l19.512 18.557M532.515 77.873l16.295 18.582M545.112 78.915 558.19 97.52M557.709 79.956l9.863 18.63M570.306 80.998l6.645 18.654M582.903 82.039l3.428 18.679M595.5 83.08l.212 18.704M608.096 84.122l-3.005 18.728M620.694 85.164l-6.222 18.752"/>
            </g>
            <g stroke="#231F20" stroke-linejoin="round">
                <path stroke-width="1.554" d="m564.683 27.902 17.709-9.385 6.666-.407 20.57 14.943 13.084 5.812 3.005 4.704 9.459 2.97 11.227 6.36 18.093 6.255 6.136 6.058 10.404 1.785 2.796 4.545 6.21 24.454zM467.525 52.827l51.676 40.47-53.949 8.839z"/>
                <path stroke-width="1.554" d="m519.2 93.297-28.023 27.018-23.991-18.794z"/>
                <path stroke-width="1.554" d="m519.2 93.297 95.272 10.619 18.653 30.009-49.657-9.371-92.292-4.239zM538.632 37.669l-42.725 37.162-28.383-22.003-1.2-30.848 30.53 14.377zM539.143 39.523l160.97 89.693-10.07-33.222-125.358-68.092z"/>
                <path stroke-width="1.554" d="M537.78 38.494 495.907 74.83l124.786 10.333z"/>
                <path stroke-width="1.554" d="m620.693 85.163-6.222 18.753-95.271-10.62-23.29-18.466z"/>
                <path stroke-width="1.554" d="m620.693 85.163 33.012 47.538-20.58 1.22-18.654-30.008z"/>
                <path stroke-width="1.554" d="m620.693 85.163 79.418 44.054-46.406 3.485zM683.83 71.54l16.282 57.676 12.754-47.632z"/>
                <path stroke-width="1.554" d="m700.112 129.216 37.967-1.469 31.845-27.45-57.057-18.713zM632.3 133.693l-2.386 29.745 10.679-.387 1.83-29.523zM651.725 132.876l-1.424 29.8 10.68-.388.586-30.163zM674.303 131.336l-1.298 31.343 10.68-.388.46-31.702zM695.946 129.558l-.992 31.06 10.679-.388.09-31.083zM719.21 128.847l.687 30.488 11.239-.45-2.035-30.432z"/>
                <path stroke-width="1.554" d="m738.315 127.498 5.62 31.918 11.912-6.182-9.104-32.929zM754.878 113.3l12.324 32.18 13.486-10.453-18.88-27.572z"/>
                <path stroke-width="1.554" fill="#72F596" fill-rule="nonzero" d="m612.823 33.315-23.872 23.47 10.991 6.638 23.098-23.955zM632.993 45.168l-23.873 23.47 11.92 6.984 23.098-23.954zM653.547 55.474l-23.967 24.45 11.92 6.984 23.189-24.934zM674.72 65.159l-23.257 26.025 11.92 6.984 23.015-28.083z"/>
                <path stroke-width="3.552" d="m466.214 20.147.9 34.699-.437 45.404-12.885 21.569 4.542 26.762 32.724 9.387 91.192-1.812 46.188 7.56 122.497-5.428 33.719-25.806-.568-19.958-14.162-12.226-83.552-27.294-1.332-4.604-10.994-4.156-3.414.966-4.238-2.369-1.898-3.689-11.39-4.836-4.3 1.131-4.731-2.69-.901-3.264-11.518-5.136-3.129 1.055-5.602-3.982-.212-2.567-10.157-5.931-2.926.118-20.57-14.943-8.355-.642-19.03-15.07-10.346.916-11.22 7.07-.727 14.7 7.246 8.238-7.994 4.343-41.778-1.313z"/>
                <path stroke-width="1.554" d="m769.923 100.299-31.845 27.45-104.953 6.176-49.657-9.371-92.292-4.239-24.5-20.065-12.885 21.569 3.979 25.196 33.287 10.954 91.192-1.812 46.188 7.56 122.497-5.428 33.719-25.806-.568-19.958z"/>
                <path d="m598.862 115.384-.076-10.688-6.681-5.645 3.772-3.255-.068-9.613-8.59-7.15-7.737.055-.053-7.526-8.665.061.054 7.526-4.934.036-.053-7.526-8.664.06.053 7.527-12.374.087.314 44.273 12.374-.089.075 10.644 8.665-.061-.076-10.644 4.933-.034.076 10.643 8.665-.062-.076-10.643 9.888-.07 9.178-7.906zM582.94 91.019l.023 3.163-2.39 1.978-22.704.161-.051-7.084 22.706-.16 2.416 1.942zm-.22 22.329-24.73.176-.055-7.906 24.729-.176 3.244 2.634.018 2.593-3.207 2.679z" stroke-width="1.554" fill="#72F596" fill-rule="nonzero"/>
            </g>
        </g>
        <g>
            <g transform="translate(424 1129.526)" stroke-linecap="round" stroke-linejoin="round" stroke-width="3.922">
                <circle stroke="#ABA3B1" fill="#ABA3B1" fill-rule="nonzero" cx="46.152" cy="45.907" r="45.631"/>
                <path d="M67.653 54.465c-3.373-1.348-5.034-2.135-6.407-.842.702-1.406.42-1.49-.17-2.53-1.18-2.082-4.303-5.493-5.383-11.986a34.51 34.51 0 0 0 1.925-7.58s.66-1.858-2.226-.95a13.375 13.375 0 0 1-9.458-1.395c-4.882-2.716-5.328-6.243-6.737-7.018-.98-.541-3.877 2.486-3.877 2.486L25.8 35.747l-.733 1.373a1.715 1.715 0 0 0 .14 1.84c2.713 3.612 14 18.665 19.337 25.089a21.443 21.443 0 0 0 8.522 3.163l14.612.134a85.922 85.922 0 0 0 4.978-.392 2.412 2.412 0 0 0 1.995-1.55c1.545-4.173-.93-8.51-6.998-10.939z" stroke="#000"/>
                <path d="M62.195 78.71c-15.624 7.636-34.466 3.176-45.008-10.654-10.543-13.83-9.85-33.18 1.652-46.223C30.343 8.792 49.455 5.69 64.494 14.421c15.038 8.733 21.816 26.87 16.19 43.326M53.827 67.334H29.724M39.461 59.497H23.72M33.287 51.703H18.749M27.714 43.855H16.337" stroke="#000"/>
                <path stroke="#000" d="m42.396 37.18 4.764 6.9-4.577.567 4.684 6.76"/>
            </g>
            <g stroke="#000" stroke-linecap="round" stroke-linejoin="round" stroke-width="3.922">
                <path d="M592.726 1163.818h49.816M632.474 1152.776l10.068 11.042M642.542 1163.818l-10.068 11.042M642.542 1185.904h-49.816M602.795 1196.946l-10.069-11.042M592.726 1185.904l10.069-11.042"/>
            </g>
            <g fill-rule="nonzero">
                <path d="M724.18 1215.606c25.108 0 45.467-20.36 45.467-45.467 0-25.108-20.359-45.467-45.467-45.467-25.107 0-45.466 20.36-45.466 45.467 0 25.108 20.359 45.467 45.466 45.467z" fill="#1296DB"/>
                <path d="M736.644 1177.37c0-6.639-4.041-8.876-11.85-9.944-5.76-.838-6.878-2.187-6.878-4.879 0-2.555 1.949-4.366 5.716-4.366 3.406 0 5.362 1.19 6.17 3.926.18.613.73 1.046 1.364 1.046h2.988c.83 0 1.48-.765 1.306-1.58-.945-4.33-3.86-6.929-8.436-7.744v-4.525a1.42 1.42 0 0 0-1.422-1.422h-2.843a1.42 1.42 0 0 0-1.422 1.422v4.402c-5.636.801-9.274 4.547-9.274 9.36 0 6.229 3.76 8.64 11.706 9.707 5.391.88 6.921 2.043 6.921 5.11s-2.605 5.11-6.271 5.11c-4.958 0-6.597-2.173-7.196-4.98-.144-.664-.714-1.155-1.393-1.155h-3.24c-.815 0-1.458.736-1.313 1.537.822 4.727 3.86 8.199 10.06 9.043v4.49a1.42 1.42 0 0 0 1.422 1.42h2.843a1.42 1.42 0 0 0 1.422-1.42v-4.49c5.867-.93 9.62-5.016 9.62-10.067z" fill="#FFF"/>
                <path d="M714.438 1197.304c-10.884-3.984-18.67-14.448-18.67-26.696 0-12.247 7.786-22.704 18.67-26.695.678-.246 1.22-1.068 1.22-1.79v-2.649c0-1.075-.838-1.681-1.863-1.356-13.755 4.402-23.715 17.284-23.715 32.498 0 15.213 9.96 28.095 23.715 32.49 1.025.325 1.862-.281 1.862-1.357v-2.648c0-.73-.541-1.545-1.22-1.797zm20.135-59.18c-1.025-.324-1.862.282-1.862 1.358v2.648c0 .722.541 1.545 1.22 1.79 10.883 3.984 18.67 14.448 18.67 26.696 0 12.247-7.787 22.704-18.67 26.695-.744.274-1.22 1.003-1.22 1.79v2.648c0 1.076.837 1.682 1.862 1.357 13.755-4.395 23.715-17.277 23.715-32.49 0-15.214-9.967-28.096-23.715-32.491z" fill="#FFF"/>
            </g>
            <g transform="translate(470.5 1128.5)" stroke-linecap="round" stroke-linejoin="round" stroke-width="3.92">
                <circle stroke="#E6BC7B" fill="#E6BC7B" fill-rule="nonzero" cx="46.031" cy="46.458" r="45.606"/>
                <path stroke="#000" d="M51.72 21.582V33.09H40.34V21.582M40.341 71.335V59.827H51.72v11.508M40.341 46.12H64.56v13.707H27.501V33.091H64.56"/>
                <circle stroke="#000" cx="46.03" cy="46.458" r="36.892"/>
            </g>
        </g>
        <g fill-rule="nonzero">
            <g transform="translate(157 639)">
                <use fill="#000" xlink:href="#l"/>
                <use fill="#231F20" xlink:href="#l"/>
            </g>
            <g transform="translate(157 639)">
                <use fill="#000" xlink:href="#m"/>
                <use fill="#231F20" xlink:href="#m"/>
            </g>
        </g>
        <g fill-rule="nonzero">
            <g transform="translate(857 639)">
                <use fill="#000" xlink:href="#n"/>
                <use fill="#231F20" xlink:href="#n"/>
            </g>
            <g transform="translate(857 639)">
                <use fill="#000" xlink:href="#o"/>
                <use fill="#231F20" xlink:href="#o"/>
            </g>
        </g>
        <g fill-rule="nonzero">
            <g transform="translate(446 1015)">
                <use fill="#000" xlink:href="#p"/>
                <use fill="#231F20" xlink:href="#p"/>
            </g>
        </g>
        <g>
            <path d="m351.689 774.123-2.906-7.19a23.53 23.53 0 0 0-2.806-5.11c-12.27-17.27-54.465-15.401-87.943 11.036-17.963 14.185-24.765 25.138-21.732 35.381l.843 2.937-.835-2.91c.376 1.263 1.733 5.405 2.378 6.55l4.569 9.848 6.54-3.048a41.938 41.938 0 0 0 9.963 2.55c20.38 2.784 47.679-6.393 65.86-20.058 11.071-8.32 19.01-18.495 21.72-27.96l4.349-2.026z" fill="#BED0D3"/>
            <g transform="translate(235.492 750.301)">
                <mask id="r" fill="#fff">
                    <use xlink:href="#q"/>
                </mask>
                <g stroke="#CEE9F4" stroke-width="1.061" mask="url(#r)" stroke-linecap="round" stroke-linejoin="round">
                    <path d="m-17.162 15.496 32.29 76.256M-9.836 13.527l32.29 76.257M-2.511 11.559l32.29 76.256M4.815 9.59l32.29 76.256M12.14 7.62l32.292 76.258M19.467 5.652l32.29 76.257M26.793 3.684l32.29 76.256M34.119 1.715l32.29 76.256M41.445-.254l32.29 76.257M48.77-2.222l32.29 76.256M56.097-4.191l32.29 76.256M63.423-6.16l32.29 76.256M70.748-8.13l32.29 76.258M78.074-10.097l32.29 76.256M85.4-12.066l32.29 76.256M92.726-14.035l32.29 76.257M100.052-16.004l32.29 76.257"/>
                </g>
            </g>
            <g transform="translate(235.492 750.301)">
                <mask id="t" fill="#fff">
                    <use xlink:href="#s"/>
                </mask>
                <g mask="url(#t)" opacity=".53">
                    <path transform="rotate(-.688 -9548.018 5728.129)" d="M1.316 1.428h192.32v173.288H1.316z" style="mix-blend-mode:screen"/>
                </g>
            </g>
            <path d="M263.746 785.16c33.478-26.437 75.674-28.307 87.943-11.037 8.73 12.288-1.039 31.339-19.51 45.222-18.181 13.664-45.48 22.84-65.86 20.057-28.282-3.863-35.082-28.57-2.573-54.242z" fill="#6E7989"/>
            <g stroke="#475460" stroke-linecap="round" stroke-linejoin="round" stroke-width="2.78">
                <path d="M313.16 817.973c-.863-1.648-1.191-2.561-3.233-2.078 1.72-.727 1.619-.853 2.19-1.678 1.154-1.669 2.334-4.81 7.78-9.514 0 0 5.375-2.521 8.27-4.442 0 0 2.107-1.009-.338-1.45 0 0-3.934-.814-4.224-4.727-.31-4.184 3.117-7.058 3.053-8.352-.044-.914-5.24-.05-5.24-.05l-19.91 4.058-2.24.767c-.97.332-1.752.964-2.001 1.615-1.643 4.301-7.785 20.355-9.656 26.552.437 1.54 1.665 3.1 3.945 4.226l10.42 3.024c1.334.29 2.55.508 3.535.656a4.724 4.724 0 0 0 2.525-.57c4.381-2.17 6.596-5.232 5.124-8.037z"/>
                <path d="M288.124 832.078c-5.964.778-11.834.81-17.116-.132-22.04-3.937-24.903-23.174.913-42.118 26.381-19.358 60.508-22.312 72-10.128 8.768 9.297.954 24.915-15.536 36.56a87.796 87.796 0 0 1-10.614 6.398M292.03 823.157l-22.103-6.15M287.77 813.953l-15.665-5.323M290.429 805.957l-14.79-6.057M293.977 797.39l-11.517-5.647"/>
                <path d="m313.084 798.481-3.604 6.783-3.912-1.212-3.257 6.441"/>
            </g>
            <g transform="translate(242.052 762.732)">
                <mask id="v" fill="#fff">
                    <use xlink:href="#u"/>
                </mask>
                <g mask="url(#v)" opacity=".53">
                    <path transform="rotate(-.688 -196.731 1122.34)" d="M1.088 1.472h192.32V174.76H1.088z" style="mix-blend-mode:screen"/>
                </g>
            </g>
            <path d="M34.434 35.014c30.092-21.638 67.421-21.775 78.842-7.144 8.126 10.41-3.75 30.562-20.364 41.912C76.559 80.952 50.493 88.74 31.9 86.115 6.1 82.47 5.214 56.025 34.434 35.014z" stroke="#929497" stroke-width="1.332" opacity=".44" style="mix-blend-mode:multiply" stroke-linecap="round" stroke-linejoin="round" transform="translate(235.492 750.301)"/>
            <path d="M38.356 77.486c-21.771-3.148-19.699-21.374 4.691-37.634 21.167-13.968 52.434-17.925 62.209-6.265 5.976 7.286-4.024 21.29-17.898 30.064" stroke="#929497" stroke-width="1.085" opacity=".44" style="mix-blend-mode:multiply" stroke-linecap="round" stroke-linejoin="round" transform="translate(235.492 750.301)"/>
            <path stroke="#929497" stroke-width="1.085" opacity=".44" style="mix-blend-mode:multiply" stroke-linecap="round" stroke-linejoin="round" d="m99.249 35.014-3.53 7.069 6.223.836zM60.419 35.394l24.338-5.109M29.485 65.956l3.251-9.382-5.76 4.416zM35.451 71.344l26.407 6.967M83.643 60.99l7.06-5.331M60.025 63.87l9.59 2.326-.65 5.566-10.808-3.019zM61.858 58.325c.07-.288 5.315-13.275 5.315-13.275l14.82-2.62a8.203 8.203 0 0 0 1.65 6.62" transform="translate(235.492 750.301)"/>
            <g transform="translate(154 732)">
                <path d="M98.416 55.58C94.13 24.835 72.69 2.194 53.316 3.936l-.003-.003-.095.011c-.32.03-.64.067-.961.11L40.059 5.453l1.958 3.946c-12.396 10.142-19.12 32.304-15.73 56.617 3.117 22.368 13.955 40.522 27.091 48.085l.375 5.41 11.801-1.375a22.501 22.501 0 0 0 3.305-.385h.015c19.248-3.688 33.85-31.267 29.542-62.17z" fill="url(#w)"/>
                <g transform="translate(25.207 3.798)">
                    <mask id="y" fill="#fff">
                        <use xlink:href="#x"/>
                    </mask>
                    <g stroke="#E6BC7B" stroke-width="1.113" mask="url(#y)" stroke-linecap="round" stroke-linejoin="round">
                        <path d="m-12.355 5.61 77.896-8.567M-9.883 12.546l76.58-8.522M-7.41 19.482l75.261-8.478M-4.939 26.418l73.944-8.433M-2.467 33.354l72.626-8.389M.006 40.29l71.308-8.344M2.478 47.227l69.991-8.3M4.95 54.163l68.673-8.256M7.423 61.1l67.355-8.212M9.895 68.035l66.038-8.167M12.367 74.971l64.72-8.122M14.84 81.907l63.402-8.077M17.311 88.843l62.085-8.033M19.784 95.78l60.767-7.989M22.256 102.715l59.45-7.944M24.728 109.651l58.132-7.899M27.201 116.587l56.813-7.855"/>
                    </g>
                </g>
                <path d="M97.953 55.58C93.668 24.835 72.23 2.194 52.853 3.936l-.002-.003-.095.011c-.32.03-.641.067-.961.11L39.596 5.453l1.959 3.946C29.16 19.54 22.435 41.702 25.824 66.015c3.118 22.368 13.956 40.522 27.092 48.085l.374 5.41 11.802-1.375a22.384 22.384 0 0 0 3.305-.385h.015c19.249-3.688 33.85-31.267 29.541-62.17z" fill="url(#z)"/>
                <ellipse fill="#E6BC7B" fill-rule="nonzero" transform="rotate(-7.655 48.025 62.362)" cx="48.025" cy="62.362" rx="40.467" ry="57.466"/>
                <path stroke="#BF9162" stroke-width="2.745" stroke-linecap="round" stroke-linejoin="round" d="m48.675 30.594 2.01 14.36-9.992 1.456-2.01-14.361M47.374 94.133l-2.01-14.36 9.991-1.456 2.01 14.36"/>
                <path stroke="#BF9162" stroke-width="2.745" stroke-linecap="round" stroke-linejoin="round" d="m42.97 62.667 21.265-3.098 2.394 17.106-32.54 4.739-4.67-33.364 32.54-4.739"/>
                <path d="M15.63 67.08c-3.559-25.425 7.17-49.37 25.061-51.976C58.582 12.498 76.86 32.22 80.42 57.645c3.558 25.425-8.053 49.444-25.944 52.05C36.584 112.3 19.189 92.506 15.63 67.08z" stroke="#BF9162" stroke-width="2.745" stroke-linecap="round" stroke-linejoin="round"/>
                <path d="M11.733 67.58C7.78 39.326 19.823 12.7 39.861 9.781 59.9 6.864 80.343 28.76 84.296 57.012c3.954 28.253-9.078 54.961-29.116 57.88-20.037 2.918-39.493-19.06-43.447-47.313z" stroke="#E6BC7B" stroke-width="1.358" opacity=".44" style="mix-blend-mode:screen" stroke-linecap="round" stroke-linejoin="round"/>
                <path d="M74.653 57.735c3.552 24.014-7.823 46.085-22.169 46.892-14.345.807-30.835-17.904-32.966-41.066-1.421-15.063 5.894-43.635 23.304-43.635C67.403 20.972 71.81 47.077 71.81 47.077l-35.62 5.495 2.492 23.02 22.234-2.842-1.232-7.579-16.862 2.274.568 3.126 13.358-1.8M42.113 56.596l31.403-4.121" stroke="#E6BC7B" stroke-width="1.083" opacity=".44" style="mix-blend-mode:screen" stroke-linecap="round" stroke-linejoin="round"/>
                <path stroke="#E6BC7B" stroke-width="1.083" opacity=".44" style="mix-blend-mode:screen" stroke-linecap="round" stroke-linejoin="round" d="m61.135 82.224 1.771 12.597 6.442-13.831zM69.348 57.686l1.717 12.801M50.685 83.358l2.558 17.242M32.118 86.225l9-1.067 1.705 11.747zM28.139 79.19l-3.292-25.258M27.666 42.34l8.052-1.232-1.61-10.515zM42.605 25.422l2.079 13.98M54.191 28.035 55.706 38.5l7.77-1.182z"/>
                <g transform="translate(6.906 3.798)">
                    <mask id="B" fill="#fff">
                        <use xlink:href="#A"/>
                    </mask>
                    <g mask="url(#B)" opacity=".55">
                        <path transform="rotate(-.688 -6441.289 6237.501)" d="M1.229 1.242h196.125v176.717H1.229z" style="mix-blend-mode:lighten"/>
                    </g>
                </g>
            </g>
        </g>
        <g>
            <g transform="translate(908 841.907)">
                <mask id="D" fill="#fff">
                    <use xlink:href="#C"/>
                </mask>
                <g mask="url(#D)" opacity=".53">
                    <path transform="rotate(-.985 -144.145 2526.31)" d="M.554 1.898H157.13V20.39H.554z" style="mix-blend-mode:multiply"/>
                </g>
            </g>
            <path d="M68.16 4.587 59.3 1.14l-3.345 3.294c-9.15 2.412-2.885 11.848 3.264 24.633L22.2 108.97 37.215 114a12.96 12.96 0 0 0 4.214.747C64.369 115.83 87.87 89.628 92.4 56.843c3.76-27.175-7.087-48.062-24.24-52.256z" fill="url(#E)" transform="translate(908 732)"/>
            <g transform="translate(929.635 732.865)">
                <mask id="G" fill="#fff">
                    <use xlink:href="#F"/>
                </mask>
                <g mask="url(#G)" opacity=".45">
                    <path transform="rotate(-.688 2727.122 4415.084)" d="M1.637 1.061h166.031v141.655H1.638z" style="mix-blend-mode:multiply"/>
                </g>
            </g>
            <g transform="translate(929.635 732.865)">
                <mask id="I" fill="#fff">
                    <use xlink:href="#H"/>
                </mask>
                <g stroke="#BFC6D8" stroke-width=".916" mask="url(#I)" stroke-linecap="round" stroke-linejoin="round">
                    <path d="m35.062-.344 60.834 21.389M32.11 6.21 92.944 27.6M29.156 12.766 89.99 34.155M26.205 19.32l60.833 21.39M23.252 25.876l60.833 21.389M20.299 32.43l60.834 21.39M17.346 38.987 78.18 60.376M14.394 45.542l60.833 21.39M11.44 52.097l60.834 21.389M8.488 58.652 69.322 80.04M5.535 65.207l60.834 21.389M2.582 71.762l60.834 21.39M-.37 78.317l60.834 21.389M-3.322 84.872l60.833 21.39M-6.275 91.427l60.834 21.389M-9.228 97.982l60.834 21.39M-12.18 104.537l60.833 21.389"/>
                </g>
            </g>
            <path d="M909.86 787.068c5.203-28.558 25.66-52.85 46.914-54.874 22.616-2.154 38.128 21.392 33.202 53.366-5.038 32.712-28.942 58.547-51.862 57.109-21.49-1.35-33.563-26.454-28.253-55.6z" fill="#A3AAAF"/>
            <path d="M965.228 796.675c-2.834-1.67-4.192-2.638-5.711-1.024.927-1.749.692-1.852.361-3.136-.649-2.56-2.775-6.703-2.427-14.62a63.287 63.287 0 0 0 3.253-9.274s.967-2.28-1.806-1.06a8.424 8.424 0 0 1-8.073-1.29c-3.69-3.014-3.357-7.159-4.413-8.005-.73-.586-3.808 3.108-3.808 3.108l-10.256 13.365-.889 1.623a2.753 2.753 0 0 0-.26 2.15c1.518 4.186 7.986 22.073 11.283 29.938a13.345 13.345 0 0 0 6.87 4.023l13.268.418a59.656 59.656 0 0 0 4.726-.413 3.064 3.064 0 0 0 2.197-1.945c2.311-5.292.853-10.81-4.315-13.858z" stroke="#6E7989" stroke-linecap="round" stroke-linejoin="round" stroke-width="2.324"/>
            <path d="M955.217 827.18a27.895 27.895 0 0 1-15.196 4.067c-17.287-.796-27.197-20.778-22.97-44.308 4.16-23.15 20.77-42.712 37.905-44.089 18.007-1.447 30.116 17.54 26.135 42.882a66.377 66.377 0 0 1-4.256 15.088M950.007 812.651l-20.921-.394M939.016 802.867l-13.305-.065M935.351 793.485l-12.109.107M932.282 784.23l-9.377.209" stroke="#6E7989" stroke-width="2.324" stroke-linecap="round" stroke-linejoin="round"/>
            <path stroke="#6E7989" stroke-width="2.324" stroke-linecap="round" stroke-linejoin="round" d="m946.134 775.947 2.746 8.183-4.101.769 2.7 8.12"/>
            <g transform="translate(908 732)">
                <mask id="K" fill="#fff">
                    <use xlink:href="#J"/>
                </mask>
                <g mask="url(#K)" opacity=".45">
                    <path transform="rotate(-.584 -6274.994 -714.171)" d="M1.116 1.03h175.52v162.766H1.116z" style="mix-blend-mode:lighten"/>
                </g>
            </g>
            <path d="M20.805 39.342c5.943-12.161 15.606-21.01 25.535-22.007 14.774-1.485 24.908 14.749 21.69 36.794a60.442 60.442 0 0 1-1.718 7.973M52.04 86.17c-5.47 4.971-11.735 7.741-17.891 7.334-5.625-.373-10.268-3.375-13.587-8.142l31.478.807z" stroke="#ABA3B1" stroke-width=".916" opacity=".44" style="mix-blend-mode:screen" stroke-linecap="round" stroke-linejoin="round" transform="translate(908 732)"/>
            <path d="M5.822 54.762c4.636-25.726 22.86-47.604 41.795-49.428 20.148-1.94 33.967 19.269 29.579 48.07-4.489 29.463-25.784 52.735-46.204 51.439-19.144-1.215-29.9-23.827-25.17-50.081z" stroke="#ABA3B1" stroke-width=".916" opacity=".44" style="mix-blend-mode:screen" stroke-linecap="round" stroke-linejoin="round" transform="translate(908 732)"/>
            <path stroke="#ABA3B1" stroke-width=".916" opacity=".44" style="mix-blend-mode:screen" stroke-linecap="round" stroke-linejoin="round" d="M57.02 37.084v19.97l5.588 3.965V33.12zM42.324 22.373l4.732 7.86 13.633-1.039z" transform="translate(908 732)"/>
            <path stroke="#ABA3B1" stroke-width=".916" stroke-linecap="round" stroke-linejoin="round" d="M923.779 807.222h12.831M922.496 798.681c.18-.06 11.608-.24 11.608-.24M922.905 789.058h7.712M924.24 779.069h3.353"/>
            <path stroke="#ABA3B1" stroke-width=".916" opacity=".44" style="mix-blend-mode:screen" stroke-linecap="round" stroke-linejoin="round" d="m36.225 66.312 2.887 7.82 17.308.61zM43.848 56.456l3.097 9.223M33.824 58.943s-4.652-14.516-3.26-13.172l7.648-9.422" transform="translate(908 732)"/>
        </g>
        <path fill="#FF3636" fill-rule="nonzero" d="M148.905 782v3.413l3.46-1.163.635 1.699-3.46 1.087 2.142 2.879-1.57 1.085-2.08-2.984-2.096 2.984-1.618-1.086 2.174-2.878L143 785.95l.635-1.699 3.429 1.194V782z"/>
    </g>
</svg>
