<svg width="88" height="88" viewBox="0 0 88 88" fill="none" xmlns="http://www.w3.org/2000/svg">
<circle cx="44" cy="44" r="44" fill="#DFBD84"/>
<circle cx="44" cy="44" r="35" stroke="#0C1430" stroke-width="3"/>
<path d="M45.5745 57.2189C45.5745 57.2189 47.5348 61.2018 49.1867 64.558C49.6915 65.5836 50.7348 66.2327 51.8779 66.2327C53.6389 66.2327 55.5567 66.2327 57.3292 66.2327M57.3292 66.2327C59.733 66.2327 61.8695 66.2327 62.985 66.2327C63.3591 66.2327 63.5997 65.837 63.4288 65.5042L52.4175 44.0656L63.4267 22.7293C63.5984 22.3965 63.3568 22 62.9824 22H51.119C50.9364 22 50.7684 22.0995 50.6806 22.2595L46.0252 30.7463C45.8341 31.0948 45.3324 31.0917 45.1455 30.7409L40.6318 22.265C40.545 22.1019 40.3753 22 40.1905 22H27.8518C27.5757 22 27.3518 22.2239 27.3518 22.5V65.7327C27.3518 66.0088 27.5757 66.2327 27.8518 66.2327H38.8257C39.9182 66.2327 40.9244 65.6387 41.4523 64.6821L48.7934 51.379C48.9866 51.0288 49.4922 51.0359 49.6755 51.3914L57.3292 66.2327Z" stroke="#0C1430" stroke-width="3" stroke-miterlimit="10"/>
<path d="M33.6006 66.2327V37.4127C33.6006 37.0946 34.0305 36.9952 34.1701 37.281L39.9952 49.2063V53.3226C39.9952 53.6289 40.4001 53.7383 40.5544 53.4737L44.9084 46.0044C44.9584 45.9186 44.9627 45.8137 44.9199 45.7241L33.6006 22" stroke="#0C1430" stroke-width="3" stroke-miterlimit="10"/>
<path d="M57.5542 22L49.2948 37.7217C49.2494 37.8081 49.2489 37.911 49.2933 37.9979L52.6385 44.5381" stroke="#0C1430" stroke-width="3" stroke-miterlimit="10"/>
<circle opacity="0.2" cx="44" cy="44" r="40" stroke="#FFFFEB" stroke-width="1.5"/>
</svg>
