<?xml version="1.0"?>
<svg width="83" height="83" xmlns="http://www.w3.org/2000/svg" xmlns:svg="http://www.w3.org/2000/svg">
 <defs>
  <linearGradient id="paint0_linear_16_141" x1="0.08" x2="0.95" y1="0.45" y2="0.26">
   <stop stop-color="#33CC88"/>
   <stop offset="1" stop-color="#DB5DF4"/>
  </linearGradient>
  <linearGradient id="paint1_linear_16_141" x1="0.12" x2="0.67" y1="0.98" y2="-0.08">
   <stop stop-color="#39DC95"/>
   <stop offset="1" stop-color="#DB5DF4"/>
  </linearGradient>
  <clipPath id="clip0_16_141">
   <rect fill="white" height="83" id="svg_1" transform="translate(0 1)" width="82"/>
  </clipPath>
 </defs>
 <g class="layer">
  <title>Layer 1</title>
  <g clip-path="url(#clip0_16_141)" id="svg_2">
   <path d="m61.59,10c-8,0.18 -15.27,5.33 -15.22,13.43c0,16.71 8.23,23.86 -12.59,30.42c-18,3.9 -25.28,-6.06 -21.34,-11.27c4.09,-3.93 9.58,-3.44 10.16,-6c-0.72,-2.35 -4.81,-4.33 -13.6,-2.35c-0.72,-8.44 -2.78,-13 -4.71,-11.31c-2.08,1.85 -2.4,8.18 -2.29,11.44c3.75,50.72 73.62,51.21 80.65,3c1.35,-20.62 -10.77,-27.57 -21.06,-27.35l0,-0.01zm7.41,10.09c0.94,0.07 1.81,0.5 2.42,1.21c0.62,0.7 0.93,1.62 0.87,2.56c0.06,0.47 0.03,0.95 -0.11,1.4c-0.14,0.45 -0.37,0.87 -0.68,1.23c-0.31,0.36 -0.7,0.64 -1.13,0.84c-0.43,0.19 -0.9,0.3 -1.37,0.3c-0.47,0 -0.94,-0.11 -1.37,-0.3c-0.43,-0.2 -0.82,-0.48 -1.13,-0.84c-0.31,-0.36 -0.54,-0.78 -0.68,-1.23c-0.14,-0.45 -0.17,-0.93 -0.11,-1.4c-0.06,-0.94 0.25,-1.86 0.87,-2.56c0.61,-0.71 1.48,-1.14 2.42,-1.21l0,0zm-8.83,33.8c5.83,4 0,13.4 -10.59,8.27c-0.23,-0.11 -0.22,-0.52 0.34,-0.81c3.57,-1.86 6.72,-4.42 9.28,-7.52c0.15,-0.29 0.59,-0.17 0.92,0.06l0.05,0z" fill="url(#paint0_linear_16_141)" id="svg_3"/>
   <path d="m36.15,51.18c2.26,-0.11 8.84,-4.59 9.46,-6.56c0.38,-1.23 -10.38,-3.32 -12.15,0.32c-0.95,1.96 -0.46,6.38 2.69,6.24z" fill="url(#paint1_linear_16_141)" id="svg_4"/>
  </g>
 </g>
</svg>