<svg width="88" height="88" viewBox="0 0 88 88" fill="none" xmlns="http://www.w3.org/2000/svg">
<circle cx="44" cy="44" r="44" fill="#A3A7B0"/>
<path d="M61.8228 74.1556C51.4251 80.3162 38.1166 80.9176 26.8196 74.5767C9.96336 65.1154 3.96861 43.7808 13.4299 26.9246C22.8912 10.0684 44.2258 4.07368 61.0819 13.535C75.2248 21.4733 81.7215 37.7701 77.8582 52.7671" stroke="#0C1430" stroke-width="3" stroke-linecap="round"/>
<path d="M49.6951 35.6111C53.2245 30.7755 51.0899 24.5464 46.3704 20.9823L45.7315 20.522C39.0145 15.6827 30.0202 15.3423 21.9214 28.2904C5.30899 60.2371 47.4187 90.1289 71.5798 61.3344C73.0542 59.427 75.597 55.4929 75.149 53.4849C74.7218 51.6377 71.5164 53.4822 67.4384 58.2322C63.0228 53.2474 59.7148 52.6677 58.2678 53.7659C57.5096 55.5516 61.0134 57.6296 61.7681 61.7532C61.8799 66.5796 53.2114 69.407 44.1025 59.2919C34.4517 46.3634 42.4759 45.6314 49.6951 35.6111Z" fill="#0C1430"/>
<path d="M37.3772 23.8563C36.7877 23.4923 36.2688 23.3515 35.594 23.5087C34.9193 23.666 34.3341 24.0837 33.9662 24.6708C33.7254 24.9248 33.5416 25.2274 33.4274 25.5582C33.3131 25.8891 33.271 26.2405 33.3037 26.589C33.3365 26.9375 33.4435 27.275 33.6175 27.5787C33.7914 27.8824 34.0284 28.1454 34.3124 28.3501C34.5964 28.5547 34.9209 28.6961 35.264 28.765C35.6072 28.8338 35.9612 28.8285 36.3021 28.7492C36.6431 28.67 36.9631 28.5187 37.2408 28.3056C37.5184 28.0925 37.7473 27.8224 37.912 27.5135C38.3524 26.9787 38.5634 26.2914 38.4989 25.6015C38.4344 24.9117 37.9091 24.3002 37.3772 23.8563Z" fill="#AAA3B0" stroke="#AAA3B0"/>
<path d="M27.246 47.5888C22.0219 47.4687 21.4569 55.6242 30.0235 57.1231C30.209 57.1565 30.3801 56.9064 30.1696 56.4905C28.8344 53.8349 28.0468 50.938 27.8536 47.9719C27.8889 47.7332 27.5732 47.6151 27.276 47.6104L27.246 47.5888Z" fill="#AAA3B0" stroke="#AAA3B0"/>
<path d="M46.9667 56.166C45.659 55.1236 43.6487 49.5944 44.1281 48.1453C44.4316 47.2435 51.7868 50.6388 51.2756 53.5863C50.9985 55.172 48.7952 57.6108 46.9667 56.166Z" fill="#0C1430"/>
<circle opacity="0.2" cx="44" cy="44" r="40" stroke="#F0E9F6" stroke-width="1.5"/>
</svg>
